{"glyphs":{"0":{"ha":800,"x_min":65,"x_max":735,"o":"m 735 360 q 647 87 735 188 q 397 -14 560 -14 q 149 87 233 -14 q 65 356 65 188 q 151 628 65 519 q 403 738 236 738 q 654 628 574 738 q 735 360 735 519 m 628 364 q 573 571 628 494 q 401 647 518 647 q 230 573 286 647 q 174 363 174 499 q 231 151 174 226 q 400 76 288 76 q 628 364 628 76 z "},"1":{"ha":535,"x_min":72,"x_max":507,"o":"m 507 0 l 72 0 l 72 89 l 242 89 l 242 635 l 72 635 l 72 724 l 344 724 l 344 89 l 507 89 l 507 0 z "},"2":{"ha":715,"x_min":67,"x_max":657,"o":"m 106 676 q 224 722 156 706 q 354 738 293 738 q 548 668 490 738 q 606 522 606 599 q 535 345 606 426 q 370 199 465 264 q 199 89 275 135 l 560 89 l 572 200 l 657 193 l 642 0 l 78 0 l 67 79 q 381 310 264 213 q 497 511 497 408 q 332 650 497 650 q 261 642 303 650 q 185 618 219 633 l 163 514 l 82 524 l 106 676 z "},"3":{"ha":679,"x_min":47,"x_max":618,"o":"m 92 665 q 194 715 131 692 q 326 738 257 738 q 508 681 436 738 q 579 517 579 624 q 541 391 579 449 q 406 303 503 333 l 406 297 q 574 213 529 276 q 618 69 618 149 q 540 -124 618 -51 q 325 -196 461 -196 q 131 -139 197 -196 q 47 0 64 -82 l 126 28 q 190 -68 146 -28 q 322 -108 235 -108 q 472 -51 433 -108 q 510 75 510 6 q 451 203 510 157 q 247 253 393 249 l 247 328 q 425 390 378 333 q 472 504 472 446 q 428 611 472 572 q 307 650 385 650 q 174 615 239 650 l 149 503 l 68 513 l 92 665 z "},"4":{"ha":749,"x_min":26,"x_max":713,"o":"m 567 -182 l 467 -182 l 467 47 l 38 47 l 26 133 l 350 724 l 567 724 l 567 133 l 713 133 l 701 47 l 567 47 l 567 -182 m 467 133 l 467 636 l 399 636 l 125 133 l 467 133 z "},"5":{"ha":711,"x_min":79,"x_max":653,"o":"m 653 89 q 575 -120 653 -46 q 357 -194 497 -194 q 165 -138 233 -194 q 79 0 96 -82 l 158 28 q 226 -71 178 -33 q 349 -108 274 -108 q 497 -56 449 -108 q 544 85 544 -4 q 458 251 544 215 q 260 286 372 286 q 143 282 200 286 l 108 315 l 108 724 l 611 724 l 624 532 l 539 524 l 525 636 l 203 636 l 203 371 q 238 372 219 372 q 272 372 256 372 q 456 351 369 372 q 598 268 543 329 q 653 89 653 207 z "},"6":{"ha":738,"x_min":67,"x_max":671,"o":"m 671 285 q 602 74 671 161 q 379 -14 533 -14 q 132 111 197 -14 q 67 426 67 236 q 141 776 67 635 q 397 917 215 917 q 544 886 483 917 q 656 794 606 856 l 596 733 q 396 829 519 829 q 221 727 267 829 q 174 436 175 625 q 172 421 172 433 q 172 407 172 408 q 250 512 193 464 q 417 560 307 560 q 613 478 554 560 q 671 285 671 396 m 568 281 q 527 422 568 372 q 392 472 486 472 q 231 407 278 472 q 179 278 185 342 q 236 133 192 189 q 382 78 281 78 q 525 132 482 78 q 568 281 568 186 z "},"7":{"ha":654,"x_min":47,"x_max":632,"o":"m 632 665 l 289 -181 l 188 -181 l 524 636 l 139 636 l 139 482 l 47 482 l 47 724 l 618 724 l 632 665 z "},"8":{"ha":747,"x_min":63,"x_max":688,"o":"m 688 226 q 596 51 688 115 q 367 -14 504 -14 q 148 46 233 -14 q 63 222 63 106 q 127 376 63 325 q 274 463 192 428 q 142 549 199 499 q 86 686 86 600 q 166 852 86 788 q 372 917 246 917 q 576 856 494 917 q 658 692 658 794 q 600 558 658 604 q 467 479 542 511 q 620 383 553 439 q 688 226 688 328 m 556 685 q 501 795 556 760 q 372 831 447 831 q 244 795 294 831 q 193 697 193 760 q 252 588 193 628 q 389 513 311 547 q 511 583 467 547 q 556 685 556 619 m 581 222 q 508 346 581 303 q 347 429 436 389 q 217 355 269 396 q 164 236 164 314 q 222 115 164 157 q 369 72 279 72 q 519 111 458 72 q 581 222 581 150 z "},"9":{"ha":738,"x_min":67,"x_max":671,"o":"m 67 439 q 136 649 67 561 q 358 738 206 738 q 605 612 539 738 q 671 297 671 486 q 597 -52 671 89 q 340 -193 522 -193 q 193 -162 254 -193 q 82 -71 132 -132 l 142 -10 q 342 -106 218 -106 q 516 -3 471 -106 q 564 288 561 99 q 565 301 565 289 q 565 317 565 314 q 488 213 544 261 q 321 164 431 164 q 125 246 183 164 q 67 439 67 328 m 169 443 q 211 301 169 351 q 346 251 253 251 q 506 317 460 251 q 558 446 553 382 q 502 590 546 535 q 356 646 458 646 q 213 592 256 646 q 169 443 169 538 z "}," ":{"ha":315,"x_min":0,"x_max":0,"o":""},"A":{"ha":900,"x_min":1,"x_max":910,"o":"m 910 0 l 589 0 l 589 89 l 710 89 l 644 263 l 258 263 l 189 89 l 319 89 l 319 0 l 1 0 l 1 89 l 86 89 l 382 814 l 238 814 l 238 903 l 494 903 l 818 89 l 910 89 l 910 0 m 615 342 l 460 756 l 451 756 l 289 342 l 615 342 z "},"B":{"ha":839,"x_min":58,"x_max":783,"o":"m 783 256 q 707 74 783 149 q 481 0 631 0 l 58 0 l 58 89 l 172 89 l 172 814 l 58 814 l 58 903 l 474 903 q 678 843 611 903 q 746 686 746 783 q 703 560 746 614 q 590 492 660 506 l 590 486 q 736 406 689 471 q 783 256 783 342 m 638 663 q 590 781 638 747 q 457 814 542 814 l 274 814 l 274 508 l 453 508 q 585 548 533 508 q 638 663 638 588 m 675 261 q 630 381 675 338 q 496 425 585 425 l 274 425 l 274 89 l 463 89 q 617 130 560 89 q 675 261 675 171 z "},"C":{"ha":897,"x_min":56,"x_max":829,"o":"m 799 69 q 497 -14 690 -14 q 178 117 300 -14 q 56 446 56 249 q 108 678 56 571 q 257 851 161 786 q 485 917 353 917 q 673 888 597 917 q 804 811 749 858 l 829 638 l 742 629 l 717 761 q 621 808 672 790 q 493 825 569 825 q 253 719 344 825 q 163 450 163 614 q 256 180 163 282 q 511 78 350 78 q 710 118 629 78 l 736 251 l 822 243 l 799 69 z "},"D":{"ha":979,"x_min":58,"x_max":924,"o":"m 924 453 q 802 127 924 254 q 467 0 681 0 l 58 0 l 58 88 l 172 88 l 172 815 l 58 815 l 58 903 l 463 903 q 803 776 683 903 q 924 453 924 649 m 815 451 q 724 715 815 615 q 461 815 633 815 l 274 815 l 274 88 l 461 88 q 724 185 633 88 q 815 451 815 283 z "},"E":{"ha":817,"x_min":58,"x_max":757,"o":"m 731 0 l 58 0 l 58 89 l 172 89 l 172 814 l 58 814 l 58 903 l 718 903 l 746 647 l 657 638 l 629 814 l 274 814 l 274 503 l 700 503 l 700 414 l 274 414 l 274 89 l 642 89 l 669 265 l 757 256 l 731 0 z "},"F":{"ha":775,"x_min":58,"x_max":743,"o":"m 743 643 l 651 633 l 624 814 l 274 814 l 274 463 l 689 463 l 689 374 l 274 374 l 274 89 l 433 89 l 433 0 l 58 0 l 58 89 l 172 89 l 172 814 l 58 814 l 58 903 l 714 903 l 743 643 z "},"G":{"ha":960,"x_min":56,"x_max":922,"o":"m 922 375 l 851 375 l 851 0 l 774 0 l 761 125 q 647 26 721 65 q 472 -14 572 -14 q 171 119 286 -14 q 56 447 56 253 q 112 684 56 578 q 267 853 168 790 q 496 917 367 917 q 685 887 604 917 q 818 811 767 857 l 843 642 l 757 632 l 729 760 q 638 805 692 785 q 501 825 585 825 q 257 721 350 825 q 164 451 164 617 q 253 181 164 283 q 490 78 342 78 q 682 145 614 78 q 750 294 750 213 l 750 375 l 535 375 l 535 465 l 922 465 l 922 375 z "},"H":{"ha":1049,"x_min":58,"x_max":990,"o":"m 990 0 l 661 0 l 661 89 l 775 89 l 775 417 l 274 417 l 274 89 l 388 89 l 388 0 l 58 0 l 58 89 l 172 89 l 172 814 l 58 814 l 58 903 l 388 903 l 388 814 l 274 814 l 274 503 l 775 503 l 775 814 l 661 814 l 661 903 l 990 903 l 990 814 l 876 814 l 876 89 l 990 89 l 990 0 z "},"I":{"ha":447,"x_min":58,"x_max":388,"o":"m 388 0 l 58 0 l 58 89 l 172 89 l 172 814 l 58 814 l 58 903 l 388 903 l 388 814 l 275 814 l 275 89 l 388 89 l 388 0 z "},"J":{"ha":633,"x_min":24,"x_max":581,"o":"m 581 814 l 481 814 l 481 231 q 419 47 481 108 q 249 -14 358 -14 q 106 24 160 -14 q 24 124 53 63 l 97 179 q 160 102 126 122 q 240 82 194 82 q 347 122 314 82 q 379 231 379 163 l 379 814 l 200 814 l 200 903 l 581 903 l 581 814 z "},"K":{"ha":892,"x_min":58,"x_max":882,"o":"m 882 0 l 557 0 l 557 89 l 664 89 l 425 415 l 275 415 l 275 89 l 379 89 l 379 0 l 58 0 l 58 89 l 172 89 l 172 814 l 58 814 l 58 903 l 381 903 l 381 814 l 275 814 l 275 503 l 422 503 l 654 815 l 547 815 l 547 904 l 865 904 l 865 815 l 763 815 l 503 469 l 781 89 l 882 89 l 882 0 z "},"L":{"ha":757,"x_min":58,"x_max":738,"o":"m 710 0 l 58 0 l 58 89 l 172 89 l 172 814 l 58 814 l 58 903 l 425 903 l 425 814 l 274 814 l 274 89 l 619 89 l 647 296 l 738 289 l 710 0 z "},"M":{"ha":1225,"x_min":56,"x_max":1169,"o":"m 1169 814 l 1051 814 l 1051 89 l 1164 89 l 1164 0 l 843 0 l 843 89 l 949 89 l 949 664 l 943 664 l 640 46 l 586 46 l 276 668 l 271 668 l 271 89 l 379 89 l 379 0 l 60 0 l 60 89 l 174 89 l 174 814 l 56 814 l 56 903 l 263 903 l 614 196 l 619 196 l 961 903 l 1169 903 l 1169 814 z "},"N":{"ha":1025,"x_min":53,"x_max":976,"o":"m 976 814 l 864 814 l 864 0 l 799 0 l 275 711 l 269 711 l 269 89 l 413 89 l 413 0 l 68 0 l 68 89 l 172 89 l 172 814 l 53 814 l 53 903 l 247 903 l 761 207 l 767 207 l 767 814 l 631 814 l 631 903 l 976 903 l 976 814 z "},"O":{"ha":1013,"x_min":54,"x_max":958,"o":"m 958 451 q 901 218 958 324 q 742 49 844 113 q 503 -14 639 -14 q 176 123 299 -14 q 54 451 54 260 q 180 781 54 646 q 506 917 306 917 q 833 781 708 917 q 958 451 958 644 m 849 450 q 756 719 849 613 q 506 825 663 825 q 254 717 344 825 q 164 453 164 608 q 254 189 164 300 q 508 78 344 78 q 758 185 668 78 q 849 450 849 293 z "},"P":{"ha":797,"x_min":58,"x_max":756,"o":"m 756 626 q 669 410 756 485 q 450 336 583 336 l 274 336 l 274 89 l 429 89 l 429 0 l 58 0 l 58 89 l 172 89 l 172 814 l 58 814 l 58 903 l 442 903 q 683 821 610 903 q 756 626 756 739 m 647 624 q 596 763 647 711 q 433 814 544 814 l 274 814 l 274 425 l 438 425 q 647 624 647 425 z "},"Q":{"ha":1022,"x_min":54,"x_max":958,"o":"m 958 451 q 925 272 958 356 q 833 124 892 188 l 938 18 l 874 -46 l 764 65 q 503 -14 651 -14 q 176 123 299 -14 q 54 451 54 260 q 180 781 54 646 q 506 917 306 917 q 833 781 708 917 q 958 451 958 644 m 849 450 q 756 719 849 613 q 506 825 663 825 q 254 717 344 825 q 164 453 164 608 q 254 189 164 300 q 508 78 344 78 q 697 133 618 78 l 529 303 l 594 367 l 764 194 q 849 450 849 294 z "},"R":{"ha":857,"x_min":58,"x_max":843,"o":"m 843 0 l 663 0 l 468 378 l 275 378 l 275 89 l 396 89 l 396 0 l 58 0 l 58 89 l 172 89 l 172 814 l 58 814 l 58 903 l 449 903 q 689 830 617 903 q 761 647 761 757 q 713 491 761 560 q 568 397 664 422 l 729 89 l 843 89 l 843 0 m 654 643 q 603 773 654 732 q 436 814 551 814 l 275 814 l 275 463 l 439 463 q 604 510 554 463 q 654 643 654 558 z "},"S":{"ha":740,"x_min":68,"x_max":681,"o":"m 681 253 q 588 54 681 122 q 358 -14 496 -14 q 68 60 169 -14 l 88 238 l 171 229 l 165 115 q 257 83 211 92 q 353 75 303 75 q 506 113 442 75 q 571 243 571 151 q 500 377 571 346 q 346 428 429 408 q 219 463 282 442 q 115 531 157 485 q 74 667 74 578 q 159 856 74 794 q 361 917 244 917 q 513 896 436 917 q 632 842 589 875 l 640 663 l 557 654 l 543 789 q 456 819 500 811 q 371 826 411 826 q 234 788 286 826 q 182 678 182 750 q 244 564 182 593 q 383 517 307 535 q 513 481 444 503 q 631 408 582 460 q 681 253 681 356 z "},"T":{"ha":861,"x_min":29,"x_max":832,"o":"m 832 628 l 742 621 l 714 814 l 481 814 l 481 89 l 640 89 l 640 0 l 224 0 l 224 89 l 379 89 l 379 814 l 146 814 l 118 621 l 29 628 l 56 903 l 804 903 l 832 628 z "},"U":{"ha":997,"x_min":50,"x_max":944,"o":"m 944 814 l 857 814 l 857 371 q 824 187 857 275 q 713 42 792 99 q 496 -14 635 -14 q 219 98 294 -14 q 143 356 143 210 l 143 814 l 50 814 l 50 903 l 371 903 l 371 814 l 246 814 l 246 358 q 308 151 246 225 q 501 78 371 78 q 761 371 761 78 l 761 814 l 632 814 l 632 903 l 944 903 l 944 814 z "},"V":{"ha":900,"x_min":-6,"x_max":901,"o":"m 901 814 l 817 814 l 490 0 l 410 0 l 83 814 l -6 814 l -6 903 l 321 903 l 321 814 l 194 814 l 453 150 l 460 150 l 713 814 l 585 814 l 585 903 l 901 903 l 901 814 z "},"W":{"ha":1297,"x_min":0,"x_max":1290,"o":"m 1290 814 l 1214 814 l 972 0 l 890 0 l 653 722 l 647 722 l 417 0 l 335 0 l 76 814 l 0 814 l 0 903 l 313 903 l 313 814 l 185 814 l 375 165 l 381 165 l 589 814 l 499 814 l 499 903 l 810 903 l 810 814 l 719 814 l 931 161 l 936 161 l 1111 814 l 981 814 l 981 903 l 1290 903 l 1290 814 z "},"X":{"ha":878,"x_min":8,"x_max":868,"o":"m 868 0 l 553 0 l 553 89 l 664 89 l 433 397 l 213 89 l 319 89 l 319 0 l 8 0 l 8 89 l 101 89 l 382 467 l 114 814 l 24 814 l 24 903 l 332 903 l 332 814 l 231 814 l 440 536 l 640 814 l 549 814 l 549 903 l 854 903 l 854 814 l 754 814 l 492 468 l 782 89 l 868 89 l 868 0 z "},"Y":{"ha":851,"x_min":-6,"x_max":847,"o":"m 847 814 l 758 814 l 478 344 l 478 89 l 636 89 l 636 0 l 221 0 l 221 89 l 376 89 l 376 346 l 83 814 l -6 814 l -6 903 l 324 903 l 324 814 l 200 814 l 428 439 l 435 439 l 656 814 l 531 814 l 531 903 l 847 903 l 847 814 z "},"Z":{"ha":801,"x_min":44,"x_max":750,"o":"m 714 0 l 47 0 l 44 61 l 578 810 l 578 814 l 189 814 l 150 629 l 64 642 l 99 903 l 721 903 l 724 847 l 188 93 l 188 89 l 624 89 l 663 281 l 750 268 l 714 0 z "},"a":{"ha":671,"x_min":56,"x_max":647,"o":"m 113 571 q 215 617 161 603 q 331 631 269 631 q 551 424 551 631 l 551 129 q 604 63 551 63 q 646 71 628 63 l 647 7 q 567 -14 610 -14 q 454 111 457 -14 l 454 114 q 372 25 425 64 q 243 -14 318 -14 q 119 24 182 -14 q 56 160 56 61 q 148 313 56 276 q 344 350 240 350 q 401 349 372 350 q 454 344 429 347 l 454 400 q 426 508 454 467 q 314 550 397 550 q 194 525 246 550 l 171 418 l 90 428 l 113 571 m 454 232 l 454 279 q 399 283 428 281 q 339 286 369 286 q 213 265 269 286 q 157 171 157 243 q 194 89 157 111 q 272 67 232 67 q 392 111 336 67 q 454 232 449 156 z "},"b":{"ha":742,"x_min":-1,"x_max":689,"o":"m 689 325 q 661 165 689 243 q 572 37 633 88 q 414 -14 511 -14 q 197 103 258 -14 l 183 0 l 86 0 q 99 88 92 40 q 106 181 106 135 l 106 876 l -1 876 l -1 956 l 203 956 l 203 490 q 283 589 231 547 q 424 631 335 631 q 614 551 539 631 q 689 325 689 472 m 586 315 q 532 489 586 431 q 400 547 478 547 q 258 482 311 547 q 203 349 206 417 l 203 256 q 258 124 203 178 q 393 69 313 69 q 540 144 494 69 q 586 315 586 219 z "},"c":{"ha":642,"x_min":53,"x_max":594,"o":"m 594 208 q 522 57 582 128 q 333 -14 461 -14 q 129 69 206 -14 q 53 300 53 151 q 125 529 53 428 q 342 631 197 631 q 454 617 403 631 q 553 567 506 603 l 576 418 l 496 408 l 472 513 q 340 547 417 547 q 199 476 242 547 q 156 306 156 406 q 204 132 156 194 q 344 69 253 69 q 511 226 483 69 l 594 208 z "},"d":{"ha":763,"x_min":53,"x_max":743,"o":"m 743 0 l 539 0 l 539 125 q 456 28 508 69 q 318 -14 403 -14 q 126 67 199 -14 q 53 293 53 149 q 117 524 53 417 q 332 631 181 631 q 539 518 476 631 l 539 876 l 389 876 l 389 956 l 636 956 l 636 79 l 743 79 l 743 0 m 539 274 l 539 372 q 482 499 536 450 q 354 547 428 547 q 203 472 251 547 q 156 300 156 397 q 209 128 156 186 q 343 69 263 69 q 481 137 426 69 q 539 274 536 204 z "},"e":{"ha":653,"x_min":53,"x_max":604,"o":"m 604 178 q 525 42 592 99 q 344 -14 458 -14 q 133 68 214 -14 q 53 300 53 150 q 129 538 53 444 q 336 631 206 631 q 531 550 464 631 q 599 360 597 469 q 590 286 599 324 l 156 286 q 351 69 164 69 q 467 104 425 69 q 522 196 508 139 l 604 178 m 496 358 q 463 489 503 428 q 333 550 424 550 q 207 493 247 550 q 157 358 167 436 l 496 358 z "},"f":{"ha":443,"x_min":36,"x_max":528,"o":"m 361 969 q 438 961 404 969 q 504 925 472 953 l 528 782 l 449 772 l 422 878 q 351 889 394 889 q 242 742 242 889 l 242 618 l 401 618 l 401 540 l 242 540 l 242 79 l 382 79 l 382 0 l 36 0 l 36 79 l 143 79 l 143 540 l 54 540 l 54 618 l 143 618 l 143 733 q 208 906 143 842 q 361 969 272 969 z "},"g":{"ha":761,"x_min":53,"x_max":738,"o":"m 738 539 l 638 539 l 638 8 q 558 -224 638 -137 q 333 -310 478 -310 q 159 -265 236 -310 q 57 -128 82 -221 l 135 -89 q 217 -194 158 -161 q 338 -226 275 -226 q 483 -165 426 -226 q 539 13 539 -103 l 539 126 q 458 32 511 72 q 318 -8 406 -8 q 131 69 208 -8 q 53 293 53 147 q 119 524 53 417 q 329 631 186 631 q 539 521 476 631 l 539 618 l 738 618 l 738 539 m 539 267 l 539 374 q 485 499 539 451 q 356 547 432 547 q 205 472 251 547 q 158 300 158 397 q 210 131 158 186 q 339 75 263 75 q 482 136 428 75 q 539 267 536 197 z "},"h":{"ha":778,"x_min":24,"x_max":765,"o":"m 765 0 l 451 0 l 451 79 l 560 79 l 560 367 q 519 508 560 467 q 414 549 478 549 q 283 494 333 549 q 229 371 232 439 l 229 79 l 336 79 l 336 0 l 24 0 l 24 79 l 131 79 l 131 876 l 24 876 l 24 956 l 229 956 l 229 507 q 446 631 297 631 q 597 575 536 631 q 658 396 658 519 l 658 79 l 765 79 l 765 0 z "},"i":{"ha":389,"x_min":44,"x_max":361,"o":"m 146 778 l 146 904 l 251 904 l 251 778 l 146 778 m 361 0 l 47 0 l 47 79 l 156 79 l 156 539 l 44 539 l 44 618 l 253 618 l 253 79 l 361 79 l 361 0 z "},"j":{"ha":350,"x_min":-22,"x_max":246,"o":"m 140 778 l 140 904 l 246 904 l 246 778 l 140 778 m 246 -18 q 170 -258 246 -194 q -19 -311 94 -321 l -22 -236 q 56 -224 17 -236 q 121 -165 94 -211 q 147 -18 147 -118 l 147 539 l 10 539 l 10 618 l 246 618 l 246 -18 z "},"k":{"ha":722,"x_min":21,"x_max":707,"o":"m 707 0 l 415 0 l 415 79 l 508 79 l 339 289 l 229 289 l 229 79 l 318 79 l 318 0 l 24 0 l 24 79 l 131 79 l 131 876 l 21 876 l 21 956 l 229 956 l 229 364 l 340 364 l 482 539 l 386 539 l 386 618 l 675 618 l 675 539 l 581 539 l 415 335 l 619 79 l 707 79 l 707 0 z "},"l":{"ha":369,"x_min":26,"x_max":342,"o":"m 342 0 l 28 0 l 28 79 l 136 79 l 136 876 l 26 876 l 26 956 l 233 956 l 233 79 l 342 79 l 342 0 z "},"m":{"ha":1199,"x_min":40,"x_max":1186,"o":"m 1186 0 l 890 0 l 890 79 l 981 79 l 981 367 q 941 508 981 467 q 840 549 901 549 q 710 485 756 549 q 663 363 664 421 l 663 79 l 769 79 l 769 0 l 475 0 l 475 79 l 564 79 l 564 367 q 525 508 564 468 q 426 549 486 549 q 295 487 340 549 q 247 365 250 425 l 247 79 l 361 79 l 361 0 l 42 0 l 42 79 l 150 79 l 150 539 l 40 539 l 40 618 l 247 618 l 247 503 q 329 594 278 558 q 454 631 381 631 q 580 594 526 631 q 653 482 633 558 q 735 589 681 547 q 871 631 790 631 q 1019 575 960 631 q 1078 396 1078 519 l 1078 79 l 1186 79 l 1186 0 z "},"n":{"ha":796,"x_min":39,"x_max":783,"o":"m 783 0 l 471 0 l 471 79 l 578 79 l 578 367 q 538 508 578 467 q 435 549 497 549 q 301 494 351 549 q 247 368 250 439 l 247 79 l 356 79 l 356 0 l 42 0 l 42 79 l 150 79 l 150 539 l 39 539 l 39 618 l 247 618 l 247 508 q 464 631 314 631 q 615 575 554 631 q 676 396 676 519 l 676 79 l 783 79 l 783 0 z "},"o":{"ha":713,"x_min":51,"x_max":661,"o":"m 661 310 q 578 78 661 169 q 351 -14 494 -14 q 131 75 211 -14 q 51 304 51 164 q 129 535 51 439 q 357 632 207 632 q 585 537 508 632 q 661 310 661 442 m 558 311 q 505 483 558 417 q 354 549 451 549 q 205 481 257 549 q 153 310 153 413 q 204 139 153 208 q 354 69 256 69 q 506 138 453 69 q 558 311 558 207 z "},"p":{"ha":764,"x_min":17,"x_max":711,"o":"m 711 326 q 683 166 711 244 q 592 37 654 88 q 429 -14 531 -14 q 225 90 289 -14 l 225 -217 l 368 -217 l 368 -296 l 18 -296 l 18 -217 l 128 -217 l 128 539 l 17 539 l 17 618 l 225 618 l 225 489 q 306 588 253 544 q 444 631 358 631 q 638 550 564 631 q 711 326 711 469 m 608 318 q 554 488 608 429 q 419 547 500 547 q 282 481 336 547 q 225 344 228 415 l 225 253 q 279 122 225 175 q 410 69 333 69 q 561 144 514 69 q 608 318 608 219 z "},"q":{"ha":742,"x_min":53,"x_max":732,"o":"m 732 -296 l 394 -296 l 394 -217 l 539 -217 l 539 126 q 458 28 511 69 q 318 -14 406 -14 q 128 65 203 -14 q 53 292 53 144 q 81 451 53 372 q 169 580 108 529 q 328 631 231 631 q 459 599 400 631 q 547 511 518 568 q 553 565 550 538 q 561 618 556 592 l 658 618 q 643 522 649 569 q 638 426 638 475 l 638 -217 l 732 -217 l 732 -296 m 539 274 l 539 367 q 483 496 539 444 q 349 547 426 547 q 201 472 247 547 q 156 301 156 397 q 210 128 156 186 q 342 69 264 69 q 483 137 429 69 q 539 274 536 204 z "},"r":{"ha":583,"x_min":39,"x_max":524,"o":"m 394 629 q 500 597 461 629 l 524 442 l 444 432 l 421 538 q 374 546 397 546 q 283 501 319 546 q 247 383 247 456 l 247 79 l 390 79 l 390 0 l 42 0 l 42 79 l 150 79 l 150 539 l 39 539 l 39 618 l 242 618 l 242 507 q 301 594 260 558 q 394 629 342 629 z "},"s":{"ha":608,"x_min":57,"x_max":554,"o":"m 554 179 q 478 38 554 89 q 292 -14 403 -14 q 162 3 226 -14 q 57 47 97 21 l 76 188 l 154 179 l 150 97 q 288 67 214 67 q 403 92 353 67 q 454 171 454 118 q 415 243 454 222 q 319 274 376 264 q 203 297 261 283 q 106 345 144 311 q 67 451 67 379 q 139 590 67 550 q 296 631 211 631 q 416 614 360 631 q 511 574 472 597 l 526 429 l 446 419 l 431 519 q 304 550 372 550 q 208 528 246 550 q 171 458 171 506 q 210 390 171 410 q 306 360 249 369 q 419 338 363 351 q 515 288 476 324 q 554 179 554 253 z "},"t":{"ha":515,"x_min":21,"x_max":508,"o":"m 508 167 q 313 -14 483 -14 q 170 39 219 -14 q 121 182 121 92 l 121 540 l 21 540 l 21 618 l 121 618 l 121 817 l 218 817 l 218 618 l 460 618 l 460 540 l 218 540 l 218 194 q 242 105 218 139 q 322 71 267 71 q 390 93 358 71 q 435 190 421 115 l 508 167 z "},"u":{"ha":779,"x_min":13,"x_max":758,"o":"m 758 0 l 550 0 l 550 117 q 465 22 521 58 q 335 -14 408 -14 q 183 42 244 -14 q 121 222 121 99 l 121 539 l 13 539 l 13 618 l 218 618 l 218 250 q 260 110 218 150 q 367 69 301 69 q 497 129 446 69 q 550 256 547 189 l 550 539 l 421 539 l 421 618 l 647 618 l 647 79 l 758 79 l 758 0 z "},"v":{"ha":707,"x_min":10,"x_max":694,"o":"m 694 539 l 619 539 l 393 0 l 318 0 l 82 539 l 10 539 l 10 618 l 294 618 l 294 539 l 188 539 l 360 132 l 368 132 l 522 539 l 424 539 l 424 618 l 694 618 l 694 539 z "},"w":{"ha":1064,"x_min":13,"x_max":1050,"o":"m 1050 539 l 979 539 l 797 0 l 722 0 l 533 472 l 526 472 l 342 0 l 269 0 l 81 539 l 13 539 l 13 618 l 304 618 l 304 539 l 186 539 l 315 149 l 322 149 l 506 618 l 571 618 l 764 149 l 771 149 l 885 539 l 772 539 l 772 618 l 1050 618 l 1050 539 z "},"x":{"ha":714,"x_min":26,"x_max":692,"o":"m 692 0 l 419 0 l 419 79 l 500 79 l 356 257 l 210 79 l 283 79 l 283 0 l 26 0 l 26 79 l 111 79 l 306 308 l 110 539 l 26 539 l 26 618 l 308 618 l 308 539 l 225 539 l 364 364 l 507 539 l 433 539 l 433 618 l 681 618 l 681 539 l 608 539 l 415 314 l 614 79 l 692 79 l 692 0 z "},"y":{"ha":710,"x_min":11,"x_max":697,"o":"m 697 539 l 624 539 l 406 0 l 322 -217 l 428 -217 l 428 -296 l 114 -296 l 114 -217 l 229 -217 l 310 1 l 85 539 l 11 539 l 11 618 l 297 618 l 297 539 l 189 539 l 363 124 l 371 124 l 525 539 l 425 539 l 425 618 l 697 618 l 697 539 z "},"z":{"ha":644,"x_min":50,"x_max":607,"o":"m 574 0 l 54 0 l 50 60 l 439 539 l 147 539 l 129 415 l 51 425 l 68 618 l 565 618 l 569 560 l 178 79 l 496 79 l 528 204 l 607 192 l 574 0 z "},"Á":{"ha":900,"x_min":1,"x_max":910,"o":"m 669 1035 l 396 976 l 381 1028 l 646 1129 l 669 1035 m 910 0 l 589 0 l 589 89 l 710 89 l 644 263 l 258 263 l 189 89 l 319 89 l 319 0 l 1 0 l 1 89 l 86 89 l 382 814 l 238 814 l 238 903 l 494 903 l 818 89 l 910 89 l 910 0 m 615 342 l 460 756 l 451 756 l 289 342 l 615 342 z "},"Â":{"ha":900,"x_min":1,"x_max":910,"o":"m 639 1024 l 613 975 l 446 1061 l 285 974 l 258 1019 l 435 1149 l 464 1149 l 639 1024 m 910 0 l 589 0 l 589 89 l 710 89 l 644 263 l 258 263 l 189 89 l 319 89 l 319 0 l 1 0 l 1 89 l 86 89 l 382 814 l 238 814 l 238 903 l 494 903 l 818 89 l 910 89 l 910 0 m 615 342 l 460 756 l 451 756 l 289 342 l 615 342 z "},"Ä":{"ha":900,"x_min":1,"x_max":910,"o":"m 274 997 l 274 1115 l 386 1115 l 386 997 l 274 997 m 513 997 l 513 1115 l 624 1115 l 624 997 l 513 997 m 910 0 l 589 0 l 589 89 l 710 89 l 644 263 l 258 263 l 189 89 l 319 89 l 319 0 l 1 0 l 1 89 l 86 89 l 382 814 l 238 814 l 238 903 l 494 903 l 818 89 l 910 89 l 910 0 m 615 342 l 460 756 l 451 756 l 289 342 l 615 342 z "},"Å":{"ha":900,"x_min":1,"x_max":910,"o":"m 585 1089 q 551 995 585 1032 q 447 958 517 958 q 311 1086 311 958 q 347 1178 311 1143 q 449 1214 383 1214 q 552 1178 519 1214 q 585 1089 585 1143 m 517 1089 q 501 1138 517 1117 q 447 1158 486 1158 q 379 1086 379 1158 q 447 1014 379 1014 q 517 1089 517 1014 m 910 0 l 589 0 l 589 89 l 710 89 l 644 263 l 258 263 l 189 89 l 319 89 l 319 0 l 1 0 l 1 89 l 86 89 l 382 814 l 238 814 l 238 903 l 494 903 l 818 89 l 910 89 l 910 0 m 615 342 l 460 756 l 451 756 l 289 342 l 615 342 z "},"À":{"ha":900,"x_min":1,"x_max":910,"o":"m 517 1028 l 503 976 l 228 1035 l 251 1129 l 517 1028 m 910 0 l 589 0 l 589 89 l 710 89 l 644 263 l 258 263 l 189 89 l 319 89 l 319 0 l 1 0 l 1 89 l 86 89 l 382 814 l 238 814 l 238 903 l 494 903 l 818 89 l 910 89 l 910 0 m 615 342 l 460 756 l 451 756 l 289 342 l 615 342 z "},"Ã":{"ha":900,"x_min":1,"x_max":910,"o":"m 631 1108 q 596 1019 619 1053 q 522 985 572 985 q 431 1009 469 985 q 351 1033 392 1033 q 312 1023 332 1033 q 282 979 292 1013 l 236 997 q 269 1072 242 1033 q 350 1111 297 1111 q 431 1087 396 1111 q 515 1063 465 1063 q 551 1072 533 1063 q 581 1121 569 1082 l 631 1108 m 910 0 l 589 0 l 589 89 l 710 89 l 644 263 l 258 263 l 189 89 l 319 89 l 319 0 l 1 0 l 1 89 l 86 89 l 382 814 l 238 814 l 238 903 l 494 903 l 818 89 l 910 89 l 910 0 m 615 342 l 460 756 l 451 756 l 289 342 l 615 342 z "},"Ă":{"ha":900,"x_min":1,"x_max":910,"o":"m 625 1133 q 456 971 625 971 q 286 1133 286 971 l 367 1133 q 390 1058 367 1078 q 456 1038 413 1038 q 544 1133 544 1038 l 625 1133 m 910 0 l 589 0 l 589 89 l 710 89 l 644 263 l 258 263 l 189 89 l 319 89 l 319 0 l 1 0 l 1 89 l 86 89 l 382 814 l 238 814 l 238 903 l 494 903 l 818 89 l 910 89 l 910 0 m 615 342 l 460 756 l 451 756 l 289 342 l 615 342 z "},"Ā":{"ha":900,"x_min":1,"x_max":910,"o":"m 640 1018 l 253 1018 l 253 1097 l 640 1097 l 640 1018 m 910 0 l 589 0 l 589 89 l 710 89 l 644 263 l 258 263 l 189 89 l 319 89 l 319 0 l 1 0 l 1 89 l 86 89 l 382 814 l 238 814 l 238 903 l 494 903 l 818 89 l 910 89 l 910 0 m 615 342 l 460 756 l 451 756 l 289 342 l 615 342 z "},"Ą":{"ha":900,"x_min":1,"x_max":910,"o":"m 899 -262 q 789 -290 847 -290 q 685 -257 725 -290 q 644 -164 644 -224 q 673 -69 644 -111 q 744 0 701 -26 l 589 0 l 589 89 l 710 89 l 644 263 l 258 263 l 189 89 l 319 89 l 319 0 l 1 0 l 1 89 l 86 89 l 382 814 l 238 814 l 238 903 l 494 903 l 818 89 l 910 89 l 910 0 l 819 0 q 750 -67 769 -31 q 731 -137 731 -103 q 811 -215 731 -215 q 886 -194 851 -215 l 899 -262 m 615 342 l 460 756 l 451 756 l 289 342 l 615 342 z "},"Æ":{"ha":1276,"x_min":-10,"x_max":1214,"o":"m 1188 0 l 517 0 l 517 89 l 629 89 l 629 263 l 269 263 l 183 89 l 308 89 l 308 0 l -10 0 l -10 89 l 82 89 l 440 814 l 306 814 l 306 903 l 1175 903 l 1201 649 l 1113 638 l 1085 814 l 732 814 l 732 503 l 1157 503 l 1157 414 l 732 414 l 732 89 l 1097 89 l 1125 265 l 1214 256 l 1188 0 m 629 342 l 629 814 l 538 814 l 307 342 l 629 342 z "},"Ǽ":{"ha":1276,"x_min":-10,"x_max":1214,"o":"m 1117 1035 l 843 976 l 828 1028 l 1093 1129 l 1117 1035 m 1188 0 l 517 0 l 517 89 l 629 89 l 629 263 l 269 263 l 183 89 l 308 89 l 308 0 l -10 0 l -10 89 l 82 89 l 440 814 l 306 814 l 306 903 l 1175 903 l 1201 649 l 1113 638 l 1085 814 l 732 814 l 732 503 l 1157 503 l 1157 414 l 732 414 l 732 89 l 1097 89 l 1125 265 l 1214 256 l 1188 0 m 629 342 l 629 814 l 538 814 l 307 342 l 629 342 z "},"Ǣ":{"ha":1276,"x_min":-10,"x_max":1214,"o":"m 1108 1018 l 721 1018 l 721 1097 l 1108 1097 l 1108 1018 m 1188 0 l 517 0 l 517 89 l 629 89 l 629 263 l 269 263 l 183 89 l 308 89 l 308 0 l -10 0 l -10 89 l 82 89 l 440 814 l 306 814 l 306 903 l 1175 903 l 1201 649 l 1113 638 l 1085 814 l 732 814 l 732 503 l 1157 503 l 1157 414 l 732 414 l 732 89 l 1097 89 l 1125 265 l 1214 256 l 1188 0 m 629 342 l 629 814 l 538 814 l 307 342 l 629 342 z "},"Ç":{"ha":897,"x_min":54,"x_max":828,"o":"m 643 -174 q 598 -263 643 -236 q 493 -290 553 -290 q 360 -249 410 -290 l 383 -192 q 488 -224 425 -224 q 558 -167 558 -224 q 535 -122 558 -132 q 478 -111 511 -111 l 436 -111 l 436 -10 q 159 137 264 10 q 54 446 54 264 q 107 678 54 571 q 256 851 160 786 q 483 917 353 917 q 672 888 596 917 q 803 811 747 858 l 828 638 l 740 629 l 715 761 q 620 808 672 790 q 492 825 568 825 q 253 719 344 825 q 161 450 161 614 q 255 180 161 282 q 510 78 349 78 q 708 118 628 78 l 735 251 l 821 243 l 797 69 q 508 -14 694 -10 l 508 -65 l 519 -65 q 613 -97 583 -65 q 643 -174 643 -128 z "},"Ć":{"ha":897,"x_min":56,"x_max":829,"o":"m 707 1035 l 433 976 l 418 1028 l 683 1129 l 707 1035 m 799 69 q 497 -14 690 -14 q 178 117 300 -14 q 56 446 56 249 q 108 678 56 571 q 257 851 161 786 q 485 917 353 917 q 673 888 597 917 q 804 811 749 858 l 829 638 l 742 629 l 717 761 q 621 808 672 790 q 493 825 569 825 q 253 719 344 825 q 163 450 163 614 q 256 180 163 282 q 511 78 350 78 q 710 118 629 78 l 736 251 l 822 243 l 799 69 z "},"Č":{"ha":897,"x_min":56,"x_max":829,"o":"m 686 1100 l 511 974 l 481 974 l 306 1097 l 333 1144 l 500 1060 l 660 1149 l 686 1100 m 799 69 q 497 -14 690 -14 q 178 117 300 -14 q 56 446 56 249 q 108 678 56 571 q 257 851 161 786 q 485 917 353 917 q 673 888 597 917 q 804 811 749 858 l 829 638 l 742 629 l 717 761 q 621 808 672 790 q 493 825 569 825 q 253 719 344 825 q 163 450 163 614 q 256 180 163 282 q 511 78 350 78 q 710 118 629 78 l 736 251 l 822 243 l 799 69 z "},"Ĉ":{"ha":897,"x_min":56,"x_max":829,"o":"m 690 1024 l 664 975 l 497 1061 l 336 974 l 310 1019 l 486 1149 l 515 1149 l 690 1024 m 799 69 q 497 -14 690 -14 q 178 117 300 -14 q 56 446 56 249 q 108 678 56 571 q 257 851 161 786 q 485 917 353 917 q 673 888 597 917 q 804 811 749 858 l 829 638 l 742 629 l 717 761 q 621 808 672 790 q 493 825 569 825 q 253 719 344 825 q 163 450 163 614 q 256 180 163 282 q 511 78 350 78 q 710 118 629 78 l 736 251 l 822 243 l 799 69 z "},"Ċ":{"ha":897,"x_min":56,"x_max":829,"o":"m 433 997 l 433 1115 l 546 1115 l 546 997 l 433 997 m 799 69 q 497 -14 690 -14 q 178 117 300 -14 q 56 446 56 249 q 108 678 56 571 q 257 851 161 786 q 485 917 353 917 q 673 888 597 917 q 804 811 749 858 l 829 638 l 742 629 l 717 761 q 621 808 672 790 q 493 825 569 825 q 253 719 344 825 q 163 450 163 614 q 256 180 163 282 q 511 78 350 78 q 710 118 629 78 l 736 251 l 822 243 l 799 69 z "},"Ď":{"ha":979,"x_min":58,"x_max":924,"o":"m 613 1100 l 438 974 l 407 974 l 232 1097 l 260 1144 l 426 1060 l 586 1149 l 613 1100 m 924 453 q 802 127 924 254 q 467 0 681 0 l 58 0 l 58 88 l 172 88 l 172 815 l 58 815 l 58 903 l 463 903 q 803 776 683 903 q 924 453 924 649 m 815 451 q 724 715 815 615 q 461 815 633 815 l 274 815 l 274 88 l 461 88 q 724 185 633 88 q 815 451 815 283 z "},"Đ":{"ha":981,"x_min":58,"x_max":924,"o":"m 924 453 q 802 127 924 254 q 467 0 681 0 l 58 0 l 58 88 l 172 88 l 172 428 l 64 428 l 64 514 l 172 514 l 172 815 l 58 815 l 58 903 l 463 903 q 803 776 683 903 q 924 453 924 649 m 815 451 q 724 715 815 615 q 461 815 633 815 l 274 815 l 274 514 l 461 514 l 461 428 l 274 428 l 274 88 l 461 88 q 724 185 633 88 q 815 451 815 283 z "},"É":{"ha":818,"x_min":58,"x_max":757,"o":"m 646 1035 l 372 976 l 357 1028 l 622 1129 l 646 1035 m 731 0 l 58 0 l 58 89 l 172 89 l 172 814 l 58 814 l 58 903 l 718 903 l 746 647 l 657 638 l 629 814 l 274 814 l 274 503 l 700 503 l 700 414 l 274 414 l 274 89 l 642 89 l 669 265 l 757 256 l 731 0 z "},"Ê":{"ha":818,"x_min":58,"x_max":757,"o":"m 650 1024 l 624 975 l 457 1061 l 296 974 l 269 1019 l 446 1149 l 475 1149 l 650 1024 m 731 0 l 58 0 l 58 89 l 172 89 l 172 814 l 58 814 l 58 903 l 718 903 l 746 647 l 657 638 l 629 814 l 274 814 l 274 503 l 700 503 l 700 414 l 274 414 l 274 89 l 642 89 l 669 265 l 757 256 l 731 0 z "},"Ë":{"ha":818,"x_min":58,"x_max":757,"o":"m 272 997 l 272 1115 l 385 1115 l 385 997 l 272 997 m 511 997 l 511 1115 l 622 1115 l 622 997 l 511 997 m 731 0 l 58 0 l 58 89 l 172 89 l 172 814 l 58 814 l 58 903 l 718 903 l 746 647 l 657 638 l 629 814 l 274 814 l 274 503 l 700 503 l 700 414 l 274 414 l 274 89 l 642 89 l 669 265 l 757 256 l 731 0 z "},"È":{"ha":818,"x_min":58,"x_max":757,"o":"m 551 1028 l 538 976 l 263 1035 l 286 1129 l 551 1028 m 731 0 l 58 0 l 58 89 l 172 89 l 172 814 l 58 814 l 58 903 l 718 903 l 746 647 l 657 638 l 629 814 l 274 814 l 274 503 l 700 503 l 700 414 l 274 414 l 274 89 l 642 89 l 669 265 l 757 256 l 731 0 z "},"Ĕ":{"ha":818,"x_min":58,"x_max":757,"o":"m 624 1133 q 454 971 624 971 q 285 1133 285 971 l 365 1133 q 388 1058 365 1078 q 454 1038 411 1038 q 543 1133 543 1038 l 624 1133 m 731 0 l 58 0 l 58 89 l 172 89 l 172 814 l 58 814 l 58 903 l 718 903 l 746 647 l 657 638 l 629 814 l 274 814 l 274 503 l 700 503 l 700 414 l 274 414 l 274 89 l 642 89 l 669 265 l 757 256 l 731 0 z "},"Ě":{"ha":818,"x_min":58,"x_max":757,"o":"m 632 1100 l 457 974 l 426 974 l 251 1097 l 279 1144 l 446 1060 l 606 1149 l 632 1100 m 731 0 l 58 0 l 58 89 l 172 89 l 172 814 l 58 814 l 58 903 l 718 903 l 746 647 l 657 638 l 629 814 l 274 814 l 274 503 l 700 503 l 700 414 l 274 414 l 274 89 l 642 89 l 669 265 l 757 256 l 731 0 z "},"Ė":{"ha":818,"x_min":58,"x_max":757,"o":"m 390 997 l 390 1115 l 503 1115 l 503 997 l 390 997 m 731 0 l 58 0 l 58 89 l 172 89 l 172 814 l 58 814 l 58 903 l 718 903 l 746 647 l 657 638 l 629 814 l 274 814 l 274 503 l 700 503 l 700 414 l 274 414 l 274 89 l 642 89 l 669 265 l 757 256 l 731 0 z "},"Ē":{"ha":818,"x_min":58,"x_max":757,"o":"m 642 1018 l 254 1018 l 254 1097 l 642 1097 l 642 1018 m 731 0 l 58 0 l 58 89 l 172 89 l 172 814 l 58 814 l 58 903 l 718 903 l 746 647 l 657 638 l 629 814 l 274 814 l 274 503 l 700 503 l 700 414 l 274 414 l 274 89 l 642 89 l 669 265 l 757 256 l 731 0 z "},"Ę":{"ha":817,"x_min":58,"x_max":757,"o":"m 731 0 l 676 0 q 607 -67 626 -31 q 588 -137 588 -103 q 668 -215 588 -215 q 743 -194 708 -215 l 756 -262 q 646 -290 704 -290 q 541 -257 581 -290 q 501 -164 501 -224 q 530 -69 501 -111 q 601 0 558 -26 l 58 0 l 58 89 l 172 89 l 172 814 l 58 814 l 58 903 l 718 903 l 746 647 l 657 638 l 629 814 l 274 814 l 274 503 l 700 503 l 700 414 l 274 414 l 274 89 l 642 89 l 669 265 l 757 256 l 731 0 z "},"Ẽ":{"ha":818,"x_min":58,"x_max":757,"o":"m 651 1108 q 617 1019 642 1053 q 543 985 593 985 q 451 1009 490 985 q 372 1033 413 1033 q 333 1023 353 1033 q 303 979 314 1013 l 257 997 q 290 1072 263 1033 q 371 1111 318 1111 q 451 1087 417 1111 q 536 1063 486 1063 q 573 1072 556 1063 q 601 1121 590 1082 l 651 1108 m 731 0 l 58 0 l 58 89 l 172 89 l 172 814 l 58 814 l 58 903 l 718 903 l 746 647 l 657 638 l 629 814 l 274 814 l 274 503 l 700 503 l 700 414 l 274 414 l 274 89 l 642 89 l 669 265 l 757 256 l 731 0 z "},"Ğ":{"ha":960,"x_min":56,"x_max":922,"o":"m 665 1133 q 496 971 665 971 q 326 1133 326 971 l 407 1133 q 430 1058 407 1078 q 496 1038 453 1038 q 585 1133 585 1038 l 665 1133 m 922 375 l 851 375 l 851 0 l 774 0 l 761 125 q 647 26 721 65 q 472 -14 572 -14 q 171 119 286 -14 q 56 447 56 253 q 112 684 56 578 q 267 853 168 790 q 496 917 367 917 q 685 887 604 917 q 818 811 767 857 l 843 642 l 757 632 l 729 760 q 638 805 692 785 q 501 825 585 825 q 257 721 350 825 q 164 451 164 617 q 253 181 164 283 q 490 78 342 78 q 682 145 614 78 q 750 294 750 213 l 750 375 l 535 375 l 535 465 l 922 465 l 922 375 z "},"Ģ":{"ha":960,"x_min":56,"x_max":922,"o":"m 922 375 l 851 375 l 851 0 l 774 0 l 761 125 q 647 26 721 65 q 472 -14 572 -14 q 171 119 286 -14 q 56 447 56 253 q 112 684 56 578 q 267 853 168 790 q 496 917 367 917 q 685 887 604 917 q 818 811 767 857 l 843 642 l 757 632 l 729 760 q 638 805 692 785 q 501 825 585 825 q 257 721 350 825 q 164 451 164 617 q 253 181 164 283 q 490 78 342 78 q 682 145 614 78 q 750 294 750 213 l 750 375 l 535 375 l 535 465 l 922 465 l 922 375 m 533 -89 l 508 -303 l 429 -303 l 440 -89 l 533 -89 z "},"Ĝ":{"ha":960,"x_min":56,"x_max":922,"o":"m 682 1024 l 656 975 l 489 1061 l 328 974 l 301 1019 l 478 1149 l 507 1149 l 682 1024 m 922 375 l 851 375 l 851 0 l 774 0 l 761 125 q 647 26 721 65 q 472 -14 572 -14 q 171 119 286 -14 q 56 447 56 253 q 112 684 56 578 q 267 853 168 790 q 496 917 367 917 q 685 887 604 917 q 818 811 767 857 l 843 642 l 757 632 l 729 760 q 638 805 692 785 q 501 825 585 825 q 257 721 350 825 q 164 451 164 617 q 253 181 164 283 q 490 78 342 78 q 682 145 614 78 q 750 294 750 213 l 750 375 l 535 375 l 535 465 l 922 465 l 922 375 z "},"Ġ":{"ha":960,"x_min":56,"x_max":922,"o":"m 438 997 l 438 1115 l 550 1115 l 550 997 l 438 997 m 922 375 l 851 375 l 851 0 l 774 0 l 761 125 q 647 26 721 65 q 472 -14 572 -14 q 171 119 286 -14 q 56 447 56 253 q 112 684 56 578 q 267 853 168 790 q 496 917 367 917 q 685 887 604 917 q 818 811 767 857 l 843 642 l 757 632 l 729 760 q 638 805 692 785 q 501 825 585 825 q 257 721 350 825 q 164 451 164 617 q 253 181 164 283 q 490 78 342 78 q 682 145 614 78 q 750 294 750 213 l 750 375 l 535 375 l 535 465 l 922 465 l 922 375 z "},"Ħ":{"ha":1050,"x_min":58,"x_max":990,"o":"m 68 642 l 68 715 l 172 715 l 172 814 l 58 814 l 58 903 l 388 903 l 388 814 l 274 814 l 274 715 l 775 715 l 775 814 l 661 814 l 661 903 l 990 903 l 990 814 l 876 814 l 876 715 l 979 715 l 979 642 l 876 642 l 876 89 l 990 89 l 990 0 l 661 0 l 661 89 l 775 89 l 775 417 l 274 417 l 274 89 l 388 89 l 388 0 l 58 0 l 58 89 l 172 89 l 172 642 l 68 642 m 274 503 l 775 503 l 775 642 l 274 642 l 274 503 z "},"Ĥ":{"ha":1049,"x_min":58,"x_max":990,"o":"m 719 1024 l 693 975 l 526 1061 l 365 974 l 339 1019 l 515 1149 l 544 1149 l 719 1024 m 990 0 l 661 0 l 661 89 l 775 89 l 775 417 l 274 417 l 274 89 l 388 89 l 388 0 l 58 0 l 58 89 l 172 89 l 172 814 l 58 814 l 58 903 l 388 903 l 388 814 l 274 814 l 274 503 l 775 503 l 775 814 l 661 814 l 661 903 l 990 903 l 990 814 l 876 814 l 876 89 l 990 89 l 990 0 z "},"Í":{"ha":447,"x_min":58,"x_max":393,"o":"m 393 1035 l 119 976 l 104 1028 l 369 1129 l 393 1035 m 388 0 l 58 0 l 58 89 l 172 89 l 172 814 l 58 814 l 58 903 l 388 903 l 388 814 l 275 814 l 275 89 l 388 89 l 388 0 z "},"Î":{"ha":447,"x_min":35,"x_max":415,"o":"m 415 1024 l 389 975 l 222 1061 l 61 974 l 35 1019 l 211 1149 l 240 1149 l 415 1024 m 388 0 l 58 0 l 58 89 l 172 89 l 172 814 l 58 814 l 58 903 l 388 903 l 388 814 l 275 814 l 275 89 l 388 89 l 388 0 z "},"Ï":{"ha":447,"x_min":53,"x_max":403,"o":"m 53 997 l 53 1115 l 165 1115 l 165 997 l 53 997 m 292 997 l 292 1115 l 403 1115 l 403 997 l 292 997 m 388 0 l 58 0 l 58 89 l 172 89 l 172 814 l 58 814 l 58 903 l 388 903 l 388 814 l 275 814 l 275 89 l 388 89 l 388 0 z "},"Ì":{"ha":447,"x_min":53,"x_max":388,"o":"m 342 1028 l 328 976 l 53 1035 l 76 1129 l 342 1028 m 388 0 l 58 0 l 58 89 l 172 89 l 172 814 l 58 814 l 58 903 l 388 903 l 388 814 l 275 814 l 275 89 l 388 89 l 388 0 z "},"Ĭ":{"ha":447,"x_min":54,"x_max":393,"o":"m 393 1133 q 224 971 393 971 q 54 1133 54 971 l 135 1133 q 158 1058 135 1078 q 224 1038 181 1038 q 313 1133 313 1038 l 393 1133 m 388 0 l 58 0 l 58 89 l 172 89 l 172 814 l 58 814 l 58 903 l 388 903 l 388 814 l 275 814 l 275 89 l 388 89 l 388 0 z "},"İ":{"ha":447,"x_min":58,"x_max":388,"o":"m 165 997 l 165 1115 l 278 1115 l 278 997 l 165 997 m 388 0 l 58 0 l 58 89 l 172 89 l 172 814 l 58 814 l 58 903 l 388 903 l 388 814 l 275 814 l 275 89 l 388 89 l 388 0 z "},"Ī":{"ha":447,"x_min":33,"x_max":421,"o":"m 421 1018 l 33 1018 l 33 1097 l 421 1097 l 421 1018 m 388 0 l 58 0 l 58 89 l 172 89 l 172 814 l 58 814 l 58 903 l 388 903 l 388 814 l 275 814 l 275 89 l 388 89 l 388 0 z "},"Į":{"ha":447,"x_min":58,"x_max":388,"o":"m 344 -262 q 235 -290 293 -290 q 130 -257 169 -290 q 90 -164 90 -224 q 119 -69 90 -111 q 190 0 147 -26 l 58 0 l 58 89 l 172 89 l 172 814 l 58 814 l 58 903 l 388 903 l 388 814 l 275 814 l 275 89 l 388 89 l 388 0 l 265 0 q 196 -67 215 -31 q 176 -137 176 -103 q 257 -215 176 -215 q 332 -194 297 -215 l 344 -262 z "},"Ĩ":{"ha":447,"x_min":33,"x_max":428,"o":"m 428 1108 q 393 1019 417 1053 q 319 985 369 985 q 228 1009 267 985 q 149 1033 189 1033 q 109 1023 129 1033 q 79 979 89 1013 l 33 997 q 67 1072 39 1033 q 147 1111 94 1111 q 228 1087 193 1111 q 313 1063 263 1063 q 349 1072 331 1063 q 378 1121 367 1082 l 428 1108 m 388 0 l 58 0 l 58 89 l 172 89 l 172 814 l 58 814 l 58 903 l 388 903 l 388 814 l 275 814 l 275 89 l 388 89 l 388 0 z "},"Ĵ":{"ha":633,"x_min":24,"x_max":593,"o":"m 593 1024 l 567 975 l 400 1061 l 239 974 l 213 1019 l 389 1149 l 418 1149 l 593 1024 m 581 814 l 481 814 l 481 231 q 419 47 481 108 q 249 -14 358 -14 q 106 24 160 -14 q 24 124 53 63 l 97 179 q 160 102 126 122 q 240 82 194 82 q 347 122 314 82 q 379 231 379 163 l 379 814 l 200 814 l 200 903 l 581 903 l 581 814 z "},"Ķ":{"ha":890,"x_min":58,"x_max":882,"o":"m 882 0 l 557 0 l 557 89 l 664 89 l 425 415 l 275 415 l 275 89 l 379 89 l 379 0 l 58 0 l 58 89 l 172 89 l 172 814 l 58 814 l 58 903 l 381 903 l 381 814 l 275 814 l 275 503 l 422 503 l 654 815 l 547 815 l 547 904 l 865 904 l 865 815 l 763 815 l 503 469 l 781 89 l 882 89 l 882 0 m 522 -89 l 497 -303 l 418 -303 l 429 -89 l 522 -89 z "},"Ĺ":{"ha":757,"x_min":58,"x_max":738,"o":"m 414 1035 l 140 976 l 125 1028 l 390 1129 l 414 1035 m 710 0 l 58 0 l 58 89 l 172 89 l 172 814 l 58 814 l 58 903 l 425 903 l 425 814 l 274 814 l 274 89 l 619 89 l 647 296 l 738 289 l 710 0 z "},"Ľ":{"ha":757,"x_min":58,"x_max":738,"o":"m 603 947 l 572 636 l 493 636 l 511 947 l 603 947 m 710 0 l 58 0 l 58 89 l 172 89 l 172 814 l 58 814 l 58 903 l 425 903 l 425 814 l 274 814 l 274 89 l 619 89 l 647 296 l 738 289 l 710 0 z "},"Ļ":{"ha":757,"x_min":58,"x_max":738,"o":"m 710 0 l 58 0 l 58 89 l 172 89 l 172 814 l 58 814 l 58 903 l 425 903 l 425 814 l 274 814 l 274 89 l 619 89 l 647 296 l 738 289 l 710 0 m 475 -89 l 450 -303 l 371 -303 l 382 -89 l 475 -89 z "},"Ŀ":{"ha":757,"x_min":58,"x_max":738,"o":"m 710 0 l 58 0 l 58 89 l 172 89 l 172 814 l 58 814 l 58 903 l 425 903 l 425 814 l 274 814 l 274 89 l 619 89 l 647 296 l 738 289 l 710 0 m 463 410 l 463 536 l 569 536 l 569 410 l 463 410 z "},"Ł":{"ha":758,"x_min":60,"x_max":739,"o":"m 711 0 l 60 0 l 60 89 l 174 89 l 174 369 l 63 326 l 63 408 l 174 451 l 174 814 l 60 814 l 60 903 l 426 903 l 426 814 l 275 814 l 275 492 l 492 578 l 492 496 l 275 410 l 275 89 l 621 89 l 649 296 l 739 289 l 711 0 z "},"Ñ":{"ha":1025,"x_min":53,"x_max":976,"o":"m 703 1108 q 668 1019 692 1053 q 594 985 644 985 q 503 1009 542 985 q 424 1033 464 1033 q 384 1023 404 1033 q 354 979 364 1013 l 308 997 q 342 1072 314 1033 q 422 1111 369 1111 q 503 1087 468 1111 q 588 1063 538 1063 q 624 1072 606 1063 q 653 1121 642 1082 l 703 1108 m 976 814 l 864 814 l 864 0 l 799 0 l 275 711 l 269 711 l 269 89 l 413 89 l 413 0 l 68 0 l 68 89 l 172 89 l 172 814 l 53 814 l 53 903 l 247 903 l 761 207 l 767 207 l 767 814 l 631 814 l 631 903 l 976 903 l 976 814 z "},"Ń":{"ha":1025,"x_min":53,"x_max":976,"o":"m 714 1035 l 440 976 l 425 1028 l 690 1129 l 714 1035 m 976 814 l 864 814 l 864 0 l 799 0 l 275 711 l 269 711 l 269 89 l 413 89 l 413 0 l 68 0 l 68 89 l 172 89 l 172 814 l 53 814 l 53 903 l 247 903 l 761 207 l 767 207 l 767 814 l 631 814 l 631 903 l 976 903 l 976 814 z "},"Ň":{"ha":1025,"x_min":53,"x_max":976,"o":"m 697 1100 l 522 974 l 492 974 l 317 1097 l 344 1144 l 511 1060 l 671 1149 l 697 1100 m 976 814 l 864 814 l 864 0 l 799 0 l 275 711 l 269 711 l 269 89 l 413 89 l 413 0 l 68 0 l 68 89 l 172 89 l 172 814 l 53 814 l 53 903 l 247 903 l 761 207 l 767 207 l 767 814 l 631 814 l 631 903 l 976 903 l 976 814 z "},"Ņ":{"ha":1025,"x_min":53,"x_max":976,"o":"m 976 814 l 864 814 l 864 0 l 799 0 l 275 711 l 269 711 l 269 89 l 413 89 l 413 0 l 68 0 l 68 89 l 172 89 l 172 814 l 53 814 l 53 903 l 247 903 l 761 207 l 767 207 l 767 814 l 631 814 l 631 903 l 976 903 l 976 814 m 578 -89 l 553 -303 l 474 -303 l 485 -89 l 578 -89 z "},"Ŋ":{"ha":1025,"x_min":53,"x_max":976,"o":"m 976 814 l 864 814 l 864 -25 q 802 -208 864 -147 q 631 -269 740 -269 q 488 -232 542 -269 q 406 -133 435 -194 l 479 -78 q 542 -154 508 -133 q 622 -175 576 -175 q 729 -135 697 -175 q 761 -25 761 -94 l 761 50 l 275 711 l 269 711 l 269 89 l 413 89 l 413 0 l 68 0 l 68 89 l 172 89 l 172 814 l 53 814 l 53 903 l 247 903 l 761 207 l 767 207 l 767 814 l 631 814 l 631 903 l 976 903 l 976 814 z "},"Ṇ":{"ha":1025,"x_min":53,"x_max":976,"o":"m 976 814 l 864 814 l 864 0 l 799 0 l 275 711 l 269 711 l 269 89 l 413 89 l 413 0 l 68 0 l 68 89 l 172 89 l 172 814 l 53 814 l 53 903 l 247 903 l 761 207 l 767 207 l 767 814 l 631 814 l 631 903 l 976 903 l 976 814 m 465 -242 l 465 -115 l 572 -115 l 572 -242 l 465 -242 z "},"Ò":{"ha":1011,"x_min":54,"x_max":958,"o":"m 601 1028 l 588 976 l 313 1035 l 336 1129 l 601 1028 m 958 451 q 901 218 958 324 q 742 49 844 113 q 503 -14 639 -14 q 176 123 299 -14 q 54 451 54 260 q 180 781 54 646 q 506 917 306 917 q 833 781 708 917 q 958 451 958 644 m 849 450 q 756 719 849 613 q 506 825 663 825 q 254 717 344 825 q 164 453 164 608 q 254 189 164 300 q 508 78 344 78 q 758 185 668 78 q 849 450 849 293 z "},"Ö":{"ha":1011,"x_min":54,"x_max":958,"o":"m 335 997 l 335 1115 l 447 1115 l 447 997 l 335 997 m 574 997 l 574 1115 l 685 1115 l 685 997 l 574 997 m 958 451 q 901 218 958 324 q 742 49 844 113 q 503 -14 639 -14 q 176 123 299 -14 q 54 451 54 260 q 180 781 54 646 q 506 917 306 917 q 833 781 708 917 q 958 451 958 644 m 849 450 q 756 719 849 613 q 506 825 663 825 q 254 717 344 825 q 164 453 164 608 q 254 189 164 300 q 508 78 344 78 q 758 185 668 78 q 849 450 849 293 z "},"Õ":{"ha":1011,"x_min":54,"x_max":958,"o":"m 710 1108 q 676 1019 700 1053 q 601 985 651 985 q 510 1009 549 985 q 431 1033 471 1033 q 392 1023 411 1033 q 361 979 372 1013 l 315 997 q 349 1072 321 1033 q 429 1111 376 1111 q 510 1087 475 1111 q 594 1063 544 1063 q 631 1072 614 1063 q 660 1121 649 1082 l 710 1108 m 958 451 q 901 218 958 324 q 742 49 844 113 q 503 -14 639 -14 q 176 123 299 -14 q 54 451 54 260 q 180 781 54 646 q 506 917 306 917 q 833 781 708 917 q 958 451 958 644 m 849 450 q 756 719 849 613 q 506 825 663 825 q 254 717 344 825 q 164 453 164 608 q 254 189 164 300 q 508 78 344 78 q 758 185 668 78 q 849 450 849 293 z "},"Ŏ":{"ha":1011,"x_min":54,"x_max":958,"o":"m 686 1133 q 517 971 686 971 q 347 1133 347 971 l 428 1133 q 451 1058 428 1078 q 517 1038 474 1038 q 606 1133 606 1038 l 686 1133 m 958 451 q 901 218 958 324 q 742 49 844 113 q 503 -14 639 -14 q 176 123 299 -14 q 54 451 54 260 q 180 781 54 646 q 506 917 306 917 q 833 781 708 917 q 958 451 958 644 m 849 450 q 756 719 849 613 q 506 825 663 825 q 254 717 344 825 q 164 453 164 608 q 254 189 164 300 q 508 78 344 78 q 758 185 668 78 q 849 450 849 293 z "},"Ó":{"ha":1011,"x_min":54,"x_max":958,"o":"m 719 1035 l 446 976 l 431 1028 l 696 1129 l 719 1035 m 958 451 q 901 218 958 324 q 742 49 844 113 q 503 -14 639 -14 q 176 123 299 -14 q 54 451 54 260 q 180 781 54 646 q 506 917 306 917 q 833 781 708 917 q 958 451 958 644 m 849 450 q 756 719 849 613 q 506 825 663 825 q 254 717 344 825 q 164 453 164 608 q 254 189 164 300 q 508 78 344 78 q 758 185 668 78 q 849 450 849 293 z "},"Ô":{"ha":1011,"x_min":54,"x_max":958,"o":"m 700 1024 l 674 975 l 507 1061 l 346 974 l 319 1019 l 496 1149 l 525 1149 l 700 1024 m 958 451 q 901 218 958 324 q 742 49 844 113 q 503 -14 639 -14 q 176 123 299 -14 q 54 451 54 260 q 180 781 54 646 q 506 917 306 917 q 833 781 708 917 q 958 451 958 644 m 849 450 q 756 719 849 613 q 506 825 663 825 q 254 717 344 825 q 164 453 164 608 q 254 189 164 300 q 508 78 344 78 q 758 185 668 78 q 849 450 849 293 z "},"Ő":{"ha":1011,"x_min":54,"x_max":958,"o":"m 626 1154 l 408 976 l 372 1013 l 558 1225 l 626 1154 m 836 1035 l 561 976 l 547 1028 l 811 1129 l 836 1035 m 958 451 q 901 218 958 324 q 742 49 844 113 q 503 -14 639 -14 q 176 123 299 -14 q 54 451 54 260 q 180 781 54 646 q 506 917 306 917 q 833 781 708 917 q 958 451 958 644 m 849 450 q 756 719 849 613 q 506 825 663 825 q 254 717 344 825 q 164 453 164 608 q 254 189 164 300 q 508 78 344 78 q 758 185 668 78 q 849 450 849 293 z "},"Ō":{"ha":1011,"x_min":54,"x_max":958,"o":"m 713 1018 l 325 1018 l 325 1097 l 713 1097 l 713 1018 m 958 451 q 901 218 958 324 q 742 49 844 113 q 503 -14 639 -14 q 176 123 299 -14 q 54 451 54 260 q 180 781 54 646 q 506 917 306 917 q 833 781 708 917 q 958 451 958 644 m 849 450 q 756 719 849 613 q 506 825 663 825 q 254 717 344 825 q 164 453 164 608 q 254 189 164 300 q 508 78 344 78 q 758 185 668 78 q 849 450 849 293 z "},"Ø":{"ha":1021,"x_min":58,"x_max":964,"o":"m 963 451 q 906 218 963 324 q 746 49 849 113 q 507 -14 643 -14 q 229 78 344 -14 l 161 0 l 60 0 l 174 129 q 58 451 58 263 q 184 781 58 646 q 510 917 310 917 q 786 826 669 917 l 854 903 l 964 903 l 846 771 q 963 451 963 639 m 168 453 q 242 207 168 308 l 722 753 q 510 825 635 825 q 259 717 350 825 q 168 453 168 608 m 853 450 q 779 694 853 594 l 296 151 q 513 78 382 78 q 763 185 672 78 q 853 450 853 293 z "},"Ǿ":{"ha":1021,"x_min":58,"x_max":964,"o":"m 742 1035 l 468 976 l 453 1028 l 718 1129 l 742 1035 m 963 451 q 906 218 963 324 q 746 49 849 113 q 507 -14 643 -14 q 229 78 344 -14 l 161 0 l 60 0 l 174 129 q 58 451 58 263 q 184 781 58 646 q 510 917 310 917 q 786 826 669 917 l 854 903 l 964 903 l 846 771 q 963 451 963 639 m 168 453 q 242 207 168 308 l 722 753 q 510 825 635 825 q 259 717 350 825 q 168 453 168 608 m 853 450 q 779 694 853 594 l 296 151 q 513 78 382 78 q 763 185 672 78 q 853 450 853 293 z "},"Ŕ":{"ha":856,"x_min":58,"x_max":843,"o":"m 617 1035 l 343 976 l 328 1028 l 593 1129 l 617 1035 m 843 0 l 663 0 l 468 378 l 275 378 l 275 89 l 396 89 l 396 0 l 58 0 l 58 89 l 172 89 l 172 814 l 58 814 l 58 903 l 449 903 q 689 830 617 903 q 761 647 761 757 q 713 491 761 560 q 568 397 664 422 l 729 89 l 843 89 l 843 0 m 654 643 q 603 773 654 732 q 436 814 551 814 l 275 814 l 275 463 l 439 463 q 604 510 554 463 q 654 643 654 558 z "},"Ř":{"ha":856,"x_min":58,"x_max":843,"o":"m 606 1100 l 431 974 l 400 974 l 225 1097 l 253 1144 l 419 1060 l 579 1149 l 606 1100 m 843 0 l 663 0 l 468 378 l 275 378 l 275 89 l 396 89 l 396 0 l 58 0 l 58 89 l 172 89 l 172 814 l 58 814 l 58 903 l 449 903 q 689 830 617 903 q 761 647 761 757 q 713 491 761 560 q 568 397 664 422 l 729 89 l 843 89 l 843 0 m 654 643 q 603 773 654 732 q 436 814 551 814 l 275 814 l 275 463 l 439 463 q 604 510 554 463 q 654 643 654 558 z "},"Ŗ":{"ha":856,"x_min":58,"x_max":843,"o":"m 843 0 l 663 0 l 468 378 l 275 378 l 275 89 l 396 89 l 396 0 l 58 0 l 58 89 l 172 89 l 172 814 l 58 814 l 58 903 l 449 903 q 689 830 617 903 q 761 647 761 757 q 713 491 761 560 q 568 397 664 422 l 729 89 l 843 89 l 843 0 m 654 643 q 603 773 654 732 q 436 814 551 814 l 275 814 l 275 463 l 439 463 q 604 510 554 463 q 654 643 654 558 m 524 -89 l 499 -303 l 419 -303 l 431 -89 l 524 -89 z "},"Ś":{"ha":740,"x_min":68,"x_max":681,"o":"m 571 1035 l 297 976 l 282 1028 l 547 1129 l 571 1035 m 681 253 q 588 54 681 122 q 358 -14 496 -14 q 68 60 169 -14 l 88 238 l 171 229 l 165 115 q 257 83 211 92 q 353 75 303 75 q 506 113 442 75 q 571 243 571 151 q 500 377 571 346 q 346 428 429 408 q 219 463 282 442 q 115 531 157 485 q 74 667 74 578 q 159 856 74 794 q 361 917 244 917 q 513 896 436 917 q 632 842 589 875 l 640 663 l 557 654 l 543 789 q 456 819 500 811 q 371 826 411 826 q 234 788 286 826 q 182 678 182 750 q 244 564 182 593 q 383 517 307 535 q 513 481 444 503 q 631 408 582 460 q 681 253 681 356 z "},"Ş":{"ha":740,"x_min":68,"x_max":681,"o":"m 540 -174 q 495 -263 540 -236 q 390 -290 450 -290 q 257 -249 307 -290 l 281 -192 q 385 -224 322 -224 q 456 -167 456 -224 q 432 -122 456 -132 q 375 -111 408 -111 l 333 -111 l 333 -14 q 68 60 160 -7 l 88 238 l 171 229 l 165 115 q 257 83 211 92 q 353 75 303 75 q 506 113 442 75 q 571 243 571 151 q 500 377 571 346 q 346 428 429 408 q 219 463 282 442 q 115 531 157 485 q 74 667 74 578 q 159 856 74 794 q 361 917 244 917 q 513 896 436 917 q 632 842 589 875 l 640 663 l 557 654 l 543 789 q 456 819 500 811 q 371 826 411 826 q 234 788 286 826 q 182 678 182 750 q 244 564 182 593 q 383 517 307 535 q 513 481 444 503 q 631 408 582 460 q 681 253 681 356 q 603 67 681 133 q 406 -11 525 0 l 406 -65 l 417 -65 q 510 -97 481 -65 q 540 -174 540 -128 z "},"Š":{"ha":740,"x_min":68,"x_max":681,"o":"m 551 1100 l 376 974 l 346 974 l 171 1097 l 199 1144 l 365 1060 l 525 1149 l 551 1100 m 681 253 q 588 54 681 122 q 358 -14 496 -14 q 68 60 169 -14 l 88 238 l 171 229 l 165 115 q 257 83 211 92 q 353 75 303 75 q 506 113 442 75 q 571 243 571 151 q 500 377 571 346 q 346 428 429 408 q 219 463 282 442 q 115 531 157 485 q 74 667 74 578 q 159 856 74 794 q 361 917 244 917 q 513 896 436 917 q 632 842 589 875 l 640 663 l 557 654 l 543 789 q 456 819 500 811 q 371 826 411 826 q 234 788 286 826 q 182 678 182 750 q 244 564 182 593 q 383 517 307 535 q 513 481 444 503 q 631 408 582 460 q 681 253 681 356 z "},"Ŝ":{"ha":740,"x_min":68,"x_max":681,"o":"m 567 1024 l 540 975 l 374 1061 l 213 974 l 186 1019 l 363 1149 l 392 1149 l 567 1024 m 681 253 q 588 54 681 122 q 358 -14 496 -14 q 68 60 169 -14 l 88 238 l 171 229 l 165 115 q 257 83 211 92 q 353 75 303 75 q 506 113 442 75 q 571 243 571 151 q 500 377 571 346 q 346 428 429 408 q 219 463 282 442 q 115 531 157 485 q 74 667 74 578 q 159 856 74 794 q 361 917 244 917 q 513 896 436 917 q 632 842 589 875 l 640 663 l 557 654 l 543 789 q 456 819 500 811 q 371 826 411 826 q 234 788 286 826 q 182 678 182 750 q 244 564 182 593 q 383 517 307 535 q 513 481 444 503 q 631 408 582 460 q 681 253 681 356 z "},"Ș":{"ha":740,"x_min":68,"x_max":681,"o":"m 681 253 q 588 54 681 122 q 358 -14 496 -14 q 68 60 169 -14 l 88 238 l 171 229 l 165 115 q 257 83 211 92 q 353 75 303 75 q 506 113 442 75 q 571 243 571 151 q 500 377 571 346 q 346 428 429 408 q 219 463 282 442 q 115 531 157 485 q 74 667 74 578 q 159 856 74 794 q 361 917 244 917 q 513 896 436 917 q 632 842 589 875 l 640 663 l 557 654 l 543 789 q 456 819 500 811 q 371 826 411 826 q 234 788 286 826 q 182 678 182 750 q 244 564 182 593 q 383 517 307 535 q 513 481 444 503 q 631 408 582 460 q 681 253 681 356 m 442 -89 l 417 -303 l 338 -303 l 349 -89 l 442 -89 z "},"Ṣ":{"ha":740,"x_min":68,"x_max":681,"o":"m 681 253 q 588 54 681 122 q 358 -14 496 -14 q 68 60 169 -14 l 88 238 l 171 229 l 165 115 q 257 83 211 92 q 353 75 303 75 q 506 113 442 75 q 571 243 571 151 q 500 377 571 346 q 346 428 429 408 q 219 463 282 442 q 115 531 157 485 q 74 667 74 578 q 159 856 74 794 q 361 917 244 917 q 513 896 436 917 q 632 842 589 875 l 640 663 l 557 654 l 543 789 q 456 819 500 811 q 371 826 411 826 q 234 788 286 826 q 182 678 182 750 q 244 564 182 593 q 383 517 307 535 q 513 481 444 503 q 631 408 582 460 q 681 253 681 356 m 329 -242 l 329 -115 l 436 -115 l 436 -242 l 329 -242 z "},"Ŧ":{"ha":867,"x_min":31,"x_max":833,"o":"m 833 628 l 743 621 l 715 814 l 482 814 l 482 451 l 693 451 l 693 379 l 482 379 l 482 89 l 642 89 l 642 0 l 225 0 l 225 89 l 381 89 l 381 379 l 172 379 l 172 451 l 381 451 l 381 814 l 147 814 l 119 621 l 31 628 l 57 903 l 806 903 l 833 628 z "},"Ť":{"ha":863,"x_min":29,"x_max":832,"o":"m 619 1100 l 444 974 l 414 974 l 239 1097 l 267 1144 l 433 1060 l 593 1149 l 619 1100 m 832 628 l 742 621 l 714 814 l 481 814 l 481 89 l 640 89 l 640 0 l 224 0 l 224 89 l 379 89 l 379 814 l 146 814 l 118 621 l 29 628 l 56 903 l 804 903 l 832 628 z "},"Ţ":{"ha":863,"x_min":29,"x_max":832,"o":"m 832 628 l 742 621 l 714 814 l 481 814 l 481 89 l 640 89 l 640 0 l 224 0 l 224 89 l 379 89 l 379 814 l 146 814 l 118 621 l 29 628 l 56 903 l 804 903 l 832 628 m 481 -89 l 456 -303 l 376 -303 l 388 -89 l 481 -89 z "},"Ț":{"ha":863,"x_min":29,"x_max":832,"o":"m 832 628 l 742 621 l 714 814 l 481 814 l 481 89 l 640 89 l 640 0 l 224 0 l 224 89 l 379 89 l 379 814 l 146 814 l 118 621 l 29 628 l 56 903 l 804 903 l 832 628 m 481 -89 l 456 -303 l 376 -303 l 388 -89 l 481 -89 z "},"Ú":{"ha":996,"x_min":50,"x_max":944,"o":"m 708 1035 l 435 976 l 419 1028 l 685 1129 l 708 1035 m 944 814 l 857 814 l 857 371 q 824 187 857 275 q 713 42 792 99 q 496 -14 635 -14 q 219 98 294 -14 q 143 356 143 210 l 143 814 l 50 814 l 50 903 l 371 903 l 371 814 l 246 814 l 246 358 q 308 151 246 225 q 501 78 371 78 q 761 371 761 78 l 761 814 l 632 814 l 632 903 l 944 903 l 944 814 z "},"Û":{"ha":996,"x_min":50,"x_max":944,"o":"m 690 1024 l 664 975 l 497 1061 l 336 974 l 310 1019 l 486 1149 l 515 1149 l 690 1024 m 944 814 l 857 814 l 857 371 q 824 187 857 275 q 713 42 792 99 q 496 -14 635 -14 q 219 98 294 -14 q 143 356 143 210 l 143 814 l 50 814 l 50 903 l 371 903 l 371 814 l 246 814 l 246 358 q 308 151 246 225 q 501 78 371 78 q 761 371 761 78 l 761 814 l 632 814 l 632 903 l 944 903 l 944 814 z "},"Ù":{"ha":996,"x_min":50,"x_max":944,"o":"m 621 1028 l 607 976 l 332 1035 l 356 1129 l 621 1028 m 944 814 l 857 814 l 857 371 q 824 187 857 275 q 713 42 792 99 q 496 -14 635 -14 q 219 98 294 -14 q 143 356 143 210 l 143 814 l 50 814 l 50 903 l 371 903 l 371 814 l 246 814 l 246 358 q 308 151 246 225 q 501 78 371 78 q 761 371 761 78 l 761 814 l 632 814 l 632 903 l 944 903 l 944 814 z "},"Ü":{"ha":996,"x_min":50,"x_max":944,"o":"m 329 997 l 329 1115 l 442 1115 l 442 997 l 329 997 m 568 997 l 568 1115 l 679 1115 l 679 997 l 568 997 m 944 814 l 857 814 l 857 371 q 824 187 857 275 q 713 42 792 99 q 496 -14 635 -14 q 219 98 294 -14 q 143 356 143 210 l 143 814 l 50 814 l 50 903 l 371 903 l 371 814 l 246 814 l 246 358 q 308 151 246 225 q 501 78 371 78 q 761 371 761 78 l 761 814 l 632 814 l 632 903 l 944 903 l 944 814 z "},"Ŭ":{"ha":996,"x_min":50,"x_max":944,"o":"m 671 1133 q 501 971 671 971 q 332 1133 332 971 l 413 1133 q 435 1058 413 1078 q 501 1038 458 1038 q 590 1133 590 1038 l 671 1133 m 944 814 l 857 814 l 857 371 q 824 187 857 275 q 713 42 792 99 q 496 -14 635 -14 q 219 98 294 -14 q 143 356 143 210 l 143 814 l 50 814 l 50 903 l 371 903 l 371 814 l 246 814 l 246 358 q 308 151 246 225 q 501 78 371 78 q 761 371 761 78 l 761 814 l 632 814 l 632 903 l 944 903 l 944 814 z "},"Ű":{"ha":996,"x_min":50,"x_max":944,"o":"m 593 1154 l 375 976 l 339 1013 l 525 1225 l 593 1154 m 803 1035 l 528 976 l 514 1028 l 778 1129 l 803 1035 m 944 814 l 857 814 l 857 371 q 824 187 857 275 q 713 42 792 99 q 496 -14 635 -14 q 219 98 294 -14 q 143 356 143 210 l 143 814 l 50 814 l 50 903 l 371 903 l 371 814 l 246 814 l 246 358 q 308 151 246 225 q 501 78 371 78 q 761 371 761 78 l 761 814 l 632 814 l 632 903 l 944 903 l 944 814 z "},"Ū":{"ha":996,"x_min":50,"x_max":944,"o":"m 700 1018 l 313 1018 l 313 1097 l 700 1097 l 700 1018 m 944 814 l 857 814 l 857 371 q 824 187 857 275 q 713 42 792 99 q 496 -14 635 -14 q 219 98 294 -14 q 143 356 143 210 l 143 814 l 50 814 l 50 903 l 371 903 l 371 814 l 246 814 l 246 358 q 308 151 246 225 q 501 78 371 78 q 761 371 761 78 l 761 814 l 632 814 l 632 903 l 944 903 l 944 814 z "},"Ų":{"ha":999,"x_min":51,"x_max":946,"o":"m 946 814 l 858 814 l 858 371 q 799 130 858 242 q 579 -7 739 18 q 519 -72 536 -37 q 501 -137 501 -106 q 582 -215 501 -215 q 657 -194 622 -215 l 669 -262 q 560 -290 618 -290 q 455 -257 494 -290 q 415 -164 415 -224 q 438 -78 415 -117 q 494 -14 460 -40 q 219 99 294 -12 q 144 356 144 210 l 144 814 l 51 814 l 51 903 l 372 903 l 372 814 l 247 814 l 247 358 q 310 151 247 225 q 503 78 372 78 q 763 371 763 78 l 763 814 l 633 814 l 633 903 l 946 903 l 946 814 z "},"Ů":{"ha":996,"x_min":50,"x_max":944,"o":"m 642 1089 q 607 995 642 1032 q 504 958 572 958 q 368 1086 368 958 q 404 1178 368 1143 q 506 1214 440 1214 q 609 1178 576 1214 q 642 1089 642 1143 m 574 1089 q 558 1138 574 1117 q 504 1158 543 1158 q 436 1086 436 1158 q 504 1014 436 1014 q 574 1089 574 1014 m 944 814 l 857 814 l 857 371 q 824 187 857 275 q 713 42 792 99 q 496 -14 635 -14 q 219 98 294 -14 q 143 356 143 210 l 143 814 l 50 814 l 50 903 l 371 903 l 371 814 l 246 814 l 246 358 q 308 151 246 225 q 501 78 371 78 q 761 371 761 78 l 761 814 l 632 814 l 632 903 l 944 903 l 944 814 z "},"Ũ":{"ha":996,"x_min":50,"x_max":944,"o":"m 708 1108 q 674 1019 697 1053 q 600 985 650 985 q 508 1009 547 985 q 429 1033 469 1033 q 390 1023 410 1033 q 360 979 369 1013 l 314 997 q 347 1072 319 1033 q 428 1111 375 1111 q 508 1087 474 1111 q 593 1063 543 1063 q 629 1072 611 1063 q 658 1121 647 1082 l 708 1108 m 944 814 l 857 814 l 857 371 q 824 187 857 275 q 713 42 792 99 q 496 -14 635 -14 q 219 98 294 -14 q 143 356 143 210 l 143 814 l 50 814 l 50 903 l 371 903 l 371 814 l 246 814 l 246 358 q 308 151 246 225 q 501 78 371 78 q 761 371 761 78 l 761 814 l 632 814 l 632 903 l 944 903 l 944 814 z "},"Ǔ":{"ha":996,"x_min":50,"x_max":944,"o":"m 692 1100 l 517 974 l 486 974 l 311 1097 l 339 1144 l 506 1060 l 665 1149 l 692 1100 m 944 814 l 857 814 l 857 371 q 824 187 857 275 q 713 42 792 99 q 496 -14 635 -14 q 219 98 294 -14 q 143 356 143 210 l 143 814 l 50 814 l 50 903 l 371 903 l 371 814 l 246 814 l 246 358 q 308 151 246 225 q 501 78 371 78 q 761 371 761 78 l 761 814 l 632 814 l 632 903 l 944 903 l 944 814 z "},"Ẃ":{"ha":1297,"x_min":0,"x_max":1290,"o":"m 844 1035 l 571 976 l 556 1028 l 821 1129 l 844 1035 m 1290 814 l 1214 814 l 972 0 l 890 0 l 653 722 l 647 722 l 417 0 l 335 0 l 76 814 l 0 814 l 0 903 l 313 903 l 313 814 l 185 814 l 375 165 l 381 165 l 589 814 l 499 814 l 499 903 l 810 903 l 810 814 l 719 814 l 931 161 l 936 161 l 1111 814 l 981 814 l 981 903 l 1290 903 l 1290 814 z "},"Ŵ":{"ha":1297,"x_min":0,"x_max":1290,"o":"m 847 1024 l 821 975 l 654 1061 l 493 974 l 467 1019 l 643 1149 l 672 1149 l 847 1024 m 1290 814 l 1214 814 l 972 0 l 890 0 l 653 722 l 647 722 l 417 0 l 335 0 l 76 814 l 0 814 l 0 903 l 313 903 l 313 814 l 185 814 l 375 165 l 381 165 l 589 814 l 499 814 l 499 903 l 810 903 l 810 814 l 719 814 l 931 161 l 936 161 l 1111 814 l 981 814 l 981 903 l 1290 903 l 1290 814 z "},"Ẅ":{"ha":1297,"x_min":0,"x_max":1290,"o":"m 482 997 l 482 1115 l 594 1115 l 594 997 l 482 997 m 721 997 l 721 1115 l 832 1115 l 832 997 l 721 997 m 1290 814 l 1214 814 l 972 0 l 890 0 l 653 722 l 647 722 l 417 0 l 335 0 l 76 814 l 0 814 l 0 903 l 313 903 l 313 814 l 185 814 l 375 165 l 381 165 l 589 814 l 499 814 l 499 903 l 810 903 l 810 814 l 719 814 l 931 161 l 936 161 l 1111 814 l 981 814 l 981 903 l 1290 903 l 1290 814 z "},"Ẁ":{"ha":1297,"x_min":0,"x_max":1290,"o":"m 750 1028 l 736 976 l 461 1035 l 485 1129 l 750 1028 m 1290 814 l 1214 814 l 972 0 l 890 0 l 653 722 l 647 722 l 417 0 l 335 0 l 76 814 l 0 814 l 0 903 l 313 903 l 313 814 l 185 814 l 375 165 l 381 165 l 589 814 l 499 814 l 499 903 l 810 903 l 810 814 l 719 814 l 931 161 l 936 161 l 1111 814 l 981 814 l 981 903 l 1290 903 l 1290 814 z "},"Ÿ":{"ha":851,"x_min":-6,"x_max":847,"o":"m 253 997 l 253 1115 l 365 1115 l 365 997 l 253 997 m 492 997 l 492 1115 l 603 1115 l 603 997 l 492 997 m 847 814 l 758 814 l 478 344 l 478 89 l 636 89 l 636 0 l 221 0 l 221 89 l 376 89 l 376 346 l 83 814 l -6 814 l -6 903 l 324 903 l 324 814 l 200 814 l 428 439 l 435 439 l 656 814 l 531 814 l 531 903 l 847 903 l 847 814 z "},"Ŷ":{"ha":851,"x_min":-6,"x_max":847,"o":"m 624 1024 l 597 975 l 431 1061 l 269 974 l 243 1019 l 419 1149 l 449 1149 l 624 1024 m 847 814 l 758 814 l 478 344 l 478 89 l 636 89 l 636 0 l 221 0 l 221 89 l 376 89 l 376 346 l 83 814 l -6 814 l -6 903 l 324 903 l 324 814 l 200 814 l 428 439 l 435 439 l 656 814 l 531 814 l 531 903 l 847 903 l 847 814 z "},"Ỳ":{"ha":851,"x_min":-6,"x_max":847,"o":"m 514 1028 l 500 976 l 225 1035 l 249 1129 l 514 1028 m 847 814 l 758 814 l 478 344 l 478 89 l 636 89 l 636 0 l 221 0 l 221 89 l 376 89 l 376 346 l 83 814 l -6 814 l -6 903 l 324 903 l 324 814 l 200 814 l 428 439 l 435 439 l 656 814 l 531 814 l 531 903 l 847 903 l 847 814 z "},"Ý":{"ha":851,"x_min":-6,"x_max":847,"o":"m 613 1035 l 339 976 l 324 1028 l 589 1129 l 613 1035 m 847 814 l 758 814 l 478 344 l 478 89 l 636 89 l 636 0 l 221 0 l 221 89 l 376 89 l 376 346 l 83 814 l -6 814 l -6 903 l 324 903 l 324 814 l 200 814 l 428 439 l 435 439 l 656 814 l 531 814 l 531 903 l 847 903 l 847 814 z "},"Ȳ":{"ha":851,"x_min":-6,"x_max":847,"o":"m 625 1018 l 238 1018 l 238 1097 l 625 1097 l 625 1018 m 847 814 l 758 814 l 478 344 l 478 89 l 636 89 l 636 0 l 221 0 l 221 89 l 376 89 l 376 346 l 83 814 l -6 814 l -6 903 l 324 903 l 324 814 l 200 814 l 428 439 l 435 439 l 656 814 l 531 814 l 531 903 l 847 903 l 847 814 z "},"Ź":{"ha":801,"x_min":44,"x_max":750,"o":"m 603 1035 l 329 976 l 314 1028 l 579 1129 l 603 1035 m 714 0 l 47 0 l 44 61 l 578 810 l 578 814 l 189 814 l 150 629 l 64 642 l 99 903 l 721 903 l 724 847 l 188 93 l 188 89 l 624 89 l 663 281 l 750 268 l 714 0 z "},"Ž":{"ha":801,"x_min":44,"x_max":750,"o":"m 597 1100 l 422 974 l 392 974 l 217 1097 l 244 1144 l 411 1060 l 571 1149 l 597 1100 m 714 0 l 47 0 l 44 61 l 578 810 l 578 814 l 189 814 l 150 629 l 64 642 l 99 903 l 721 903 l 724 847 l 188 93 l 188 89 l 624 89 l 663 281 l 750 268 l 714 0 z "},"Ż":{"ha":801,"x_min":44,"x_max":750,"o":"m 356 997 l 356 1115 l 468 1115 l 468 997 l 356 997 m 714 0 l 47 0 l 44 61 l 578 810 l 578 814 l 189 814 l 150 629 l 64 642 l 99 903 l 721 903 l 724 847 l 188 93 l 188 89 l 624 89 l 663 281 l 750 268 l 714 0 z "},"Ə":{"ha":950,"x_min":61,"x_max":893,"o":"m 169 604 l 88 614 l 100 803 q 260 885 167 853 q 468 917 353 917 q 785 781 678 917 q 893 449 893 644 q 787 124 893 263 q 464 -14 681 -14 q 170 95 279 -14 q 61 392 61 204 l 61 481 l 783 481 q 692 731 772 638 q 463 825 611 825 q 188 751 304 825 l 169 604 m 785 400 l 171 400 l 171 392 q 237 174 171 269 q 468 78 303 78 q 703 174 631 78 q 785 400 776 269 z "},"Þ":{"ha":794,"x_min":58,"x_max":763,"o":"m 388 0 l 58 0 l 58 89 l 172 89 l 172 814 l 58 814 l 58 903 l 388 903 l 388 814 l 275 814 l 275 729 l 449 729 q 689 655 615 729 q 763 472 763 581 q 676 265 763 336 q 457 193 590 193 l 275 193 l 275 89 l 388 89 l 388 0 m 440 654 l 275 654 l 275 269 l 443 269 q 654 469 654 269 q 602 605 654 556 q 440 654 550 654 z "},"Ð":{"ha":981,"x_min":58,"x_max":924,"o":"m 924 453 q 802 127 924 254 q 467 0 681 0 l 58 0 l 58 88 l 172 88 l 172 428 l 64 428 l 64 514 l 172 514 l 172 815 l 58 815 l 58 903 l 463 903 q 803 776 683 903 q 924 453 924 649 m 815 451 q 724 715 815 615 q 461 815 633 815 l 274 815 l 274 514 l 461 514 l 461 428 l 274 428 l 274 88 l 461 88 q 724 185 633 88 q 815 451 815 283 z "},"Ĳ":{"ha":1079,"x_min":58,"x_max":1026,"o":"m 388 0 l 58 0 l 58 89 l 172 89 l 172 814 l 58 814 l 58 903 l 388 903 l 388 814 l 275 814 l 275 89 l 388 89 l 388 0 m 1026 814 l 926 814 l 926 231 q 865 47 926 108 q 694 -14 804 -14 q 552 24 606 -14 q 469 124 499 63 l 543 179 q 606 102 572 122 q 686 82 640 82 q 792 122 760 82 q 825 231 825 163 l 825 814 l 646 814 l 646 903 l 1026 903 l 1026 814 z "},"Œ":{"ha":1386,"x_min":54,"x_max":1329,"o":"m 1301 0 l 740 0 l 740 53 q 634 4 692 22 q 507 -14 576 -14 q 270 49 372 -14 q 111 218 168 113 q 54 451 54 324 q 113 686 54 581 q 273 854 171 792 q 507 917 375 917 q 633 899 575 917 q 740 849 692 881 l 740 903 l 1289 903 l 1317 647 l 1226 638 l 1199 814 l 842 814 l 842 503 l 1267 503 l 1267 414 l 842 414 l 842 89 l 1211 89 l 1239 265 l 1329 256 l 1301 0 m 740 161 l 740 742 q 511 825 646 825 q 256 717 350 825 q 163 454 163 608 q 253 191 163 304 q 513 78 344 78 q 740 161 657 78 z "},"Ǆ":{"ha":1779,"x_min":58,"x_max":1728,"o":"m 1575 1100 l 1400 974 l 1369 974 l 1194 1097 l 1222 1144 l 1389 1060 l 1549 1149 l 1575 1100 m 1692 0 l 1025 0 l 1022 61 l 1556 810 l 1556 814 l 1167 814 l 1128 629 l 1042 642 l 1076 903 l 1699 903 l 1701 847 l 1165 93 l 1165 89 l 1601 89 l 1640 281 l 1728 268 l 1692 0 m 924 453 q 802 127 924 254 q 467 0 681 0 l 58 0 l 58 88 l 172 88 l 172 815 l 58 815 l 58 903 l 463 903 q 803 776 683 903 q 924 453 924 649 m 815 451 q 724 715 815 615 q 461 815 633 815 l 274 815 l 274 88 l 461 88 q 724 185 633 88 q 815 451 815 283 z "},"ǅ":{"ha":1624,"x_min":58,"x_max":1585,"o":"m 1493 886 l 1325 721 l 1294 721 l 1126 883 l 1163 931 l 1315 814 l 1457 932 l 1493 886 m 924 453 q 802 127 924 254 q 467 0 681 0 l 58 0 l 58 88 l 172 88 l 172 815 l 58 815 l 58 903 l 463 903 q 803 776 683 903 q 924 453 924 649 m 815 451 q 724 715 815 615 q 461 815 633 815 l 274 815 l 274 88 l 461 88 q 724 185 633 88 q 815 451 815 283 m 1551 0 l 1032 0 l 1028 60 l 1417 539 l 1125 539 l 1107 415 l 1029 425 l 1046 618 l 1543 618 l 1547 560 l 1156 79 l 1474 79 l 1506 204 l 1585 192 l 1551 0 z "},"Ǉ":{"ha":1389,"x_min":58,"x_max":1336,"o":"m 1336 814 l 1236 814 l 1236 231 q 1175 47 1236 108 q 1004 -14 1114 -14 q 862 24 915 -14 q 779 124 808 63 l 853 179 q 916 102 882 122 q 996 82 950 82 q 1102 122 1069 82 q 1135 231 1135 163 l 1135 814 l 956 814 l 956 903 l 1336 903 l 1336 814 m 710 0 l 58 0 l 58 89 l 172 89 l 172 814 l 58 814 l 58 903 l 425 903 l 425 814 l 274 814 l 274 89 l 619 89 l 647 296 l 738 289 l 710 0 z "},"Ǌ":{"ha":1646,"x_min":53,"x_max":1592,"o":"m 1592 814 l 1492 814 l 1492 231 q 1431 47 1492 108 q 1260 -14 1369 -14 q 1117 24 1171 -14 q 1035 124 1064 63 l 1108 179 q 1172 102 1138 122 q 1251 82 1206 82 q 1358 122 1325 82 q 1390 231 1390 163 l 1390 814 l 1211 814 l 1211 903 l 1592 903 l 1592 814 m 976 814 l 864 814 l 864 0 l 799 0 l 275 711 l 269 711 l 269 89 l 413 89 l 413 0 l 68 0 l 68 89 l 172 89 l 172 814 l 53 814 l 53 903 l 247 903 l 761 207 l 767 207 l 767 814 l 631 814 l 631 903 l 976 903 l 976 814 z "},"Ǳ":{"ha":1776,"x_min":58,"x_max":1724,"o":"m 1688 0 l 1021 0 l 1018 61 l 1551 810 l 1551 814 l 1163 814 l 1124 629 l 1038 642 l 1072 903 l 1694 903 l 1697 847 l 1161 93 l 1161 89 l 1597 89 l 1636 281 l 1724 268 l 1688 0 m 924 453 q 802 127 924 254 q 467 0 681 0 l 58 0 l 58 88 l 172 88 l 172 815 l 58 815 l 58 903 l 463 903 q 803 776 683 903 q 924 453 924 649 m 815 451 q 724 715 815 615 q 461 815 633 815 l 274 815 l 274 88 l 461 88 q 724 185 633 88 q 815 451 815 283 z "},"ǲ":{"ha":1624,"x_min":58,"x_max":1585,"o":"m 924 453 q 802 127 924 254 q 467 0 681 0 l 58 0 l 58 88 l 172 88 l 172 815 l 58 815 l 58 903 l 463 903 q 803 776 683 903 q 924 453 924 649 m 815 451 q 724 715 815 615 q 461 815 633 815 l 274 815 l 274 88 l 461 88 q 724 185 633 88 q 815 451 815 283 m 1551 0 l 1032 0 l 1028 60 l 1417 539 l 1125 539 l 1107 415 l 1029 425 l 1046 618 l 1543 618 l 1547 560 l 1156 79 l 1474 79 l 1506 204 l 1585 192 l 1551 0 z "},"ǈ":{"ha":1082,"x_min":58,"x_max":978,"o":"m 872 778 l 872 904 l 978 904 l 978 778 l 872 778 m 710 0 l 58 0 l 58 89 l 172 89 l 172 814 l 58 814 l 58 903 l 425 903 l 425 814 l 274 814 l 274 89 l 619 89 l 647 296 l 738 289 l 710 0 m 978 -18 q 903 -258 978 -194 q 713 -311 828 -321 l 710 -236 q 787 -224 747 -236 q 853 -165 826 -211 q 879 -18 879 -118 l 879 539 l 742 539 l 742 618 l 978 618 l 978 -18 z "},"ǋ":{"ha":1353,"x_min":53,"x_max":1249,"o":"m 1143 778 l 1143 904 l 1249 904 l 1249 778 l 1143 778 m 976 814 l 864 814 l 864 0 l 799 0 l 275 711 l 269 711 l 269 89 l 413 89 l 413 0 l 68 0 l 68 89 l 172 89 l 172 814 l 53 814 l 53 903 l 247 903 l 761 207 l 767 207 l 767 814 l 631 814 l 631 903 l 976 903 l 976 814 m 1249 -18 q 1173 -258 1249 -194 q 983 -311 1097 -321 l 981 -236 q 1058 -224 1019 -236 q 1124 -165 1097 -211 q 1150 -18 1150 -118 l 1150 539 l 1013 539 l 1013 618 l 1249 618 l 1249 -18 z "},"á":{"ha":671,"x_min":56,"x_max":647,"o":"m 524 867 l 285 722 l 254 765 l 468 949 l 524 867 m 113 571 q 215 617 161 603 q 331 631 269 631 q 551 424 551 631 l 551 129 q 604 63 551 63 q 646 71 628 63 l 647 7 q 567 -14 610 -14 q 454 111 457 -14 l 454 114 q 372 25 425 64 q 243 -14 318 -14 q 119 24 182 -14 q 56 160 56 61 q 148 313 56 276 q 344 350 240 350 q 401 349 372 350 q 454 344 429 347 l 454 400 q 426 508 454 467 q 314 550 397 550 q 194 525 246 550 l 171 418 l 90 428 l 113 571 m 454 232 l 454 279 q 399 283 428 281 q 339 286 369 286 q 213 265 269 286 q 157 171 157 243 q 194 89 157 111 q 272 67 232 67 q 392 111 336 67 q 454 232 449 156 z "},"à":{"ha":671,"x_min":56,"x_max":647,"o":"m 410 765 l 381 722 l 140 867 l 196 949 l 410 765 m 113 571 q 215 617 161 603 q 331 631 269 631 q 551 424 551 631 l 551 129 q 604 63 551 63 q 646 71 628 63 l 647 7 q 567 -14 610 -14 q 454 111 457 -14 l 454 114 q 372 25 425 64 q 243 -14 318 -14 q 119 24 182 -14 q 56 160 56 61 q 148 313 56 276 q 344 350 240 350 q 401 349 372 350 q 454 344 429 347 l 454 400 q 426 508 454 467 q 314 550 397 550 q 194 525 246 550 l 171 418 l 90 428 l 113 571 m 454 232 l 454 279 q 399 283 428 281 q 339 286 369 286 q 213 265 269 286 q 157 171 157 243 q 194 89 157 111 q 272 67 232 67 q 392 111 336 67 q 454 232 449 156 z "},"â":{"ha":671,"x_min":56,"x_max":647,"o":"m 510 768 l 472 721 l 318 838 l 178 721 l 143 765 l 311 932 l 342 932 l 510 768 m 113 571 q 215 617 161 603 q 331 631 269 631 q 551 424 551 631 l 551 129 q 604 63 551 63 q 646 71 628 63 l 647 7 q 567 -14 610 -14 q 454 111 457 -14 l 454 114 q 372 25 425 64 q 243 -14 318 -14 q 119 24 182 -14 q 56 160 56 61 q 148 313 56 276 q 344 350 240 350 q 401 349 372 350 q 454 344 429 347 l 454 400 q 426 508 454 467 q 314 550 397 550 q 194 525 246 550 l 171 418 l 90 428 l 113 571 m 454 232 l 454 279 q 399 283 428 281 q 339 286 369 286 q 213 265 269 286 q 157 171 157 243 q 194 89 157 111 q 272 67 232 67 q 392 111 336 67 q 454 232 449 156 z "},"ä":{"ha":671,"x_min":56,"x_max":647,"o":"m 150 771 l 150 889 l 263 889 l 263 771 l 150 771 m 388 771 l 388 889 l 500 889 l 500 771 l 388 771 m 113 571 q 215 617 161 603 q 331 631 269 631 q 551 424 551 631 l 551 129 q 604 63 551 63 q 646 71 628 63 l 647 7 q 567 -14 610 -14 q 454 111 457 -14 l 454 114 q 372 25 425 64 q 243 -14 318 -14 q 119 24 182 -14 q 56 160 56 61 q 148 313 56 276 q 344 350 240 350 q 401 349 372 350 q 454 344 429 347 l 454 400 q 426 508 454 467 q 314 550 397 550 q 194 525 246 550 l 171 418 l 90 428 l 113 571 m 454 232 l 454 279 q 399 283 428 281 q 339 286 369 286 q 213 265 269 286 q 157 171 157 243 q 194 89 157 111 q 272 67 232 67 q 392 111 336 67 q 454 232 449 156 z "},"ã":{"ha":671,"x_min":56,"x_max":647,"o":"m 514 897 q 480 805 504 842 q 407 768 456 768 q 314 795 353 768 q 236 822 275 822 q 196 809 217 822 q 165 763 175 796 l 119 779 q 152 858 125 815 q 232 901 179 901 q 314 876 279 901 q 399 850 349 850 q 435 861 417 850 q 464 910 453 872 l 514 897 m 113 571 q 215 617 161 603 q 331 631 269 631 q 551 424 551 631 l 551 129 q 604 63 551 63 q 646 71 628 63 l 647 7 q 567 -14 610 -14 q 454 111 457 -14 l 454 114 q 372 25 425 64 q 243 -14 318 -14 q 119 24 182 -14 q 56 160 56 61 q 148 313 56 276 q 344 350 240 350 q 401 349 372 350 q 454 344 429 347 l 454 400 q 426 508 454 467 q 314 550 397 550 q 194 525 246 550 l 171 418 l 90 428 l 113 571 m 454 232 l 454 279 q 399 283 428 281 q 339 286 369 286 q 213 265 269 286 q 157 171 157 243 q 194 89 157 111 q 272 67 232 67 q 392 111 336 67 q 454 232 449 156 z "},"å":{"ha":671,"x_min":56,"x_max":647,"o":"m 464 843 q 429 750 464 786 q 326 714 394 714 q 190 842 190 714 q 226 933 190 897 q 328 969 263 969 q 431 934 399 969 q 464 843 464 899 m 396 844 q 381 893 396 872 q 326 914 365 914 q 275 893 292 914 q 258 842 258 872 q 326 769 258 769 q 379 792 363 769 q 396 844 396 814 m 113 571 q 215 617 161 603 q 331 631 269 631 q 551 424 551 631 l 551 129 q 604 63 551 63 q 646 71 628 63 l 647 7 q 567 -14 610 -14 q 454 111 457 -14 l 454 114 q 372 25 425 64 q 243 -14 318 -14 q 119 24 182 -14 q 56 160 56 61 q 148 313 56 276 q 344 350 240 350 q 401 349 372 350 q 454 344 429 347 l 454 400 q 426 508 454 467 q 314 550 397 550 q 194 525 246 550 l 171 418 l 90 428 l 113 571 m 454 232 l 454 279 q 399 283 428 281 q 339 286 369 286 q 213 265 269 286 q 157 171 157 243 q 194 89 157 111 q 272 67 232 67 q 392 111 336 67 q 454 232 449 156 z "},"ă":{"ha":671,"x_min":56,"x_max":647,"o":"m 492 910 q 321 739 492 739 q 151 910 151 739 l 233 910 q 322 806 233 806 q 410 910 410 806 l 492 910 m 113 571 q 215 617 161 603 q 331 631 269 631 q 551 424 551 631 l 551 129 q 604 63 551 63 q 646 71 628 63 l 647 7 q 567 -14 610 -14 q 454 111 457 -14 l 454 114 q 372 25 425 64 q 243 -14 318 -14 q 119 24 182 -14 q 56 160 56 61 q 148 313 56 276 q 344 350 240 350 q 401 349 372 350 q 454 344 429 347 l 454 400 q 426 508 454 467 q 314 550 397 550 q 194 525 246 550 l 171 418 l 90 428 l 113 571 m 454 232 l 454 279 q 399 283 428 281 q 339 286 369 286 q 213 265 269 286 q 157 171 157 243 q 194 89 157 111 q 272 67 232 67 q 392 111 336 67 q 454 232 449 156 z "},"ā":{"ha":671,"x_min":56,"x_max":647,"o":"m 490 783 l 151 783 l 151 863 l 490 863 l 490 783 m 113 571 q 215 617 161 603 q 331 631 269 631 q 551 424 551 631 l 551 129 q 604 63 551 63 q 646 71 628 63 l 647 7 q 567 -14 610 -14 q 454 111 457 -14 l 454 114 q 372 25 425 64 q 243 -14 318 -14 q 119 24 182 -14 q 56 160 56 61 q 148 313 56 276 q 344 350 240 350 q 401 349 372 350 q 454 344 429 347 l 454 400 q 426 508 454 467 q 314 550 397 550 q 194 525 246 550 l 171 418 l 90 428 l 113 571 m 454 232 l 454 279 q 399 283 428 281 q 339 286 369 286 q 213 265 269 286 q 157 171 157 243 q 194 89 157 111 q 272 67 232 67 q 392 111 336 67 q 454 232 449 156 z "},"ą":{"ha":671,"x_min":56,"x_max":667,"o":"m 667 -262 q 557 -290 615 -290 q 452 -257 492 -290 q 413 -164 413 -224 q 440 -69 413 -111 q 511 -1 468 -28 q 454 111 454 26 l 454 114 q 372 25 425 64 q 243 -14 318 -14 q 119 24 182 -14 q 56 160 56 61 q 148 313 56 276 q 344 350 240 350 q 401 349 372 350 q 454 344 429 347 l 454 400 q 426 508 454 467 q 314 550 397 550 q 194 525 246 550 l 171 418 l 90 428 l 113 571 q 215 617 161 603 q 331 631 269 631 q 551 424 551 631 l 551 129 q 604 63 551 63 q 646 71 628 63 l 647 7 q 567 -14 610 -14 q 513 -74 528 -42 q 499 -137 499 -106 q 579 -215 499 -215 q 654 -194 619 -215 l 667 -262 m 454 232 l 454 279 q 399 283 428 281 q 339 286 369 286 q 213 265 269 286 q 157 171 157 243 q 194 89 157 111 q 272 67 232 67 q 392 111 336 67 q 454 232 449 156 z "},"æ":{"ha":1054,"x_min":54,"x_max":1006,"o":"m 1006 178 q 927 42 993 99 q 746 -14 861 -14 q 492 132 563 -14 q 401 33 460 81 q 249 -14 343 -14 q 119 24 183 -14 q 54 160 54 61 q 148 313 54 276 q 347 350 242 350 q 402 349 374 350 q 456 344 431 347 l 456 400 q 428 507 456 464 q 321 550 400 550 q 196 525 247 550 l 171 418 l 90 428 l 114 571 q 343 631 203 631 q 526 531 479 631 q 738 631 607 631 q 933 550 865 631 q 1000 360 1000 469 q 992 286 1000 324 l 558 286 q 754 71 567 71 q 868 105 828 71 q 924 196 908 139 l 1006 178 m 897 357 q 865 487 904 425 q 735 549 826 549 q 609 492 650 549 q 560 357 568 436 l 897 357 m 158 171 q 196 89 158 111 q 274 67 233 67 q 395 111 339 67 q 456 233 451 156 l 456 279 q 400 283 429 281 q 343 286 371 286 q 215 265 272 286 q 158 171 158 243 z "},"ǽ":{"ha":1054,"x_min":54,"x_max":1006,"o":"m 779 867 l 540 722 l 510 765 l 724 949 l 779 867 m 1006 178 q 927 42 993 99 q 746 -14 861 -14 q 492 132 563 -14 q 401 33 460 81 q 249 -14 343 -14 q 119 24 183 -14 q 54 160 54 61 q 148 313 54 276 q 347 350 242 350 q 402 349 374 350 q 456 344 431 347 l 456 400 q 428 507 456 464 q 321 550 400 550 q 196 525 247 550 l 171 418 l 90 428 l 114 571 q 343 631 203 631 q 526 531 479 631 q 738 631 607 631 q 933 550 865 631 q 1000 360 1000 469 q 992 286 1000 324 l 558 286 q 754 71 567 71 q 868 105 828 71 q 924 196 908 139 l 1006 178 m 897 357 q 865 487 904 425 q 735 549 826 549 q 609 492 650 549 q 560 357 568 436 l 897 357 m 158 171 q 196 89 158 111 q 274 67 233 67 q 395 111 339 67 q 456 233 451 156 l 456 279 q 400 283 429 281 q 343 286 371 286 q 215 265 272 286 q 158 171 158 243 z "},"ǣ":{"ha":1054,"x_min":54,"x_max":1006,"o":"m 700 783 l 361 783 l 361 863 l 700 863 l 700 783 m 1006 178 q 927 42 993 99 q 746 -14 861 -14 q 492 132 563 -14 q 401 33 460 81 q 249 -14 343 -14 q 119 24 183 -14 q 54 160 54 61 q 148 313 54 276 q 347 350 242 350 q 402 349 374 350 q 456 344 431 347 l 456 400 q 428 507 456 464 q 321 550 400 550 q 196 525 247 550 l 171 418 l 90 428 l 114 571 q 343 631 203 631 q 526 531 479 631 q 738 631 607 631 q 933 550 865 631 q 1000 360 1000 469 q 992 286 1000 324 l 558 286 q 754 71 567 71 q 868 105 828 71 q 924 196 908 139 l 1006 178 m 897 357 q 865 487 904 425 q 735 549 826 549 q 609 492 650 549 q 560 357 568 436 l 897 357 m 158 171 q 196 89 158 111 q 274 67 233 67 q 395 111 339 67 q 456 233 451 156 l 456 279 q 400 283 429 281 q 343 286 371 286 q 215 265 272 286 q 158 171 158 243 z "},"ç":{"ha":642,"x_min":53,"x_max":594,"o":"m 500 -175 q 456 -265 500 -237 q 350 -292 411 -292 q 217 -250 267 -292 l 240 -193 q 344 -225 282 -225 q 415 -168 415 -225 q 392 -123 415 -133 q 335 -112 368 -112 l 293 -112 l 293 -11 q 117 81 182 0 q 53 300 53 163 q 125 529 53 428 q 342 631 197 631 q 454 617 403 631 q 553 567 506 603 l 576 418 l 496 408 l 472 513 q 340 547 417 547 q 199 476 242 547 q 156 306 156 406 q 204 132 156 194 q 344 69 253 69 q 511 226 483 69 l 594 208 q 529 65 583 132 q 365 -12 475 -3 l 365 -67 l 376 -67 q 471 -98 442 -67 q 500 -175 500 -129 z "},"ć":{"ha":642,"x_min":53,"x_max":594,"o":"m 526 867 l 288 722 l 257 765 l 471 949 l 526 867 m 594 208 q 522 57 582 128 q 333 -14 461 -14 q 129 69 206 -14 q 53 300 53 151 q 125 529 53 428 q 342 631 197 631 q 454 617 403 631 q 553 567 506 603 l 576 418 l 496 408 l 472 513 q 340 547 417 547 q 199 476 242 547 q 156 306 156 406 q 204 132 156 194 q 344 69 253 69 q 511 226 483 69 l 594 208 z "},"č":{"ha":642,"x_min":53,"x_max":594,"o":"m 521 886 l 353 721 l 322 721 l 154 883 l 190 931 l 343 814 l 485 932 l 521 886 m 594 208 q 522 57 582 128 q 333 -14 461 -14 q 129 69 206 -14 q 53 300 53 151 q 125 529 53 428 q 342 631 197 631 q 454 617 403 631 q 553 567 506 603 l 576 418 l 496 408 l 472 513 q 340 547 417 547 q 199 476 242 547 q 156 306 156 406 q 204 132 156 194 q 344 69 253 69 q 511 226 483 69 l 594 208 z "},"ĉ":{"ha":642,"x_min":53,"x_max":594,"o":"m 526 768 l 489 721 l 335 838 l 194 721 l 160 765 l 328 932 l 358 932 l 526 768 m 594 208 q 522 57 582 128 q 333 -14 461 -14 q 129 69 206 -14 q 53 300 53 151 q 125 529 53 428 q 342 631 197 631 q 454 617 403 631 q 553 567 506 603 l 576 418 l 496 408 l 472 513 q 340 547 417 547 q 199 476 242 547 q 156 306 156 406 q 204 132 156 194 q 344 69 253 69 q 511 226 483 69 l 594 208 z "},"ċ":{"ha":642,"x_min":53,"x_max":594,"o":"m 282 768 l 282 894 l 389 894 l 389 768 l 282 768 m 594 208 q 522 57 582 128 q 333 -14 461 -14 q 129 69 206 -14 q 53 300 53 151 q 125 529 53 428 q 342 631 197 631 q 454 617 403 631 q 553 567 506 603 l 576 418 l 496 408 l 472 513 q 340 547 417 547 q 199 476 242 547 q 156 306 156 406 q 204 132 156 194 q 344 69 253 69 q 511 226 483 69 l 594 208 z "},"ď":{"ha":776,"x_min":53,"x_max":838,"o":"m 743 0 l 539 0 l 539 125 q 456 28 508 69 q 318 -14 403 -14 q 126 67 199 -14 q 53 293 53 149 q 117 524 53 417 q 332 631 181 631 q 539 518 476 631 l 539 876 l 389 876 l 389 956 l 636 956 l 636 79 l 743 79 l 743 0 m 838 946 l 807 635 l 728 635 l 746 946 l 838 946 m 539 274 l 539 372 q 482 499 536 450 q 354 547 428 547 q 203 472 251 547 q 156 300 156 397 q 209 128 156 186 q 343 69 263 69 q 481 137 426 69 q 539 274 536 204 z "},"đ":{"ha":764,"x_min":53,"x_max":743,"o":"m 743 0 l 539 0 l 539 125 q 456 28 508 69 q 318 -14 403 -14 q 126 67 199 -14 q 53 293 53 149 q 117 524 53 417 q 332 631 181 631 q 539 518 476 631 l 539 721 l 292 721 l 292 789 l 539 789 l 539 876 l 389 876 l 389 956 l 636 956 l 636 789 l 729 789 l 729 721 l 636 721 l 636 79 l 743 79 l 743 0 m 539 274 l 539 372 q 482 499 536 450 q 354 547 428 547 q 203 472 251 547 q 156 300 156 397 q 209 128 156 186 q 343 69 263 69 q 481 137 426 69 q 539 274 536 204 z "},"é":{"ha":653,"x_min":53,"x_max":604,"o":"m 551 867 l 313 722 l 282 765 l 496 949 l 551 867 m 604 178 q 525 42 592 99 q 344 -14 458 -14 q 133 68 214 -14 q 53 300 53 150 q 129 538 53 444 q 336 631 206 631 q 531 550 464 631 q 599 360 597 469 q 590 286 599 324 l 156 286 q 351 69 164 69 q 467 104 425 69 q 522 196 508 139 l 604 178 m 496 358 q 463 489 503 428 q 333 550 424 550 q 207 493 247 550 q 157 358 167 436 l 496 358 z "},"è":{"ha":653,"x_min":53,"x_max":604,"o":"m 421 765 l 392 722 l 151 867 l 207 949 l 421 765 m 604 178 q 525 42 592 99 q 344 -14 458 -14 q 133 68 214 -14 q 53 300 53 150 q 129 538 53 444 q 336 631 206 631 q 531 550 464 631 q 599 360 597 469 q 590 286 599 324 l 156 286 q 351 69 164 69 q 467 104 425 69 q 522 196 508 139 l 604 178 m 496 358 q 463 489 503 428 q 333 550 424 550 q 207 493 247 550 q 157 358 167 436 l 496 358 z "},"ê":{"ha":653,"x_min":53,"x_max":604,"o":"m 528 768 l 490 721 l 336 838 l 196 721 l 161 765 l 329 932 l 360 932 l 528 768 m 604 178 q 525 42 592 99 q 344 -14 458 -14 q 133 68 214 -14 q 53 300 53 150 q 129 538 53 444 q 336 631 206 631 q 531 550 464 631 q 599 360 597 469 q 590 286 599 324 l 156 286 q 351 69 164 69 q 467 104 425 69 q 522 196 508 139 l 604 178 m 496 358 q 463 489 503 428 q 333 550 424 550 q 207 493 247 550 q 157 358 167 436 l 496 358 z "},"ë":{"ha":653,"x_min":53,"x_max":604,"o":"m 168 771 l 168 889 l 281 889 l 281 771 l 168 771 m 406 771 l 406 889 l 518 889 l 518 771 l 406 771 m 604 178 q 525 42 592 99 q 344 -14 458 -14 q 133 68 214 -14 q 53 300 53 150 q 129 538 53 444 q 336 631 206 631 q 531 550 464 631 q 599 360 597 469 q 590 286 599 324 l 156 286 q 351 69 164 69 q 467 104 425 69 q 522 196 508 139 l 604 178 m 496 358 q 463 489 503 428 q 333 550 424 550 q 207 493 247 550 q 157 358 167 436 l 496 358 z "},"ĕ":{"ha":653,"x_min":53,"x_max":604,"o":"m 508 910 q 338 739 508 739 q 168 910 168 739 l 250 910 q 339 806 250 806 q 426 910 426 806 l 508 910 m 604 178 q 525 42 592 99 q 344 -14 458 -14 q 133 68 214 -14 q 53 300 53 150 q 129 538 53 444 q 336 631 206 631 q 531 550 464 631 q 599 360 597 469 q 590 286 599 324 l 156 286 q 351 69 164 69 q 467 104 425 69 q 522 196 508 139 l 604 178 m 496 358 q 463 489 503 428 q 333 550 424 550 q 207 493 247 550 q 157 358 167 436 l 496 358 z "},"ě":{"ha":653,"x_min":53,"x_max":604,"o":"m 521 886 l 353 721 l 322 721 l 154 883 l 190 931 l 343 814 l 485 932 l 521 886 m 604 178 q 525 42 592 99 q 344 -14 458 -14 q 133 68 214 -14 q 53 300 53 150 q 129 538 53 444 q 336 631 206 631 q 531 550 464 631 q 599 360 597 469 q 590 286 599 324 l 156 286 q 351 69 164 69 q 467 104 425 69 q 522 196 508 139 l 604 178 m 496 358 q 463 489 503 428 q 333 550 424 550 q 207 493 247 550 q 157 358 167 436 l 496 358 z "},"ė":{"ha":653,"x_min":53,"x_max":604,"o":"m 282 768 l 282 894 l 389 894 l 389 768 l 282 768 m 604 178 q 525 42 592 99 q 344 -14 458 -14 q 133 68 214 -14 q 53 300 53 150 q 129 538 53 444 q 336 631 206 631 q 531 550 464 631 q 599 360 597 469 q 590 286 599 324 l 156 286 q 351 69 164 69 q 467 104 425 69 q 522 196 508 139 l 604 178 m 496 358 q 463 489 503 428 q 333 550 424 550 q 207 493 247 550 q 157 358 167 436 l 496 358 z "},"ē":{"ha":653,"x_min":53,"x_max":604,"o":"m 511 783 l 172 783 l 172 863 l 511 863 l 511 783 m 604 178 q 525 42 592 99 q 344 -14 458 -14 q 133 68 214 -14 q 53 300 53 150 q 129 538 53 444 q 336 631 206 631 q 531 550 464 631 q 599 360 597 469 q 590 286 599 324 l 156 286 q 351 69 164 69 q 467 104 425 69 q 522 196 508 139 l 604 178 m 496 358 q 463 489 503 428 q 333 550 424 550 q 207 493 247 550 q 157 358 167 436 l 496 358 z "},"ẽ":{"ha":653,"x_min":53,"x_max":604,"o":"m 528 897 q 494 805 518 842 q 421 768 469 768 q 328 795 367 768 q 250 822 289 822 q 210 809 231 822 q 179 763 189 796 l 133 779 q 166 858 139 815 q 246 901 193 901 q 328 876 293 901 q 413 850 363 850 q 449 861 431 850 q 478 910 467 872 l 528 897 m 604 178 q 525 42 592 99 q 344 -14 458 -14 q 133 68 214 -14 q 53 300 53 150 q 129 538 53 444 q 336 631 206 631 q 531 550 464 631 q 599 360 597 469 q 590 286 599 324 l 156 286 q 351 69 164 69 q 467 104 425 69 q 522 196 508 139 l 604 178 m 496 358 q 463 489 503 428 q 333 550 424 550 q 207 493 247 550 q 157 358 167 436 l 496 358 z "},"ę":{"ha":653,"x_min":53,"x_max":604,"o":"m 604 178 q 550 64 594 114 q 429 -4 506 14 q 364 -69 382 -35 q 346 -137 346 -104 q 426 -215 346 -215 q 501 -194 467 -215 l 514 -262 q 404 -290 463 -290 q 299 -257 339 -290 q 260 -164 260 -224 q 282 -78 260 -117 q 339 -14 304 -40 q 131 70 210 -11 q 53 300 53 151 q 129 538 53 444 q 336 631 206 631 q 531 550 464 631 q 599 360 597 469 q 590 286 599 324 l 156 286 q 351 69 164 69 q 467 104 425 69 q 522 196 508 139 l 604 178 m 496 358 q 463 489 503 428 q 333 550 424 550 q 207 493 247 550 q 157 358 167 436 l 496 358 z "},"ğ":{"ha":761,"x_min":53,"x_max":738,"o":"m 531 910 q 360 739 531 739 q 190 910 190 739 l 272 910 q 361 806 272 806 q 449 910 449 806 l 531 910 m 738 539 l 638 539 l 638 8 q 558 -224 638 -137 q 333 -310 478 -310 q 159 -265 236 -310 q 57 -128 82 -221 l 135 -89 q 217 -194 158 -161 q 338 -226 275 -226 q 483 -165 426 -226 q 539 13 539 -103 l 539 126 q 458 32 511 72 q 318 -8 406 -8 q 131 69 208 -8 q 53 293 53 147 q 119 524 53 417 q 329 631 186 631 q 539 521 476 631 l 539 618 l 738 618 l 738 539 m 539 267 l 539 374 q 485 499 539 451 q 356 547 432 547 q 205 472 251 547 q 158 300 158 397 q 210 131 158 186 q 339 75 263 75 q 482 136 428 75 q 539 267 536 197 z "},"ĝ":{"ha":761,"x_min":53,"x_max":738,"o":"m 546 768 l 508 721 l 354 838 l 214 721 l 179 765 l 347 932 l 378 932 l 546 768 m 738 539 l 638 539 l 638 8 q 558 -224 638 -137 q 333 -310 478 -310 q 159 -265 236 -310 q 57 -128 82 -221 l 135 -89 q 217 -194 158 -161 q 338 -226 275 -226 q 483 -165 426 -226 q 539 13 539 -103 l 539 126 q 458 32 511 72 q 318 -8 406 -8 q 131 69 208 -8 q 53 293 53 147 q 119 524 53 417 q 329 631 186 631 q 539 521 476 631 l 539 618 l 738 618 l 738 539 m 539 267 l 539 374 q 485 499 539 451 q 356 547 432 547 q 205 472 251 547 q 158 300 158 397 q 210 131 158 186 q 339 75 263 75 q 482 136 428 75 q 539 267 536 197 z "},"ģ":{"ha":761,"x_min":53,"x_max":738,"o":"m 311 756 l 336 969 l 415 969 l 404 756 l 311 756 m 738 539 l 638 539 l 638 8 q 558 -224 638 -137 q 333 -310 478 -310 q 159 -265 236 -310 q 57 -128 82 -221 l 135 -89 q 217 -194 158 -161 q 338 -226 275 -226 q 483 -165 426 -226 q 539 13 539 -103 l 539 126 q 458 32 511 72 q 318 -8 406 -8 q 131 69 208 -8 q 53 293 53 147 q 119 524 53 417 q 329 631 186 631 q 539 521 476 631 l 539 618 l 738 618 l 738 539 m 539 267 l 539 374 q 485 499 539 451 q 356 547 432 547 q 205 472 251 547 q 158 300 158 397 q 210 131 158 186 q 339 75 263 75 q 482 136 428 75 q 539 267 536 197 z "},"ġ":{"ha":761,"x_min":53,"x_max":738,"o":"m 310 768 l 310 894 l 417 894 l 417 768 l 310 768 m 738 539 l 638 539 l 638 8 q 558 -224 638 -137 q 333 -310 478 -310 q 159 -265 236 -310 q 57 -128 82 -221 l 135 -89 q 217 -194 158 -161 q 338 -226 275 -226 q 483 -165 426 -226 q 539 13 539 -103 l 539 126 q 458 32 511 72 q 318 -8 406 -8 q 131 69 208 -8 q 53 293 53 147 q 119 524 53 417 q 329 631 186 631 q 539 521 476 631 l 539 618 l 738 618 l 738 539 m 539 267 l 539 374 q 485 499 539 451 q 356 547 432 547 q 205 472 251 547 q 158 300 158 397 q 210 131 158 186 q 339 75 263 75 q 482 136 428 75 q 539 267 536 197 z "},"ħ":{"ha":779,"x_min":24,"x_max":765,"o":"m 765 0 l 451 0 l 451 79 l 560 79 l 560 367 q 519 508 560 467 q 414 549 478 549 q 283 494 333 549 q 229 371 232 439 l 229 79 l 336 79 l 336 0 l 24 0 l 24 79 l 131 79 l 131 718 l 31 718 l 31 786 l 131 786 l 131 876 l 24 876 l 24 956 l 229 956 l 229 786 l 468 786 l 468 718 l 229 718 l 229 507 q 446 631 297 631 q 597 575 536 631 q 658 396 658 519 l 658 79 l 765 79 l 765 0 z "},"ĥ":{"ha":779,"x_min":-36,"x_max":765,"o":"m 331 1040 l 293 993 l 139 1110 l -1 993 l -36 1038 l 132 1204 l 163 1204 l 331 1040 m 765 0 l 451 0 l 451 79 l 560 79 l 560 367 q 519 508 560 467 q 414 549 478 549 q 283 494 333 549 q 229 371 232 439 l 229 79 l 336 79 l 336 0 l 24 0 l 24 79 l 131 79 l 131 876 l 24 876 l 24 956 l 229 956 l 229 507 q 446 631 297 631 q 597 575 536 631 q 658 396 658 519 l 658 79 l 765 79 l 765 0 z "},"í":{"ha":389,"x_min":44,"x_max":361,"o":"m 335 867 l 96 722 l 65 765 l 279 949 l 335 867 m 47 79 l 156 79 l 156 539 l 44 539 l 44 618 l 253 618 l 253 79 l 361 79 l 361 0 l 47 0 l 47 79 z "},"ì":{"ha":389,"x_min":-11,"x_max":361,"o":"m 258 765 l 229 722 l -11 867 l 44 949 l 258 765 m 47 79 l 156 79 l 156 539 l 44 539 l 44 618 l 253 618 l 253 79 l 361 79 l 361 0 l 47 0 l 47 79 z "},"î":{"ha":388,"x_min":1,"x_max":368,"o":"m 368 768 l 331 721 l 176 838 l 36 721 l 1 765 l 169 932 l 200 932 l 368 768 m 47 79 l 156 79 l 156 539 l 44 539 l 44 618 l 253 618 l 253 79 l 361 79 l 361 0 l 47 0 l 47 79 z "},"ï":{"ha":389,"x_min":3,"x_max":361,"o":"m 240 771 l 240 889 l 353 889 l 353 771 l 240 771 m 3 771 l 3 889 l 115 889 l 115 771 l 3 771 m 47 79 l 156 79 l 156 539 l 44 539 l 44 618 l 253 618 l 253 79 l 361 79 l 361 0 l 47 0 l 47 79 z "},"ĭ":{"ha":388,"x_min":28,"x_max":368,"o":"m 368 910 q 197 739 368 739 q 28 910 28 739 l 110 910 q 199 806 110 806 q 286 910 286 806 l 368 910 m 47 79 l 156 79 l 156 539 l 44 539 l 44 618 l 253 618 l 253 79 l 361 79 l 361 0 l 47 0 l 47 79 z "},"ı":{"ha":389,"x_min":44,"x_max":361,"o":"m 47 79 l 156 79 l 156 539 l 44 539 l 44 618 l 253 618 l 253 79 l 361 79 l 361 0 l 47 0 l 47 79 z "},"ī":{"ha":389,"x_min":11,"x_max":361,"o":"m 350 783 l 11 783 l 11 863 l 350 863 l 350 783 m 47 79 l 156 79 l 156 539 l 44 539 l 44 618 l 253 618 l 253 79 l 361 79 l 361 0 l 47 0 l 47 79 z "},"į":{"ha":388,"x_min":44,"x_max":361,"o":"m 146 778 l 146 904 l 251 904 l 251 778 l 146 778 m 314 -194 l 326 -262 q 217 -290 274 -290 q 111 -257 151 -290 q 71 -164 71 -224 q 99 -69 71 -111 q 171 0 128 -26 l 47 0 l 47 79 l 156 79 l 156 539 l 44 539 l 44 618 l 253 618 l 253 79 l 361 79 l 361 0 l 247 0 q 177 -67 196 -31 q 158 -137 158 -103 q 239 -215 158 -215 q 314 -194 279 -215 z "},"ĩ":{"ha":388,"x_min":-11,"x_max":383,"o":"m 383 897 q 349 805 374 842 q 276 768 325 768 q 183 795 222 768 q 106 822 144 822 q 65 809 86 822 q 35 763 44 796 l -11 779 q 22 858 -6 815 q 101 901 49 901 q 183 876 149 901 q 268 850 218 850 q 304 861 286 850 q 333 910 322 872 l 383 897 m 47 79 l 156 79 l 156 539 l 44 539 l 44 618 l 253 618 l 253 79 l 361 79 l 361 0 l 47 0 l 47 79 z "},"ĵ":{"ha":350,"x_min":-22,"x_max":344,"o":"m 344 768 l 307 721 l 153 838 l 13 721 l -22 765 l 146 932 l 176 932 l 344 768 m 10 618 l 246 618 l 246 -18 q 170 -258 246 -194 q -19 -311 94 -321 l -22 -240 q 56 -226 17 -240 q 121 -165 94 -212 q 147 -18 147 -118 l 147 539 l 10 539 l 10 618 z "},"ȷ":{"ha":350,"x_min":-22,"x_max":246,"o":"m 10 618 l 246 618 l 246 -18 q 170 -258 246 -194 q -19 -311 94 -321 l -22 -240 q 56 -226 17 -240 q 121 -165 94 -212 q 147 -18 147 -118 l 147 539 l 10 539 l 10 618 z "},"ķ":{"ha":722,"x_min":21,"x_max":707,"o":"m 707 0 l 415 0 l 415 79 l 508 79 l 339 289 l 229 289 l 229 79 l 318 79 l 318 0 l 24 0 l 24 79 l 131 79 l 131 876 l 21 876 l 21 956 l 229 956 l 229 364 l 340 364 l 482 539 l 386 539 l 386 618 l 675 618 l 675 539 l 581 539 l 415 335 l 619 79 l 707 79 l 707 0 m 410 -89 l 385 -303 l 306 -303 l 317 -89 l 410 -89 z "},"ĺ":{"ha":371,"x_min":22,"x_max":342,"o":"m 311 1049 l 38 990 l 22 1042 l 288 1143 l 311 1049 m 342 0 l 28 0 l 28 79 l 136 79 l 136 876 l 26 876 l 26 956 l 233 956 l 233 79 l 342 79 l 342 0 z "},"ľ":{"ha":383,"x_min":26,"x_max":436,"o":"m 342 0 l 28 0 l 28 79 l 136 79 l 136 876 l 26 876 l 26 956 l 233 956 l 233 79 l 342 79 l 342 0 m 436 946 l 406 635 l 326 635 l 344 946 l 436 946 z "},"ļ":{"ha":371,"x_min":26,"x_max":342,"o":"m 342 0 l 28 0 l 28 79 l 136 79 l 136 876 l 26 876 l 26 956 l 233 956 l 233 79 l 342 79 l 342 0 m 236 -89 l 211 -303 l 132 -303 l 143 -89 l 236 -89 z "},"ŀ":{"ha":394,"x_min":26,"x_max":425,"o":"m 342 0 l 28 0 l 28 79 l 136 79 l 136 876 l 26 876 l 26 956 l 233 956 l 233 79 l 342 79 l 342 0 m 318 407 l 318 533 l 425 533 l 425 407 l 318 407 z "},"ł":{"ha":379,"x_min":29,"x_max":351,"o":"m 29 336 l 29 418 l 140 469 l 140 876 l 31 876 l 31 956 l 238 956 l 238 514 l 351 568 l 351 486 l 238 432 l 238 79 l 346 79 l 346 0 l 32 0 l 32 79 l 140 79 l 140 388 l 29 336 z "},"ñ":{"ha":796,"x_min":39,"x_max":783,"o":"m 603 897 q 569 805 593 842 q 496 768 544 768 q 403 795 442 768 q 325 822 364 822 q 285 809 306 822 q 254 763 264 796 l 208 779 q 241 858 214 815 q 321 901 268 901 q 403 876 368 901 q 488 850 438 850 q 524 861 506 850 q 553 910 542 872 l 603 897 m 783 0 l 471 0 l 471 79 l 578 79 l 578 367 q 538 508 578 467 q 435 549 497 549 q 301 494 351 549 q 247 368 250 439 l 247 79 l 356 79 l 356 0 l 42 0 l 42 79 l 150 79 l 150 539 l 39 539 l 39 618 l 247 618 l 247 508 q 464 631 314 631 q 615 575 554 631 q 676 396 676 519 l 676 79 l 783 79 l 783 0 z "},"ń":{"ha":796,"x_min":39,"x_max":783,"o":"m 622 867 l 383 722 l 353 765 l 567 949 l 622 867 m 783 0 l 471 0 l 471 79 l 578 79 l 578 367 q 538 508 578 467 q 435 549 497 549 q 301 494 351 549 q 247 368 250 439 l 247 79 l 356 79 l 356 0 l 42 0 l 42 79 l 150 79 l 150 539 l 39 539 l 39 618 l 247 618 l 247 508 q 464 631 314 631 q 615 575 554 631 q 676 396 676 519 l 676 79 l 783 79 l 783 0 z "},"ŉ":{"ha":796,"x_min":39,"x_max":783,"o":"m 57 728 l 122 1001 l 211 1001 l 144 728 l 57 728 m 783 0 l 471 0 l 471 79 l 578 79 l 578 367 q 538 508 578 467 q 435 549 497 549 q 301 494 351 549 q 247 368 250 439 l 247 79 l 356 79 l 356 0 l 42 0 l 42 79 l 150 79 l 150 539 l 39 539 l 39 618 l 247 618 l 247 508 q 464 631 314 631 q 615 575 554 631 q 676 396 676 519 l 676 79 l 783 79 l 783 0 z "},"ň":{"ha":796,"x_min":39,"x_max":783,"o":"m 597 886 l 429 721 l 399 721 l 231 883 l 267 931 l 419 814 l 561 932 l 597 886 m 783 0 l 471 0 l 471 79 l 578 79 l 578 367 q 538 508 578 467 q 435 549 497 549 q 301 494 351 549 q 247 368 250 439 l 247 79 l 356 79 l 356 0 l 42 0 l 42 79 l 150 79 l 150 539 l 39 539 l 39 618 l 247 618 l 247 508 q 464 631 314 631 q 615 575 554 631 q 676 396 676 519 l 676 79 l 783 79 l 783 0 z "},"ņ":{"ha":796,"x_min":39,"x_max":783,"o":"m 783 0 l 471 0 l 471 79 l 578 79 l 578 367 q 538 508 578 467 q 435 549 497 549 q 301 494 351 549 q 247 368 250 439 l 247 79 l 356 79 l 356 0 l 42 0 l 42 79 l 150 79 l 150 539 l 39 539 l 39 618 l 247 618 l 247 508 q 464 631 314 631 q 615 575 554 631 q 676 396 676 519 l 676 79 l 783 79 l 783 0 m 468 -89 l 443 -303 l 364 -303 l 375 -89 l 468 -89 z "},"ṇ":{"ha":796,"x_min":39,"x_max":783,"o":"m 783 0 l 471 0 l 471 79 l 578 79 l 578 367 q 538 508 578 467 q 435 549 497 549 q 301 494 351 549 q 247 368 250 439 l 247 79 l 356 79 l 356 0 l 42 0 l 42 79 l 150 79 l 150 539 l 39 539 l 39 618 l 247 618 l 247 508 q 464 631 314 631 q 615 575 554 631 q 676 396 676 519 l 676 79 l 783 79 l 783 0 m 357 -242 l 357 -115 l 464 -115 l 464 -242 l 357 -242 z "},"ŋ":{"ha":769,"x_min":39,"x_max":676,"o":"m 42 79 l 150 79 l 150 539 l 39 539 l 39 618 l 247 618 l 247 507 q 464 631 315 631 q 615 575 554 631 q 676 396 676 519 l 676 -18 q 601 -258 676 -194 q 410 -311 525 -321 l 408 -240 q 486 -226 447 -240 q 551 -165 525 -212 q 578 -18 578 -118 l 578 367 q 538 508 578 467 q 433 549 497 549 q 299 492 350 549 q 247 364 247 436 l 247 79 l 356 79 l 356 0 l 42 0 l 42 79 z "},"ó":{"ha":713,"x_min":51,"x_max":661,"o":"m 571 867 l 332 722 l 301 765 l 515 949 l 571 867 m 661 310 q 578 78 661 169 q 351 -14 494 -14 q 131 75 211 -14 q 51 304 51 164 q 129 535 51 439 q 357 632 207 632 q 585 537 508 632 q 661 310 661 442 m 558 311 q 505 483 558 417 q 354 549 451 549 q 205 481 257 549 q 153 310 153 413 q 204 139 153 208 q 354 69 256 69 q 506 138 453 69 q 558 311 558 207 z "},"ò":{"ha":713,"x_min":51,"x_max":661,"o":"m 440 765 l 411 722 l 171 867 l 226 949 l 440 765 m 661 310 q 578 78 661 169 q 351 -14 494 -14 q 131 75 211 -14 q 51 304 51 164 q 129 535 51 439 q 357 632 207 632 q 585 537 508 632 q 661 310 661 442 m 558 311 q 505 483 558 417 q 354 549 451 549 q 205 481 257 549 q 153 310 153 413 q 204 139 153 208 q 354 69 256 69 q 506 138 453 69 q 558 311 558 207 z "},"ô":{"ha":713,"x_min":51,"x_max":661,"o":"m 544 768 l 507 721 l 353 838 l 213 721 l 178 765 l 346 932 l 376 932 l 544 768 m 661 310 q 578 78 661 169 q 351 -14 494 -14 q 131 75 211 -14 q 51 304 51 164 q 129 535 51 439 q 357 632 207 632 q 585 537 508 632 q 661 310 661 442 m 558 311 q 505 483 558 417 q 354 549 451 549 q 205 481 257 549 q 153 310 153 413 q 204 139 153 208 q 354 69 256 69 q 506 138 453 69 q 558 311 558 207 z "},"ö":{"ha":713,"x_min":51,"x_max":661,"o":"m 182 771 l 182 889 l 294 889 l 294 771 l 182 771 m 419 771 l 419 889 l 532 889 l 532 771 l 419 771 m 661 310 q 578 78 661 169 q 351 -14 494 -14 q 131 75 211 -14 q 51 304 51 164 q 129 535 51 439 q 357 632 207 632 q 585 537 508 632 q 661 310 661 442 m 558 311 q 505 483 558 417 q 354 549 451 549 q 205 481 257 549 q 153 310 153 413 q 204 139 153 208 q 354 69 256 69 q 506 138 453 69 q 558 311 558 207 z "},"õ":{"ha":713,"x_min":51,"x_max":661,"o":"m 550 897 q 516 805 540 842 q 443 768 492 768 q 350 795 389 768 q 272 822 311 822 q 232 809 253 822 q 201 763 211 796 l 156 779 q 188 858 161 815 q 268 901 215 901 q 350 876 315 901 q 435 850 385 850 q 471 861 453 850 q 500 910 489 872 l 550 897 m 661 310 q 578 78 661 169 q 351 -14 494 -14 q 131 75 211 -14 q 51 304 51 164 q 129 535 51 439 q 357 632 207 632 q 585 537 508 632 q 661 310 661 442 m 558 311 q 505 483 558 417 q 354 549 451 549 q 205 481 257 549 q 153 310 153 413 q 204 139 153 208 q 354 69 256 69 q 506 138 453 69 q 558 311 558 207 z "},"ŏ":{"ha":713,"x_min":51,"x_max":661,"o":"m 533 910 q 363 739 533 739 q 193 910 193 739 l 275 910 q 364 806 275 806 q 451 910 451 806 l 533 910 m 661 310 q 578 78 661 169 q 351 -14 494 -14 q 131 75 211 -14 q 51 304 51 164 q 129 535 51 439 q 357 632 207 632 q 585 537 508 632 q 661 310 661 442 m 558 311 q 505 483 558 417 q 354 549 451 549 q 205 481 257 549 q 153 310 153 413 q 204 139 153 208 q 354 69 256 69 q 506 138 453 69 q 558 311 558 207 z "},"ő":{"ha":713,"x_min":51,"x_max":661,"o":"m 433 942 l 258 721 l 215 751 l 354 997 l 433 942 m 650 867 l 410 722 l 381 765 l 594 949 l 650 867 m 661 310 q 578 78 661 169 q 351 -14 494 -14 q 131 75 211 -14 q 51 304 51 164 q 129 535 51 439 q 357 632 207 632 q 585 537 508 632 q 661 310 661 442 m 558 311 q 505 483 558 417 q 354 549 451 549 q 205 481 257 549 q 153 310 153 413 q 204 139 153 208 q 354 69 256 69 q 506 138 453 69 q 558 311 558 207 z "},"ō":{"ha":713,"x_min":51,"x_max":661,"o":"m 525 783 l 186 783 l 186 863 l 525 863 l 525 783 m 661 310 q 578 78 661 169 q 351 -14 494 -14 q 131 75 211 -14 q 51 304 51 164 q 129 535 51 439 q 357 632 207 632 q 585 537 508 632 q 661 310 661 442 m 558 311 q 505 483 558 417 q 354 549 451 549 q 205 481 257 549 q 153 310 153 413 q 204 139 153 208 q 354 69 256 69 q 506 138 453 69 q 558 311 558 207 z "},"ø":{"ha":717,"x_min":53,"x_max":664,"o":"m 664 310 q 580 77 664 168 q 353 -14 496 -14 q 171 40 247 -14 l 138 0 l 53 0 l 124 85 q 53 304 53 171 q 131 535 53 439 q 360 631 208 631 q 542 576 465 631 l 578 618 l 664 618 l 590 532 q 664 310 664 443 m 157 310 q 192 164 157 224 l 481 504 q 357 546 431 546 q 208 479 260 546 q 157 310 157 413 m 558 311 q 524 454 558 393 l 233 113 q 357 71 282 71 q 507 140 456 71 q 558 311 558 208 z "},"ǿ":{"ha":717,"x_min":53,"x_max":664,"o":"m 599 867 l 358 722 l 329 765 l 543 949 l 599 867 m 664 310 q 580 77 664 168 q 353 -14 496 -14 q 171 40 247 -14 l 138 0 l 53 0 l 124 85 q 53 304 53 171 q 131 535 53 439 q 360 631 208 631 q 542 576 465 631 l 578 618 l 664 618 l 590 532 q 664 310 664 443 m 157 310 q 192 164 157 224 l 481 504 q 357 546 431 546 q 208 479 260 546 q 157 310 157 413 m 558 311 q 524 454 558 393 l 233 113 q 357 71 282 71 q 507 140 456 71 q 558 311 558 208 z "},"ŕ":{"ha":583,"x_min":39,"x_max":564,"o":"m 564 867 l 325 722 l 294 765 l 508 949 l 564 867 m 394 629 q 500 597 461 629 l 524 442 l 444 432 l 421 538 q 374 546 397 546 q 283 501 319 546 q 247 383 247 456 l 247 79 l 390 79 l 390 0 l 42 0 l 42 79 l 150 79 l 150 539 l 39 539 l 39 618 l 242 618 l 242 507 q 301 594 260 558 q 394 629 342 629 z "},"ř":{"ha":583,"x_min":39,"x_max":524,"o":"m 522 886 l 354 721 l 324 721 l 156 883 l 192 931 l 344 814 l 486 932 l 522 886 m 394 629 q 500 597 461 629 l 524 442 l 444 432 l 421 538 q 374 546 397 546 q 283 501 319 546 q 247 383 247 456 l 247 79 l 390 79 l 390 0 l 42 0 l 42 79 l 150 79 l 150 539 l 39 539 l 39 618 l 242 618 l 242 507 q 301 594 260 558 q 394 629 342 629 z "},"ŗ":{"ha":583,"x_min":39,"x_max":524,"o":"m 394 629 q 500 597 461 629 l 524 442 l 444 432 l 421 538 q 374 546 397 546 q 283 501 319 546 q 247 383 247 456 l 247 79 l 390 79 l 390 0 l 42 0 l 42 79 l 150 79 l 150 539 l 39 539 l 39 618 l 242 618 l 242 507 q 301 594 260 558 q 394 629 342 629 m 244 -89 l 219 -303 l 140 -303 l 151 -89 l 244 -89 z "},"ś":{"ha":608,"x_min":57,"x_max":554,"o":"m 507 867 l 268 722 l 238 765 l 451 949 l 507 867 m 554 179 q 478 38 554 89 q 292 -14 403 -14 q 162 3 226 -14 q 57 47 97 21 l 76 188 l 154 179 l 150 97 q 288 67 214 67 q 403 92 353 67 q 454 171 454 118 q 415 243 454 222 q 319 274 376 264 q 203 297 261 283 q 106 345 144 311 q 67 451 67 379 q 139 590 67 550 q 296 631 211 631 q 416 614 360 631 q 511 574 472 597 l 526 429 l 446 419 l 431 519 q 304 550 372 550 q 208 528 246 550 q 171 458 171 506 q 210 390 171 410 q 306 360 249 369 q 419 338 363 351 q 515 288 476 324 q 554 179 554 253 z "},"ş":{"ha":608,"x_min":57,"x_max":554,"o":"m 469 -174 q 425 -263 469 -236 q 319 -290 381 -290 q 186 -249 236 -290 l 210 -192 q 314 -224 251 -224 q 385 -167 385 -224 q 361 -122 385 -132 q 304 -111 338 -111 l 263 -111 l 263 -12 q 147 8 203 -10 q 57 47 92 25 l 76 188 l 154 179 l 150 97 q 288 67 214 67 q 403 92 353 67 q 454 171 454 118 q 415 243 454 222 q 319 274 376 264 q 203 297 261 283 q 106 345 144 311 q 67 451 67 379 q 139 590 67 550 q 296 631 211 631 q 416 614 360 631 q 511 574 472 597 l 526 429 l 446 419 l 431 519 q 304 550 372 550 q 208 528 246 550 q 171 458 171 506 q 210 390 171 410 q 306 360 249 369 q 419 338 363 351 q 515 288 476 324 q 554 179 554 253 q 492 47 554 97 q 335 -11 429 -3 l 335 -65 l 346 -65 q 440 -97 411 -65 q 469 -174 469 -128 z "},"š":{"ha":608,"x_min":57,"x_max":554,"o":"m 488 886 l 319 721 l 289 721 l 121 883 l 157 931 l 310 814 l 451 932 l 488 886 m 554 179 q 478 38 554 89 q 292 -14 403 -14 q 162 3 226 -14 q 57 47 97 21 l 76 188 l 154 179 l 150 97 q 288 67 214 67 q 403 92 353 67 q 454 171 454 118 q 415 243 454 222 q 319 274 376 264 q 203 297 261 283 q 106 345 144 311 q 67 451 67 379 q 139 590 67 550 q 296 631 211 631 q 416 614 360 631 q 511 574 472 597 l 526 429 l 446 419 l 431 519 q 304 550 372 550 q 208 528 246 550 q 171 458 171 506 q 210 390 171 410 q 306 360 249 369 q 419 338 363 351 q 515 288 476 324 q 554 179 554 253 z "},"ŝ":{"ha":608,"x_min":57,"x_max":554,"o":"m 494 768 l 457 721 l 303 838 l 163 721 l 128 765 l 296 932 l 326 932 l 494 768 m 554 179 q 478 38 554 89 q 292 -14 403 -14 q 162 3 226 -14 q 57 47 97 21 l 76 188 l 154 179 l 150 97 q 288 67 214 67 q 403 92 353 67 q 454 171 454 118 q 415 243 454 222 q 319 274 376 264 q 203 297 261 283 q 106 345 144 311 q 67 451 67 379 q 139 590 67 550 q 296 631 211 631 q 416 614 360 631 q 511 574 472 597 l 526 429 l 446 419 l 431 519 q 304 550 372 550 q 208 528 246 550 q 171 458 171 506 q 210 390 171 410 q 306 360 249 369 q 419 338 363 351 q 515 288 476 324 q 554 179 554 253 z "},"ṣ":{"ha":608,"x_min":57,"x_max":554,"o":"m 554 179 q 478 38 554 89 q 292 -14 403 -14 q 162 3 226 -14 q 57 47 97 21 l 76 188 l 154 179 l 150 97 q 288 67 214 67 q 403 92 353 67 q 454 171 454 118 q 415 243 454 222 q 319 274 376 264 q 203 297 261 283 q 106 345 144 311 q 67 451 67 379 q 139 590 67 550 q 296 631 211 631 q 416 614 360 631 q 511 574 472 597 l 526 429 l 446 419 l 431 519 q 304 550 372 550 q 208 528 246 550 q 171 458 171 506 q 210 390 171 410 q 306 360 249 369 q 419 338 363 351 q 515 288 476 324 q 554 179 554 253 m 250 -242 l 250 -115 l 357 -115 l 357 -242 l 250 -242 z "},"ș":{"ha":608,"x_min":57,"x_max":554,"o":"m 554 179 q 478 38 554 89 q 292 -14 403 -14 q 162 3 226 -14 q 57 47 97 21 l 76 188 l 154 179 l 150 97 q 288 67 214 67 q 403 92 353 67 q 454 171 454 118 q 415 243 454 222 q 319 274 376 264 q 203 297 261 283 q 106 345 144 311 q 67 451 67 379 q 139 590 67 550 q 296 631 211 631 q 416 614 360 631 q 511 574 472 597 l 526 429 l 446 419 l 431 519 q 304 550 372 550 q 208 528 246 550 q 171 458 171 506 q 210 390 171 410 q 306 360 249 369 q 419 338 363 351 q 515 288 476 324 q 554 179 554 253 m 356 -89 l 331 -303 l 251 -303 l 263 -89 l 356 -89 z "},"ß":{"ha":906,"x_min":36,"x_max":879,"o":"m 879 178 q 807 37 879 88 q 629 -14 735 -14 q 491 2 561 -14 q 381 47 421 18 l 399 188 l 478 179 l 474 101 q 543 74 503 81 q 622 67 583 67 q 733 92 686 67 q 779 169 779 117 q 740 243 779 221 q 642 276 700 265 q 527 299 585 286 q 430 344 469 313 q 390 444 390 376 q 436 558 390 519 q 541 621 482 596 q 646 676 600 646 q 692 764 692 706 q 635 855 692 822 q 481 888 579 888 q 292 826 343 888 q 242 675 242 764 l 242 0 l 36 0 l 36 79 l 143 79 l 143 539 l 54 539 l 54 618 l 143 618 l 143 682 q 234 892 143 815 q 488 969 325 969 q 713 913 635 969 q 790 769 790 856 q 746 660 790 699 q 643 595 701 621 q 540 539 585 569 q 496 456 496 508 q 535 392 496 411 q 631 364 574 374 q 744 340 688 354 q 840 288 801 325 q 879 178 879 251 z "},"ŧ":{"ha":518,"x_min":22,"x_max":510,"o":"m 32 319 l 32 393 l 122 393 l 122 540 l 22 540 l 22 618 l 122 618 l 122 817 l 219 817 l 219 618 l 461 618 l 461 540 l 219 540 l 219 393 l 447 393 l 447 319 l 219 319 l 219 194 q 243 105 219 139 q 324 71 267 71 q 391 93 360 71 q 436 190 422 115 l 510 167 q 314 -14 485 -14 q 172 39 221 -14 q 122 182 122 92 l 122 319 l 32 319 z "},"ť":{"ha":515,"x_min":21,"x_max":508,"o":"m 453 1057 l 422 746 l 343 746 l 361 1057 l 453 1057 m 508 167 q 313 -14 483 -14 q 170 39 219 -14 q 121 182 121 92 l 121 540 l 21 540 l 21 618 l 121 618 l 121 817 l 218 817 l 218 618 l 460 618 l 460 540 l 218 540 l 218 194 q 242 105 218 139 q 322 71 267 71 q 390 93 358 71 q 435 190 421 115 l 508 167 z "},"ț":{"ha":515,"x_min":21,"x_max":508,"o":"m 508 167 q 313 -14 483 -14 q 170 39 219 -14 q 121 182 121 92 l 121 540 l 21 540 l 21 618 l 121 618 l 121 817 l 218 817 l 218 618 l 460 618 l 460 540 l 218 540 l 218 194 q 242 105 218 139 q 322 71 267 71 q 390 93 358 71 q 435 190 421 115 l 508 167 m 368 -89 l 343 -303 l 264 -303 l 275 -89 l 368 -89 z "},"ţ":{"ha":515,"x_min":21,"x_max":508,"o":"m 508 167 q 313 -14 483 -14 q 170 39 219 -14 q 121 182 121 92 l 121 540 l 21 540 l 21 618 l 121 618 l 121 817 l 218 817 l 218 618 l 460 618 l 460 540 l 218 540 l 218 194 q 242 105 218 139 q 322 71 267 71 q 390 93 358 71 q 435 190 421 115 l 508 167 m 368 -89 l 343 -303 l 264 -303 l 275 -89 l 368 -89 z "},"ú":{"ha":781,"x_min":13,"x_max":758,"o":"m 585 867 l 346 722 l 315 765 l 529 949 l 585 867 m 758 0 l 550 0 l 550 117 q 465 22 521 58 q 335 -14 408 -14 q 183 42 244 -14 q 121 222 121 99 l 121 539 l 13 539 l 13 618 l 218 618 l 218 250 q 260 110 218 150 q 367 69 301 69 q 497 129 446 69 q 550 256 547 189 l 550 539 l 421 539 l 421 618 l 647 618 l 647 79 l 758 79 l 758 0 z "},"ù":{"ha":781,"x_min":13,"x_max":758,"o":"m 431 765 l 401 722 l 161 867 l 217 949 l 431 765 m 758 0 l 550 0 l 550 117 q 465 22 521 58 q 335 -14 408 -14 q 183 42 244 -14 q 121 222 121 99 l 121 539 l 13 539 l 13 618 l 218 618 l 218 250 q 260 110 218 150 q 367 69 301 69 q 497 129 446 69 q 550 256 547 189 l 550 539 l 421 539 l 421 618 l 647 618 l 647 79 l 758 79 l 758 0 z "},"û":{"ha":781,"x_min":13,"x_max":758,"o":"m 557 768 l 519 721 l 365 838 l 225 721 l 190 765 l 358 932 l 389 932 l 557 768 m 758 0 l 550 0 l 550 117 q 465 22 521 58 q 335 -14 408 -14 q 183 42 244 -14 q 121 222 121 99 l 121 539 l 13 539 l 13 618 l 218 618 l 218 250 q 260 110 218 150 q 367 69 301 69 q 497 129 446 69 q 550 256 547 189 l 550 539 l 421 539 l 421 618 l 647 618 l 647 79 l 758 79 l 758 0 z "},"ü":{"ha":781,"x_min":13,"x_max":758,"o":"m 185 771 l 185 889 l 297 889 l 297 771 l 185 771 m 422 771 l 422 889 l 535 889 l 535 771 l 422 771 m 758 0 l 550 0 l 550 117 q 465 22 521 58 q 335 -14 408 -14 q 183 42 244 -14 q 121 222 121 99 l 121 539 l 13 539 l 13 618 l 218 618 l 218 250 q 260 110 218 150 q 367 69 301 69 q 497 129 446 69 q 550 256 547 189 l 550 539 l 421 539 l 421 618 l 647 618 l 647 79 l 758 79 l 758 0 z "},"ŭ":{"ha":781,"x_min":13,"x_max":758,"o":"m 538 910 q 367 739 538 739 q 197 910 197 739 l 279 910 q 368 806 279 806 q 456 910 456 806 l 538 910 m 758 0 l 550 0 l 550 117 q 465 22 521 58 q 335 -14 408 -14 q 183 42 244 -14 q 121 222 121 99 l 121 539 l 13 539 l 13 618 l 218 618 l 218 250 q 260 110 218 150 q 367 69 301 69 q 497 129 446 69 q 550 256 547 189 l 550 539 l 421 539 l 421 618 l 647 618 l 647 79 l 758 79 l 758 0 z "},"ű":{"ha":781,"x_min":13,"x_max":758,"o":"m 436 942 l 261 721 l 218 751 l 357 997 l 436 942 m 653 867 l 413 722 l 383 765 l 597 949 l 653 867 m 758 0 l 550 0 l 550 117 q 465 22 521 58 q 335 -14 408 -14 q 183 42 244 -14 q 121 222 121 99 l 121 539 l 13 539 l 13 618 l 218 618 l 218 250 q 260 110 218 150 q 367 69 301 69 q 497 129 446 69 q 550 256 547 189 l 550 539 l 421 539 l 421 618 l 647 618 l 647 79 l 758 79 l 758 0 z "},"ū":{"ha":781,"x_min":13,"x_max":758,"o":"m 543 783 l 204 783 l 204 863 l 543 863 l 543 783 m 758 0 l 550 0 l 550 117 q 465 22 521 58 q 335 -14 408 -14 q 183 42 244 -14 q 121 222 121 99 l 121 539 l 13 539 l 13 618 l 218 618 l 218 250 q 260 110 218 150 q 367 69 301 69 q 497 129 446 69 q 550 256 547 189 l 550 539 l 421 539 l 421 618 l 647 618 l 647 79 l 758 79 l 758 0 z "},"ų":{"ha":781,"x_min":13,"x_max":769,"o":"m 758 0 l 690 0 q 621 -67 640 -31 q 601 -137 601 -103 q 682 -215 601 -215 q 757 -194 722 -215 l 769 -262 q 660 -290 718 -290 q 555 -257 594 -290 q 515 -164 515 -224 q 544 -69 515 -111 q 615 0 572 -26 l 550 0 l 550 117 q 465 22 521 58 q 335 -14 408 -14 q 183 42 244 -14 q 121 222 121 99 l 121 539 l 13 539 l 13 618 l 218 618 l 218 250 q 260 110 218 150 q 367 69 301 69 q 497 129 446 69 q 550 256 547 189 l 550 539 l 421 539 l 421 618 l 647 618 l 647 79 l 758 79 l 758 0 z "},"ů":{"ha":781,"x_min":13,"x_max":758,"o":"m 504 843 q 470 750 504 786 q 367 714 436 714 q 231 842 231 714 q 267 933 231 897 q 368 969 303 969 q 472 934 439 969 q 504 843 504 899 m 436 844 q 421 893 436 872 q 367 914 406 914 q 315 893 331 914 q 299 842 299 872 q 367 769 299 769 q 419 792 403 769 q 436 844 436 814 m 758 0 l 550 0 l 550 117 q 465 22 521 58 q 335 -14 408 -14 q 183 42 244 -14 q 121 222 121 99 l 121 539 l 13 539 l 13 618 l 218 618 l 218 250 q 260 110 218 150 q 367 69 301 69 q 497 129 446 69 q 550 256 547 189 l 550 539 l 421 539 l 421 618 l 647 618 l 647 79 l 758 79 l 758 0 z "},"ũ":{"ha":781,"x_min":13,"x_max":758,"o":"m 576 897 q 542 805 567 842 q 469 768 517 768 q 376 795 415 768 q 299 822 338 822 q 259 809 279 822 q 228 763 239 796 l 182 779 q 215 858 188 815 q 294 901 242 901 q 376 876 342 901 q 461 850 411 850 q 498 861 481 850 q 526 910 515 872 l 576 897 m 758 0 l 550 0 l 550 117 q 465 22 521 58 q 335 -14 408 -14 q 183 42 244 -14 q 121 222 121 99 l 121 539 l 13 539 l 13 618 l 218 618 l 218 250 q 260 110 218 150 q 367 69 301 69 q 497 129 446 69 q 550 256 547 189 l 550 539 l 421 539 l 421 618 l 647 618 l 647 79 l 758 79 l 758 0 z "},"ǔ":{"ha":781,"x_min":13,"x_max":758,"o":"m 556 888 l 388 722 l 357 722 l 189 885 l 225 932 l 378 815 l 519 933 l 556 888 m 758 0 l 550 0 l 550 117 q 465 22 521 58 q 335 -14 408 -14 q 183 42 244 -14 q 121 222 121 99 l 121 539 l 13 539 l 13 618 l 218 618 l 218 250 q 260 110 218 150 q 367 69 301 69 q 497 129 446 69 q 550 256 547 189 l 550 539 l 421 539 l 421 618 l 647 618 l 647 79 l 758 79 l 758 0 z "},"ẃ":{"ha":1063,"x_min":13,"x_max":1050,"o":"m 765 867 l 526 722 l 496 765 l 710 949 l 765 867 m 1050 539 l 979 539 l 797 0 l 722 0 l 533 472 l 526 472 l 342 0 l 269 0 l 81 539 l 13 539 l 13 618 l 304 618 l 304 539 l 186 539 l 315 149 l 322 149 l 506 618 l 571 618 l 764 149 l 771 149 l 885 539 l 772 539 l 772 618 l 1050 618 l 1050 539 z "},"ŵ":{"ha":1063,"x_min":13,"x_max":1050,"o":"m 724 768 l 686 721 l 532 838 l 392 721 l 357 765 l 525 932 l 556 932 l 724 768 m 1050 539 l 979 539 l 797 0 l 722 0 l 533 472 l 526 472 l 342 0 l 269 0 l 81 539 l 13 539 l 13 618 l 304 618 l 304 539 l 186 539 l 315 149 l 322 149 l 506 618 l 571 618 l 764 149 l 771 149 l 885 539 l 772 539 l 772 618 l 1050 618 l 1050 539 z "},"ẅ":{"ha":1063,"x_min":13,"x_max":1050,"o":"m 367 771 l 367 889 l 479 889 l 479 771 l 367 771 m 604 771 l 604 889 l 717 889 l 717 771 l 604 771 m 1050 539 l 979 539 l 797 0 l 722 0 l 533 472 l 526 472 l 342 0 l 269 0 l 81 539 l 13 539 l 13 618 l 304 618 l 304 539 l 186 539 l 315 149 l 322 149 l 506 618 l 571 618 l 764 149 l 771 149 l 885 539 l 772 539 l 772 618 l 1050 618 l 1050 539 z "},"ẁ":{"ha":1063,"x_min":13,"x_max":1050,"o":"m 586 765 l 557 722 l 317 867 l 372 949 l 586 765 m 1050 539 l 979 539 l 797 0 l 722 0 l 533 472 l 526 472 l 342 0 l 269 0 l 81 539 l 13 539 l 13 618 l 304 618 l 304 539 l 186 539 l 315 149 l 322 149 l 506 618 l 571 618 l 764 149 l 771 149 l 885 539 l 772 539 l 772 618 l 1050 618 l 1050 539 z "},"ÿ":{"ha":710,"x_min":11,"x_max":697,"o":"m 199 771 l 199 889 l 311 889 l 311 771 l 199 771 m 436 771 l 436 889 l 549 889 l 549 771 l 436 771 m 697 539 l 624 539 l 406 0 l 322 -217 l 428 -217 l 428 -296 l 114 -296 l 114 -217 l 229 -217 l 310 1 l 85 539 l 11 539 l 11 618 l 297 618 l 297 539 l 189 539 l 363 124 l 371 124 l 525 539 l 425 539 l 425 618 l 697 618 l 697 539 z "},"ŷ":{"ha":710,"x_min":11,"x_max":697,"o":"m 551 768 l 514 721 l 360 838 l 219 721 l 185 765 l 353 932 l 383 932 l 551 768 m 697 539 l 624 539 l 406 0 l 322 -217 l 428 -217 l 428 -296 l 114 -296 l 114 -217 l 229 -217 l 310 1 l 85 539 l 11 539 l 11 618 l 297 618 l 297 539 l 189 539 l 363 124 l 371 124 l 525 539 l 425 539 l 425 618 l 697 618 l 697 539 z "},"ȳ":{"ha":710,"x_min":11,"x_max":697,"o":"m 533 783 l 194 783 l 194 863 l 533 863 l 533 783 m 697 539 l 624 539 l 406 0 l 322 -217 l 428 -217 l 428 -296 l 114 -296 l 114 -217 l 229 -217 l 310 1 l 85 539 l 11 539 l 11 618 l 297 618 l 297 539 l 189 539 l 363 124 l 371 124 l 525 539 l 425 539 l 425 618 l 697 618 l 697 539 z "},"ỳ":{"ha":710,"x_min":11,"x_max":697,"o":"m 438 765 l 408 722 l 168 867 l 224 949 l 438 765 m 697 539 l 624 539 l 406 0 l 322 -217 l 428 -217 l 428 -296 l 114 -296 l 114 -217 l 229 -217 l 310 1 l 85 539 l 11 539 l 11 618 l 297 618 l 297 539 l 189 539 l 363 124 l 371 124 l 525 539 l 425 539 l 425 618 l 697 618 l 697 539 z "},"ý":{"ha":710,"x_min":11,"x_max":697,"o":"m 563 867 l 324 722 l 293 765 l 507 949 l 563 867 m 697 539 l 624 539 l 406 0 l 322 -217 l 428 -217 l 428 -296 l 114 -296 l 114 -217 l 229 -217 l 310 1 l 85 539 l 11 539 l 11 618 l 297 618 l 297 539 l 189 539 l 363 124 l 371 124 l 525 539 l 425 539 l 425 618 l 697 618 l 697 539 z "},"ź":{"ha":644,"x_min":50,"x_max":607,"o":"m 521 867 l 282 722 l 251 765 l 465 949 l 521 867 m 574 0 l 54 0 l 50 60 l 439 539 l 147 539 l 129 415 l 51 425 l 68 618 l 565 618 l 569 560 l 178 79 l 496 79 l 528 204 l 607 192 l 574 0 z "},"ž":{"ha":644,"x_min":50,"x_max":607,"o":"m 514 886 l 346 721 l 315 721 l 147 883 l 183 931 l 336 814 l 478 932 l 514 886 m 574 0 l 54 0 l 50 60 l 439 539 l 147 539 l 129 415 l 51 425 l 68 618 l 565 618 l 569 560 l 178 79 l 496 79 l 528 204 l 607 192 l 574 0 z "},"ż":{"ha":644,"x_min":50,"x_max":607,"o":"m 276 768 l 276 894 l 383 894 l 383 768 l 276 768 m 574 0 l 54 0 l 50 60 l 439 539 l 147 539 l 129 415 l 51 425 l 68 618 l 565 618 l 569 560 l 178 79 l 496 79 l 528 204 l 607 192 l 574 0 z "},"þ":{"ha":728,"x_min":-19,"x_max":676,"o":"m -15 -217 l 92 -217 l 92 876 l -19 876 l -19 956 l 190 956 l 190 488 q 272 588 218 544 q 413 631 325 631 q 602 550 528 631 q 676 326 676 469 q 648 166 676 244 q 557 37 619 88 q 394 -14 494 -14 q 190 90 251 -14 l 190 -217 l 335 -217 l 335 -296 l -15 -296 l -15 -217 m 378 71 q 524 145 476 71 q 572 318 572 219 q 519 488 572 429 q 390 546 467 546 q 248 478 303 546 q 190 342 193 411 l 190 254 q 244 124 190 176 q 378 71 297 71 z "},"ə":{"ha":653,"x_min":49,"x_max":600,"o":"m 49 439 q 128 574 61 518 q 308 631 194 631 q 519 549 439 631 q 600 317 600 467 q 524 79 600 172 q 317 -14 447 -14 q 122 67 189 -14 q 54 257 56 147 q 63 331 54 293 l 497 331 q 301 547 489 547 q 186 513 228 547 q 131 421 144 478 l 49 439 m 157 258 q 190 128 150 189 q 319 67 229 67 q 446 124 406 67 q 496 258 486 181 l 157 258 z "},"ð":{"ha":728,"x_min":51,"x_max":660,"o":"m 218 731 l 299 828 q 186 897 242 867 l 226 969 q 290 933 258 951 q 351 893 322 914 l 418 974 l 472 936 l 404 853 q 589 638 518 761 q 660 357 660 514 l 660 310 q 577 77 660 168 q 351 -14 494 -14 q 131 75 211 -14 q 51 304 51 164 q 132 538 51 444 q 344 631 213 631 q 446 611 403 631 q 521 564 489 592 q 351 788 472 690 l 274 692 l 218 731 m 350 546 q 206 479 256 546 q 156 310 156 413 q 206 140 156 210 q 356 71 256 71 q 504 138 453 71 q 556 306 556 204 l 556 365 q 499 484 553 422 q 350 546 444 546 z "},"ĳ":{"ha":739,"x_min":44,"x_max":633,"o":"m 146 778 l 146 904 l 251 904 l 251 778 l 146 778 m 528 778 l 528 904 l 633 904 l 633 778 l 528 778 m 361 0 l 47 0 l 47 79 l 156 79 l 156 539 l 44 539 l 44 618 l 253 618 l 253 79 l 361 79 l 361 0 m 633 -18 q 558 -258 633 -194 q 368 -311 483 -321 l 365 -236 q 442 -224 403 -236 q 508 -165 482 -211 q 535 -18 535 -118 l 535 539 l 397 539 l 397 618 l 633 618 l 633 -18 z "},"œ":{"ha":1157,"x_min":51,"x_max":1108,"o":"m 1108 178 q 1030 42 1096 99 q 849 -14 964 -14 q 604 110 681 -14 q 351 -14 519 -14 q 131 75 211 -14 q 51 304 51 164 q 129 535 51 439 q 357 632 207 632 q 509 597 446 632 q 608 503 572 561 q 840 631 686 631 q 1034 550 967 631 q 1103 360 1101 469 q 1094 286 1103 324 l 660 286 l 660 279 q 856 69 672 69 q 969 104 928 69 q 1026 196 1011 139 l 1108 178 m 1000 358 q 967 489 1007 428 q 838 550 928 550 q 712 493 753 550 q 661 358 671 436 l 1000 358 m 557 329 q 500 488 553 428 q 354 549 447 549 q 205 481 257 549 q 153 310 153 413 q 204 139 153 208 q 354 69 256 69 q 498 129 446 69 q 557 282 550 189 l 557 329 z "},"ǆ":{"ha":1408,"x_min":53,"x_max":1369,"o":"m 743 0 l 539 0 l 539 125 q 456 28 508 69 q 318 -14 403 -14 q 126 67 199 -14 q 53 293 53 149 q 117 524 53 417 q 332 631 181 631 q 539 518 476 631 l 539 876 l 389 876 l 389 956 l 636 956 l 636 79 l 743 79 l 743 0 m 1279 886 l 1111 721 l 1081 721 l 913 883 l 949 931 l 1101 814 l 1243 932 l 1279 886 m 1336 0 l 817 0 l 813 60 l 1201 539 l 910 539 l 892 415 l 814 425 l 831 618 l 1328 618 l 1332 560 l 940 79 l 1258 79 l 1290 204 l 1369 192 l 1336 0 m 539 274 l 539 372 q 482 499 536 450 q 354 547 428 547 q 203 472 251 547 q 156 300 156 397 q 209 128 156 186 q 343 69 263 69 q 481 137 426 69 q 539 274 536 204 z "},"ǉ":{"ha":719,"x_min":26,"x_max":615,"o":"m 342 0 l 28 0 l 28 79 l 136 79 l 136 876 l 26 876 l 26 956 l 233 956 l 233 79 l 342 79 l 342 0 m 510 778 l 510 904 l 615 904 l 615 778 l 510 778 m 615 -18 q 540 -258 615 -194 q 350 -311 464 -321 l 347 -236 q 425 -224 386 -236 q 490 -165 464 -211 q 517 -18 517 -118 l 517 539 l 379 539 l 379 618 l 615 618 l 615 -18 z "},"ǌ":{"ha":1144,"x_min":39,"x_max":1040,"o":"m 935 778 l 935 904 l 1040 904 l 1040 778 l 935 778 m 783 0 l 471 0 l 471 79 l 578 79 l 578 367 q 538 508 578 467 q 435 549 497 549 q 301 494 351 549 q 247 368 250 439 l 247 79 l 356 79 l 356 0 l 42 0 l 42 79 l 150 79 l 150 539 l 39 539 l 39 618 l 247 618 l 247 508 q 464 631 314 631 q 615 575 554 631 q 676 396 676 519 l 676 79 l 783 79 l 783 0 m 1040 -18 q 965 -258 1040 -194 q 775 -311 889 -321 l 772 -236 q 850 -224 811 -236 q 915 -165 889 -211 q 942 -18 942 -118 l 942 539 l 804 539 l 804 618 l 1040 618 l 1040 -18 z "},"ǳ":{"ha":1408,"x_min":53,"x_max":1369,"o":"m 743 0 l 539 0 l 539 125 q 456 28 508 69 q 318 -14 403 -14 q 126 67 199 -14 q 53 293 53 149 q 117 524 53 417 q 332 631 181 631 q 539 518 476 631 l 539 876 l 389 876 l 389 956 l 636 956 l 636 79 l 743 79 l 743 0 m 1336 0 l 817 0 l 813 60 l 1201 539 l 910 539 l 892 415 l 814 425 l 831 618 l 1328 618 l 1332 560 l 940 79 l 1258 79 l 1290 204 l 1369 192 l 1336 0 m 539 274 l 539 372 q 482 499 536 450 q 354 547 428 547 q 203 472 251 547 q 156 300 156 397 q 209 128 156 186 q 343 69 263 69 q 481 137 426 69 q 539 274 536 204 z "},",":{"ha":279,"x_min":33,"x_max":203,"o":"m 33 -142 l 106 158 l 203 158 l 129 -142 l 33 -142 z "},".":{"ha":293,"x_min":79,"x_max":214,"o":"m 79 0 l 79 150 l 214 150 l 214 0 l 79 0 z "},"…":{"ha":813,"x_min":79,"x_max":733,"o":"m 79 0 l 79 150 l 214 150 l 214 0 l 79 0 m 338 0 l 338 150 l 472 150 l 472 0 l 338 0 m 597 0 l 597 150 l 733 150 l 733 0 l 597 0 z "},":":{"ha":311,"x_min":90,"x_max":221,"o":"m 90 468 l 90 618 l 221 618 l 221 468 l 90 468 m 90 0 l 90 150 l 221 150 l 221 0 l 90 0 z "},";":{"ha":325,"x_min":44,"x_max":240,"o":"m 110 468 l 110 618 l 240 618 l 240 468 l 110 468 m 214 158 l 140 -142 l 44 -142 l 118 158 l 214 158 z "},"?":{"ha":619,"x_min":67,"x_max":578,"o":"m 147 639 l 67 646 l 78 813 q 185 886 119 856 q 322 917 251 917 q 503 867 428 917 q 578 729 578 817 q 535 611 578 658 q 436 528 492 564 q 338 458 381 493 q 294 378 294 424 q 368 321 294 321 l 368 251 q 232 281 274 246 q 190 369 190 317 q 233 474 190 432 q 330 549 275 515 q 427 620 385 582 q 469 715 469 658 q 431 794 469 763 q 315 826 392 826 q 165 772 231 826 l 147 639 m 232 0 l 232 135 l 356 135 l 356 0 l 232 0 z "},"¿":{"ha":611,"x_min":39,"x_max":550,"o":"m 385 619 l 385 485 l 261 485 l 261 619 l 385 619 m 469 -19 l 550 -26 l 539 -193 q 431 -267 497 -236 q 294 -297 365 -297 q 114 -247 189 -297 q 39 -110 39 -197 q 82 8 39 -39 q 181 91 125 56 q 279 161 236 126 q 322 242 322 196 q 249 299 322 299 l 249 368 q 385 338 343 374 q 426 250 426 303 q 384 146 426 188 q 287 71 342 104 q 190 -1 232 38 q 147 -96 147 -39 q 186 -175 147 -143 q 301 -207 225 -207 q 451 -153 386 -207 l 469 -19 z "},"!":{"ha":333,"x_min":107,"x_max":232,"o":"m 224 903 l 203 267 l 128 267 l 108 903 l 224 903 m 107 0 l 107 135 l 232 135 l 232 0 l 107 0 z "},"¡":{"ha":310,"x_min":89,"x_max":214,"o":"m 89 485 l 89 619 l 214 619 l 214 485 l 89 485 m 213 -292 l 97 -292 l 118 344 l 193 344 l 213 -292 z "},"‽":{"ha":890,"x_min":42,"x_max":846,"o":"m 407 647 l 329 664 l 363 828 q 453 879 397 858 q 572 900 510 900 q 762 844 678 900 q 846 686 846 788 q 787 554 846 600 q 649 474 728 508 q 508 394 571 439 q 439 265 446 349 l 369 285 q 428 428 372 378 q 555 512 483 479 q 681 581 626 544 q 735 682 735 617 q 669 787 735 756 q 551 818 603 818 q 446 783 496 818 l 407 647 m 339 283 l 271 254 l 42 850 l 149 894 l 339 283 m 299 0 l 299 135 l 422 135 l 422 0 l 299 0 z "},"-":{"ha":483,"x_min":81,"x_max":401,"o":"m 81 363 l 401 363 l 401 278 l 81 278 l 81 363 z "},"–":{"ha":865,"x_min":85,"x_max":782,"o":"m 85 357 l 782 357 l 782 286 l 85 286 l 85 357 z "},"—":{"ha":1499,"x_min":103,"x_max":1408,"o":"m 103 357 l 1408 357 l 1408 286 l 103 286 l 103 357 z "},"_":{"ha":742,"x_min":72,"x_max":672,"o":"m 72 -103 l 672 -103 l 672 -174 l 72 -174 l 72 -103 z "},"@":{"ha":1258,"x_min":56,"x_max":1196,"o":"m 414 563 q 510 612 458 593 q 640 631 561 631 q 857 424 857 631 l 857 156 q 958 56 857 56 q 1051 101 1018 56 q 1099 215 1085 147 q 1113 350 1113 283 q 1041 641 1113 536 q 862 789 969 746 q 646 832 754 832 q 281 687 422 832 q 139 311 139 542 q 211 29 139 144 q 399 -145 283 -86 q 649 -204 515 -204 q 808 -183 728 -204 q 950 -118 888 -161 l 983 -181 q 824 -253 914 -226 q 636 -281 735 -281 q 343 -206 475 -281 q 133 0 211 -132 q 56 304 56 132 q 131 608 56 471 q 338 826 206 744 q 642 908 469 908 q 892 858 764 908 q 1108 692 1021 808 q 1196 378 1196 575 q 1172 199 1196 289 q 1092 47 1149 108 q 938 -14 1036 -14 q 819 24 864 -14 q 763 121 774 61 q 681 28 735 69 q 550 -14 626 -14 q 422 24 486 -14 q 358 160 358 61 q 402 278 358 238 q 513 332 446 318 q 650 346 581 346 q 706 344 678 346 q 758 342 733 343 l 758 400 q 729 513 758 471 q 626 556 700 556 q 489 517 550 556 l 463 410 l 389 418 l 414 563 m 758 283 q 704 288 733 286 q 647 290 675 290 q 519 267 576 290 q 463 171 463 244 q 499 87 463 111 q 579 63 536 63 q 701 112 644 63 q 758 240 757 161 l 758 283 z "},"&":{"ha":1014,"x_min":65,"x_max":982,"o":"m 593 503 l 982 503 l 982 415 l 836 415 q 762 275 810 350 q 650 136 714 200 q 835 81 747 81 q 947 110 893 81 l 971 25 q 821 -14 901 -14 q 694 8 757 -14 q 569 69 631 31 q 455 9 515 32 q 329 -14 394 -14 q 147 44 228 -14 q 65 214 65 101 q 119 358 65 304 q 244 450 174 411 q 192 665 192 569 q 258 845 192 774 q 442 917 324 917 q 601 865 539 917 q 664 729 664 814 q 569 562 664 624 q 358 443 475 500 q 588 176 444 283 q 674 287 638 225 q 729 415 710 349 l 593 415 l 593 503 m 563 725 q 533 801 563 765 q 439 836 503 836 q 330 790 368 836 q 292 674 292 743 q 333 496 292 592 q 492 597 422 543 q 563 725 563 650 m 271 396 q 194 326 222 367 q 165 229 165 286 q 222 110 165 147 q 354 72 278 72 q 507 114 432 72 q 271 396 361 229 z "},"/":{"ha":471,"x_min":44,"x_max":439,"o":"m 439 956 l 140 0 l 44 0 l 343 956 l 439 956 z "},"\\":{"ha":538,"x_min":128,"x_max":522,"o":"m 128 956 l 224 956 l 522 0 l 426 0 l 128 956 z "},"|":{"ha":324,"x_min":118,"x_max":206,"o":"m 206 1014 l 206 -111 l 118 -111 l 118 1014 l 206 1014 z "},"(":{"ha":381,"x_min":54,"x_max":371,"o":"m 278 997 l 371 997 q 140 375 140 704 q 198 51 140 214 q 371 -254 256 -111 l 275 -254 q 107 58 160 -101 q 54 375 54 217 q 109 693 54 536 q 278 997 164 850 z "},")":{"ha":382,"x_min":10,"x_max":326,"o":"m 103 -254 l 10 -254 q 240 368 240 39 q 183 691 240 529 q 10 997 125 853 l 106 997 q 274 685 221 844 q 326 368 326 526 q 272 51 326 208 q 103 -254 217 -106 z "},"[":{"ha":392,"x_min":117,"x_max":363,"o":"m 117 -296 l 117 1042 l 363 1042 l 363 969 l 204 969 l 204 -224 l 363 -224 l 363 -296 l 117 -296 z "},"]":{"ha":392,"x_min":28,"x_max":274,"o":"m 274 -296 l 28 -296 l 28 -224 l 186 -224 l 186 969 l 28 969 l 28 1042 l 274 1042 l 274 -296 z "},"{":{"ha":389,"x_min":42,"x_max":346,"o":"m 153 371 q 258 326 226 358 q 289 254 289 293 q 259 141 289 208 q 199 1 229 74 q 169 -133 169 -72 q 257 -222 169 -222 l 346 -222 l 346 -294 l 257 -294 q 129 -250 172 -294 q 86 -133 86 -206 q 115 10 86 -64 q 174 150 144 85 q 204 257 204 215 q 152 327 204 311 q 68 343 100 343 l 42 343 l 42 399 l 68 399 q 152 414 100 399 q 204 483 204 429 q 174 592 204 525 q 115 735 144 660 q 86 881 86 811 q 257 1042 86 1042 l 346 1042 l 346 969 l 257 969 q 169 881 169 969 q 199 744 169 819 q 259 601 229 669 q 289 488 289 533 q 258 415 289 449 q 153 371 228 382 z "},"}":{"ha":389,"x_min":43,"x_max":347,"o":"m 236 376 q 131 422 163 389 q 100 493 100 454 q 130 606 100 539 q 190 747 160 674 q 219 881 219 819 q 132 969 219 969 l 43 969 l 43 1042 l 132 1042 q 260 997 217 1042 q 303 881 303 953 q 274 737 303 811 q 215 597 244 663 q 185 490 185 532 q 237 420 185 436 q 321 404 289 404 l 347 404 l 347 349 l 321 349 q 237 333 289 349 q 185 264 185 318 q 215 155 185 222 q 274 12 244 88 q 303 -133 303 -64 q 132 -294 303 -294 l 43 -294 l 43 -222 l 132 -222 q 219 -133 219 -222 q 190 3 219 -72 q 130 146 160 78 q 100 260 100 214 q 131 332 100 299 q 236 376 161 365 z "},"〚":{"ha":626,"x_min":117,"x_max":583,"o":"m 117 -296 l 117 1042 l 583 1042 l 583 969 l 425 969 l 425 -224 l 583 -224 l 583 -296 l 117 -296 m 204 969 l 204 -224 l 339 -224 l 339 969 l 204 969 z "},"〛":{"ha":626,"x_min":43,"x_max":510,"o":"m 510 -296 l 43 -296 l 43 -224 l 201 -224 l 201 969 l 43 969 l 43 1042 l 510 1042 l 510 -296 m 422 -224 l 422 969 l 288 969 l 288 -224 l 422 -224 z "},"^":{"ha":628,"x_min":57,"x_max":574,"o":"m 281 911 l 343 911 l 574 518 l 482 518 l 311 815 l 149 518 l 57 518 l 281 911 z "},"~":{"ha":849,"x_min":65,"x_max":788,"o":"m 579 278 q 465 303 514 278 q 367 352 415 328 q 261 376 319 376 q 194 360 228 376 q 124 288 160 344 l 65 325 q 158 433 106 400 q 267 467 211 467 q 374 442 326 467 q 471 392 422 417 q 579 368 519 368 q 655 390 622 368 q 724 475 688 413 l 788 433 q 579 278 703 278 z "},"°":{"ha":550,"x_min":54,"x_max":497,"o":"m 275 475 q 114 538 174 475 q 54 694 54 600 q 116 853 54 789 q 278 917 178 917 q 439 852 381 917 q 497 696 497 788 q 438 539 497 603 q 275 475 378 475 m 275 549 q 375 587 336 549 q 414 694 414 625 q 375 805 414 767 q 276 843 336 843 q 176 805 217 843 q 136 696 136 767 q 176 588 136 626 q 275 549 215 549 z "},"§":{"ha":818,"x_min":54,"x_max":769,"o":"m 699 190 q 622 40 699 93 q 418 -14 546 -14 q 256 7 342 -14 q 110 65 169 28 l 126 218 l 207 210 l 201 104 q 308 71 250 81 q 419 61 365 61 q 545 89 490 61 q 600 183 600 117 q 538 272 600 251 q 374 308 476 293 q 226 333 300 317 q 103 385 151 350 q 54 481 54 419 q 85 563 54 529 q 165 615 117 596 q 118 725 118 658 q 195 867 118 818 q 388 917 272 917 q 660 861 540 917 l 671 685 l 590 676 l 575 806 q 393 843 489 843 q 267 816 317 843 q 217 732 217 789 q 273 646 217 671 q 410 607 329 621 q 572 578 489 594 q 713 526 656 561 q 769 421 769 492 q 742 338 769 372 q 667 281 714 303 q 699 190 699 246 m 675 407 q 627 476 675 453 q 509 511 579 499 q 374 535 439 524 q 296 551 335 542 q 222 575 257 560 q 147 492 147 547 q 216 420 147 439 q 410 381 285 401 q 517 361 465 372 q 608 332 568 350 q 675 407 675 358 z "},"•":{"ha":496,"x_min":96,"x_max":401,"o":"m 96 339 q 139 448 96 403 q 246 493 182 493 q 356 448 311 493 q 401 339 401 403 q 356 231 401 275 q 246 186 311 186 q 139 231 182 186 q 96 339 96 275 z "},"¶":{"ha":858,"x_min":42,"x_max":803,"o":"m 803 903 l 803 817 l 697 817 l 697 0 l 604 0 l 604 817 l 517 817 l 517 0 l 422 0 l 422 431 l 343 431 q 128 485 215 431 q 42 672 42 540 q 118 835 42 767 q 351 903 194 903 l 803 903 z "},"#":{"ha":821,"x_min":53,"x_max":764,"o":"m 685 724 l 653 560 l 764 560 l 764 481 l 638 481 l 594 253 l 722 253 l 722 174 l 579 174 l 546 0 l 458 0 l 492 174 l 247 174 l 214 0 l 126 0 l 160 174 l 53 174 l 53 253 l 175 253 l 218 481 l 94 481 l 94 560 l 233 560 l 265 724 l 353 724 l 321 560 l 565 560 l 597 724 l 685 724 m 263 253 l 507 253 l 550 481 l 306 481 l 263 253 z "},"%":{"ha":954,"x_min":50,"x_max":907,"o":"m 243 339 q 105 386 160 339 q 50 532 50 433 q 107 685 50 633 q 254 738 164 738 q 394 690 340 738 q 447 544 447 642 q 394 394 447 450 q 243 339 342 339 m 807 724 l 526 371 l 246 0 l 142 0 l 461 399 l 703 724 l 807 724 m 244 408 q 364 543 364 408 q 251 668 364 668 q 133 533 133 668 q 244 408 133 408 m 703 -14 q 564 33 618 -14 q 510 179 510 81 q 567 333 510 281 q 714 385 624 385 q 853 337 800 385 q 907 192 907 289 q 853 42 907 97 q 703 -14 800 -14 m 703 56 q 824 190 824 56 q 711 315 824 315 q 593 181 593 315 q 703 56 593 56 z "},"‰":{"ha":1376,"x_min":50,"x_max":1333,"o":"m 243 339 q 105 386 160 339 q 50 532 50 433 q 107 685 50 633 q 254 738 164 738 q 394 690 340 738 q 447 544 447 642 q 394 394 447 450 q 243 339 342 339 m 807 724 l 526 371 l 246 0 l 142 0 l 461 399 l 703 724 l 807 724 m 244 408 q 364 543 364 408 q 251 668 364 668 q 133 533 133 668 q 244 408 133 408 m 703 -14 q 564 33 618 -14 q 510 179 510 81 q 567 333 510 281 q 714 385 624 385 q 853 337 800 385 q 907 192 907 289 q 853 42 907 97 q 703 -14 800 -14 m 1131 -14 q 991 33 1046 -14 q 936 179 936 81 q 994 333 936 281 q 1142 385 1051 385 q 1280 337 1226 385 q 1333 192 1333 289 q 1281 42 1333 97 q 1131 -14 1228 -14 m 703 56 q 824 190 824 56 q 711 315 824 315 q 593 181 593 315 q 703 56 593 56 m 1131 56 q 1250 190 1250 56 q 1139 315 1250 315 q 1019 181 1019 315 q 1131 56 1019 56 z "},"ª":{"ha":524,"x_min":61,"x_max":469,"o":"m 246 919 q 167 899 208 919 l 149 826 l 89 832 l 103 929 q 256 974 165 974 q 411 838 411 974 l 411 649 q 443 607 411 607 q 468 611 458 607 l 469 568 q 410 553 443 553 q 331 638 333 553 q 276 578 311 604 q 190 553 240 553 q 104 578 147 553 q 61 667 61 603 q 124 766 61 743 q 253 789 188 789 q 294 788 275 789 q 331 785 314 786 l 331 818 q 314 888 331 857 q 246 919 297 919 m 331 717 l 331 743 q 294 747 314 744 q 257 749 275 749 q 182 735 217 749 q 147 676 147 721 q 169 625 147 640 q 219 610 192 610 q 294 638 260 610 q 331 717 328 667 z "},"º":{"ha":526,"x_min":53,"x_max":472,"o":"m 53 760 q 106 911 53 849 q 264 974 160 974 q 420 912 368 974 q 472 764 472 850 q 414 612 472 671 q 258 553 356 553 q 108 610 164 553 q 53 760 53 668 m 139 765 q 169 660 139 703 q 261 617 200 617 q 353 658 321 617 q 386 765 386 700 q 263 908 386 908 q 171 869 203 908 q 139 765 139 829 z "},"†":{"ha":649,"x_min":40,"x_max":610,"o":"m 40 594 l 281 594 l 281 903 l 368 903 l 368 594 l 610 594 l 610 508 l 368 508 l 368 -196 l 281 -196 l 281 508 l 40 508 l 40 594 z "},"‡":{"ha":713,"x_min":72,"x_max":642,"o":"m 72 165 l 313 165 l 313 508 l 72 508 l 72 594 l 313 594 l 313 903 l 400 903 l 400 594 l 642 594 l 642 508 l 400 508 l 400 165 l 642 165 l 642 79 l 400 79 l 400 -196 l 313 -196 l 313 79 l 72 79 l 72 165 z "},"'":{"ha":265,"x_min":83,"x_max":182,"o":"m 175 524 l 90 524 l 83 903 l 182 903 l 175 524 z "},"\"":{"ha":515,"x_min":83,"x_max":432,"o":"m 175 524 l 90 524 l 83 903 l 182 903 l 175 524 m 425 524 l 340 524 l 333 903 l 432 903 l 425 524 z "},"“":{"ha":507,"x_min":63,"x_max":460,"o":"m 232 928 l 160 628 l 63 628 l 136 928 l 232 928 m 460 928 l 388 628 l 290 628 l 364 928 l 460 928 z "},"”":{"ha":504,"x_min":56,"x_max":453,"o":"m 56 631 l 128 931 l 225 931 l 151 631 l 56 631 m 283 631 l 356 931 l 453 931 l 379 631 l 283 631 z "},"‘":{"ha":282,"x_min":63,"x_max":232,"o":"m 232 911 l 160 611 l 63 611 l 136 911 l 232 911 z "},"’":{"ha":279,"x_min":61,"x_max":231,"o":"m 61 665 l 133 965 l 231 965 l 157 665 l 61 665 z "},"‚":{"ha":279,"x_min":33,"x_max":203,"o":"m 33 -142 l 106 158 l 203 158 l 129 -142 l 33 -142 z "},"„":{"ha":510,"x_min":33,"x_max":433,"o":"m 33 -142 l 106 158 l 203 158 l 129 -142 l 33 -142 m 264 -142 l 336 158 l 433 158 l 360 -142 l 264 -142 z "},"‹":{"ha":399,"x_min":57,"x_max":332,"o":"m 332 35 l 249 35 l 57 376 l 249 710 l 332 710 l 153 376 l 332 35 z "},"›":{"ha":399,"x_min":67,"x_max":342,"o":"m 150 35 l 67 35 l 244 376 l 67 710 l 150 710 l 342 376 l 150 35 z "},"«":{"ha":626,"x_min":57,"x_max":561,"o":"m 332 35 l 249 35 l 57 376 l 249 710 l 332 710 l 153 376 l 332 35 m 561 35 l 476 35 l 285 376 l 476 710 l 561 710 l 382 376 l 561 35 z "},"»":{"ha":626,"x_min":67,"x_max":569,"o":"m 378 35 l 294 35 l 474 376 l 294 710 l 378 710 l 569 376 l 378 35 m 150 35 l 67 35 l 244 376 l 67 710 l 150 710 l 342 376 l 150 35 z "},"*":{"ha":576,"x_min":65,"x_max":513,"o":"m 513 772 l 349 679 l 513 589 l 472 526 l 319 625 l 326 463 l 250 463 l 257 624 l 106 526 l 65 589 l 229 679 l 65 772 l 106 835 l 257 733 l 250 903 l 326 903 l 318 733 l 472 835 l 513 772 z "},"·":{"ha":304,"x_min":82,"x_max":217,"o":"m 82 356 l 82 497 l 217 497 l 217 356 l 82 356 z "},"ﬁ":{"ha":790,"x_min":36,"x_max":761,"o":"m 556 79 l 556 539 l 242 539 l 242 79 l 382 79 l 382 0 l 36 0 l 36 79 l 143 79 l 143 539 l 54 539 l 54 618 l 143 618 l 143 722 q 222 905 143 840 q 411 969 300 969 q 526 952 472 969 q 617 908 581 935 l 640 764 l 560 754 l 535 858 q 483 878 518 868 q 403 889 449 889 q 288 851 333 889 q 242 725 242 814 l 242 618 l 654 618 l 654 79 l 761 79 l 761 0 l 449 0 l 449 79 l 556 79 z "},"ﬂ":{"ha":790,"x_min":36,"x_max":761,"o":"m 761 0 l 447 0 l 447 79 l 556 79 l 556 838 q 483 881 522 869 q 400 892 444 892 q 285 849 328 892 q 242 729 242 806 l 242 618 l 407 618 l 407 539 l 242 539 l 242 79 l 382 79 l 382 0 l 36 0 l 36 79 l 143 79 l 143 539 l 54 539 l 54 618 l 143 618 l 143 725 q 210 903 143 836 q 379 969 276 969 q 477 960 435 969 q 556 924 519 951 l 556 956 l 653 956 l 653 79 l 761 79 l 761 0 z "},"ﬀ":{"ha":854,"x_min":36,"x_max":939,"o":"m 554 79 l 554 539 l 242 539 l 242 79 l 382 79 l 382 0 l 36 0 l 36 79 l 143 79 l 143 539 l 54 539 l 54 618 l 143 618 l 143 711 q 215 889 143 822 q 386 956 286 956 q 510 931 458 956 q 594 876 561 906 q 771 969 657 969 q 849 961 814 969 q 915 925 883 953 l 939 782 l 858 772 l 832 878 q 761 889 806 889 q 651 742 651 889 l 651 618 l 813 618 l 813 539 l 651 539 l 651 79 l 792 79 l 792 0 l 446 0 l 446 79 l 554 79 m 242 715 l 242 618 l 554 618 l 554 733 q 564 808 554 775 q 490 858 531 839 q 401 878 450 878 q 288 836 335 878 q 242 715 242 794 z "},"ﬃ":{"ha":1203,"x_min":36,"x_max":1174,"o":"m 556 79 l 556 539 l 242 539 l 242 79 l 382 79 l 382 0 l 36 0 l 36 79 l 143 79 l 143 539 l 54 539 l 54 618 l 143 618 l 143 711 q 215 889 143 822 q 386 956 286 956 q 515 928 461 956 q 601 868 569 900 q 825 969 675 969 q 940 952 885 969 q 1029 908 994 935 l 1053 764 l 974 754 l 947 858 q 896 878 931 868 q 815 889 861 889 q 700 851 746 889 q 654 725 654 814 l 654 618 l 1067 618 l 1067 79 l 1174 79 l 1174 0 l 861 0 l 861 79 l 969 79 l 969 539 l 654 539 l 654 79 l 794 79 l 794 0 l 449 0 l 449 79 l 556 79 m 242 715 l 242 618 l 556 618 l 556 722 q 568 804 556 767 q 493 857 533 836 q 401 878 453 878 q 288 836 335 878 q 242 715 242 794 z "},"ﬄ":{"ha":1201,"x_min":36,"x_max":1172,"o":"m 554 79 l 554 539 l 242 539 l 242 79 l 382 79 l 382 0 l 36 0 l 36 79 l 143 79 l 143 539 l 54 539 l 54 618 l 143 618 l 143 711 q 215 889 143 822 q 386 956 286 956 q 510 933 453 956 q 599 875 567 910 q 790 969 664 969 q 888 960 846 969 q 967 924 931 951 l 967 956 l 1065 956 l 1065 79 l 1172 79 l 1172 0 l 860 0 l 860 79 l 967 79 l 967 838 q 894 881 933 869 q 811 892 856 892 q 697 850 742 892 q 653 729 653 808 l 653 618 l 818 618 l 818 539 l 653 539 l 653 79 l 793 79 l 793 0 l 447 0 l 447 79 l 554 79 m 242 715 l 242 618 l 554 618 l 554 725 q 568 815 554 771 q 496 860 542 842 q 401 878 450 878 q 288 836 335 878 q 242 715 242 794 z "},"¦":{"ha":317,"x_min":114,"x_max":203,"o":"m 203 1014 l 203 592 l 114 592 l 114 1014 l 203 1014 m 203 311 l 203 -111 l 114 -111 l 114 311 l 203 311 z "},"−":{"ha":650,"x_min":85,"x_max":567,"o":"m 85 353 l 85 428 l 567 428 l 567 353 l 85 353 z "},"+":{"ha":585,"x_min":51,"x_max":533,"o":"m 51 353 l 51 428 l 260 428 l 260 632 l 333 632 l 333 428 l 533 428 l 533 353 l 333 353 l 333 150 l 260 150 l 260 353 l 51 353 z "},"×":{"ha":539,"x_min":72,"x_max":465,"o":"m 124 182 l 72 235 l 218 381 l 74 526 l 125 579 l 269 433 l 413 576 l 464 524 l 322 382 l 465 239 l 414 185 l 269 329 l 124 182 z "},"<":{"ha":565,"x_min":42,"x_max":485,"o":"m 485 19 l 42 374 l 42 401 l 483 763 l 483 667 l 149 389 l 485 115 l 485 19 z "},"=":{"ha":803,"x_min":85,"x_max":719,"o":"m 85 506 l 85 581 l 719 581 l 719 506 l 85 506 m 85 200 l 85 272 l 719 272 l 719 200 l 85 200 z "},">":{"ha":565,"x_min":81,"x_max":524,"o":"m 524 374 l 81 19 l 81 115 l 417 389 l 82 667 l 82 763 l 524 401 l 524 374 z "},"∞":{"ha":1010,"x_min":63,"x_max":947,"o":"m 729 110 q 593 167 644 110 q 503 296 542 224 q 413 167 464 224 q 278 110 363 110 q 122 182 182 110 q 63 353 63 254 q 126 529 63 458 q 282 600 190 600 q 416 540 367 600 q 504 406 465 479 q 599 540 546 479 q 739 600 653 600 q 890 529 833 600 q 947 357 947 458 q 885 180 947 250 q 729 110 822 110 m 717 185 q 819 230 778 185 q 861 357 861 275 q 828 474 861 425 q 728 524 794 524 q 613 472 657 524 q 532 350 569 419 q 609 235 567 286 q 717 185 651 185 m 285 185 q 394 235 350 185 q 475 351 438 285 q 397 472 439 419 q 289 524 356 524 q 187 475 228 524 q 146 353 146 426 q 183 233 146 281 q 285 185 221 185 z "},"±":{"ha":626,"x_min":74,"x_max":556,"o":"m 74 360 l 74 435 l 281 435 l 281 639 l 354 639 l 354 435 l 556 435 l 556 360 l 354 360 l 354 157 l 281 157 l 281 360 l 74 360 m 74 0 l 74 74 l 556 74 l 556 0 l 74 0 z "},"≤":{"ha":594,"x_min":64,"x_max":507,"o":"m 507 139 l 64 408 l 64 450 l 506 726 l 506 636 l 178 432 l 507 229 l 507 139 m 64 0 l 64 74 l 507 74 l 507 0 l 64 0 z "},"≠":{"ha":797,"x_min":81,"x_max":715,"o":"m 81 506 l 81 581 l 492 581 l 568 683 l 658 683 l 583 581 l 715 581 l 715 506 l 529 506 l 363 272 l 715 272 l 715 200 l 310 200 l 235 94 l 136 94 l 213 200 l 81 200 l 81 272 l 265 272 l 438 506 l 81 506 z "},"≥":{"ha":594,"x_min":86,"x_max":529,"o":"m 86 139 l 86 229 l 415 432 l 88 636 l 88 726 l 529 450 l 529 408 l 86 139 m 529 0 l 86 0 l 86 74 l 529 74 l 529 0 z "},"÷":{"ha":622,"x_min":69,"x_max":551,"o":"m 240 519 l 240 663 l 375 663 l 375 519 l 240 519 m 551 353 l 69 353 l 69 428 l 551 428 l 551 353 m 240 119 l 240 263 l 375 263 l 375 119 l 240 119 z "},"¬":{"ha":840,"x_min":86,"x_max":754,"o":"m 682 138 l 682 356 l 86 356 l 86 428 l 754 428 l 754 138 l 682 138 z "},"≈":{"ha":874,"x_min":79,"x_max":803,"o":"m 592 442 q 478 467 528 442 q 382 517 429 492 q 276 542 335 542 q 207 525 242 542 q 138 451 172 508 l 79 490 q 172 599 119 565 q 281 633 225 633 q 388 608 340 633 q 484 558 436 583 q 592 532 532 532 q 668 553 636 532 q 739 639 700 575 l 803 599 q 592 442 714 442 m 592 164 q 478 189 528 164 q 382 239 429 214 q 276 264 335 264 q 207 247 242 264 q 138 174 172 229 l 79 213 q 172 321 119 288 q 281 354 225 354 q 388 329 340 354 q 484 279 436 304 q 592 254 532 254 q 668 276 636 254 q 739 363 700 299 l 803 319 q 592 164 714 164 z "},"√":{"ha":803,"x_min":28,"x_max":803,"o":"m 375 0 l 181 535 l 28 535 l 28 613 l 242 613 l 417 132 l 721 968 l 803 968 l 446 0 l 375 0 z "},"∂":{"ha":667,"x_min":32,"x_max":636,"o":"m 125 446 q 163 565 125 513 l 32 697 l 74 739 l 204 610 q 335 656 264 656 q 464 610 407 656 l 593 739 l 636 697 l 506 567 q 544 446 544 510 q 504 322 544 378 l 636 192 l 593 149 l 461 279 q 335 236 407 236 q 206 281 264 236 l 74 149 l 32 192 l 164 324 q 125 446 125 378 m 210 446 q 247 351 210 388 q 336 315 283 315 q 423 351 388 315 q 458 446 458 388 q 423 540 458 504 q 336 576 388 576 q 247 541 285 576 q 210 446 210 506 z "},"∑":{"ha":783,"x_min":44,"x_max":731,"o":"m 44 -194 l 44 -107 l 394 351 l 44 815 l 44 903 l 731 903 l 731 815 l 160 815 l 496 369 l 496 339 l 160 -107 l 731 -107 l 731 -194 l 44 -194 z "},"∏":{"ha":946,"x_min":57,"x_max":888,"o":"m 57 89 l 171 89 l 171 814 l 57 814 l 57 903 l 888 903 l 888 814 l 774 814 l 774 89 l 888 89 l 888 0 l 560 0 l 560 89 l 674 89 l 674 814 l 272 814 l 272 89 l 386 89 l 386 0 l 57 0 l 57 89 z "},"◊":{"ha":826,"x_min":42,"x_max":785,"o":"m 414 -15 l 42 444 l 414 917 l 785 444 l 414 -15 m 414 100 l 689 444 l 414 793 l 138 444 l 414 100 z "},"∫":{"ha":519,"x_min":7,"x_max":515,"o":"m 7 -194 l 7 -111 l 65 -111 q 179 -68 149 -111 q 210 82 210 -25 l 210 688 q 262 889 210 821 q 450 957 314 957 l 515 957 l 515 872 l 439 872 q 328 831 360 872 q 296 683 296 790 l 296 75 q 241 -126 296 -58 q 58 -194 186 -194 l 7 -194 z "},"µ":{"ha":794,"x_min":26,"x_max":771,"o":"m 133 -296 l 133 539 l 26 539 l 26 618 l 232 618 l 232 240 q 274 106 233 146 q 379 65 314 65 q 510 122 460 65 q 563 243 560 178 l 563 539 l 435 539 l 435 618 l 660 618 l 660 79 l 771 79 l 771 0 l 563 0 l 563 117 q 478 22 533 57 q 347 -14 422 -14 q 232 14 281 -14 l 232 -296 l 133 -296 z "},"π":{"ha":810,"x_min":40,"x_max":771,"o":"m 43 79 l 150 79 l 150 539 l 40 539 l 40 618 l 771 618 l 771 539 l 660 539 l 660 79 l 767 79 l 767 0 l 453 0 l 453 79 l 561 79 l 561 539 l 249 539 l 249 79 l 356 79 l 356 0 l 43 0 l 43 79 z "},"∆":{"ha":753,"x_min":35,"x_max":717,"o":"m 35 0 l 383 918 l 717 0 l 35 0 m 149 79 l 604 79 l 382 703 l 149 79 z "},"Δ":{"ha":683,"x_min":-1,"x_max":681,"o":"m -1 0 l 347 918 l 681 0 l -1 0 m 113 79 l 568 79 l 346 703 l 113 79 z "},"Σ":{"ha":753,"x_min":46,"x_max":708,"o":"m 46 0 l 46 88 l 328 449 l 46 815 l 46 903 l 708 903 l 708 815 l 161 815 l 431 468 l 431 438 l 161 88 l 708 88 l 708 0 l 46 0 z "},"Ω":{"ha":993,"x_min":65,"x_max":926,"o":"m 497 825 q 262 744 349 825 q 175 503 175 663 q 231 306 175 381 q 414 229 286 231 l 414 0 l 65 0 l 65 85 l 326 85 l 326 165 q 137 268 208 172 q 65 510 65 364 q 128 741 65 651 q 290 874 192 831 q 497 917 389 917 q 703 874 604 917 q 864 742 801 832 q 926 510 926 653 q 865 276 926 379 q 674 165 803 172 l 674 85 l 926 85 l 926 0 l 592 0 l 592 229 q 772 313 726 228 q 818 504 818 397 q 733 743 818 661 q 497 825 647 825 z "},"´":{"ha":611,"x_min":236,"x_max":506,"o":"m 506 867 l 267 722 l 236 765 l 450 949 l 506 867 z "},"`":{"ha":611,"x_min":219,"x_max":489,"o":"m 489 765 l 460 722 l 219 867 l 275 949 l 489 765 z "},"ˆ":{"ha":469,"x_min":81,"x_max":447,"o":"m 447 768 l 410 721 l 256 838 l 115 721 l 81 765 l 249 932 l 279 932 l 447 768 z "},"¨":{"ha":549,"x_min":86,"x_max":436,"o":"m 86 771 l 86 889 l 199 889 l 199 771 l 86 771 m 324 771 l 324 889 l 436 889 l 436 771 l 324 771 z "},"˜":{"ha":519,"x_min":49,"x_max":443,"o":"m 443 897 q 408 805 433 842 q 336 768 383 768 q 243 795 282 768 q 165 822 204 822 q 126 809 146 822 q 94 763 106 796 l 49 779 q 81 858 54 815 q 161 901 108 901 q 243 876 208 901 q 328 850 278 850 q 365 861 347 850 q 393 910 382 872 l 443 897 z "},"¯":{"ha":465,"x_min":58,"x_max":397,"o":"m 397 783 l 58 783 l 58 863 l 397 863 l 397 783 z "},"˘":{"ha":554,"x_min":104,"x_max":444,"o":"m 444 910 q 274 739 444 739 q 104 910 104 739 l 186 910 q 275 806 186 806 q 363 910 363 806 l 444 910 z "},"˙":{"ha":290,"x_min":89,"x_max":196,"o":"m 89 768 l 89 894 l 196 894 l 196 768 l 89 768 z "},"˚":{"ha":361,"x_min":44,"x_max":318,"o":"m 318 843 q 284 750 318 786 q 181 714 250 714 q 44 842 44 714 q 81 933 44 897 q 182 969 117 969 q 285 934 253 969 q 318 843 318 899 m 250 844 q 235 893 250 872 q 181 914 219 914 q 128 893 144 914 q 113 842 113 872 q 181 769 113 769 q 233 792 217 769 q 250 844 250 814 z "},"¸":{"ha":356,"x_min":76,"x_max":360,"o":"m 360 -174 q 315 -263 360 -236 q 210 -290 269 -290 q 76 -249 126 -290 l 100 -192 q 204 -224 142 -224 q 275 -167 275 -224 q 251 -122 275 -132 q 194 -111 228 -111 l 153 -111 l 153 8 l 225 8 l 225 -65 l 236 -65 q 330 -97 300 -65 q 360 -174 360 -128 z "},"˝":{"ha":597,"x_min":96,"x_max":531,"o":"m 314 942 l 139 721 l 96 751 l 235 997 l 314 942 m 531 867 l 290 722 l 261 765 l 475 949 l 531 867 z "},"˛":{"ha":389,"x_min":61,"x_max":315,"o":"m 315 -262 q 206 -290 264 -290 q 101 -257 142 -290 q 61 -164 61 -224 q 101 -53 61 -101 q 194 17 140 -6 l 257 11 q 171 -60 194 -21 q 147 -137 147 -100 q 228 -215 147 -215 q 303 -194 268 -215 l 315 -262 z "},"ˇ":{"ha":469,"x_min":81,"x_max":447,"o":"m 447 886 l 279 721 l 249 721 l 81 883 l 117 931 l 269 814 l 411 932 l 447 886 z "},"̣":{"ha":1157,"x_min":132,"x_max":239,"o":"m 132 -242 l 132 -115 l 239 -115 l 239 -242 l 132 -242 z "},"™":{"ha":1481,"x_min":72,"x_max":1404,"o":"m 1404 836 l 1326 836 l 1326 382 l 1399 382 l 1399 315 l 1176 315 l 1176 382 l 1243 382 l 1243 729 l 1239 729 l 1049 349 l 1007 349 l 810 733 l 806 733 l 806 382 l 875 382 l 875 315 l 654 315 l 654 382 l 728 382 l 728 836 l 649 836 l 649 903 l 799 903 l 1029 460 l 1033 460 l 1253 903 l 1404 903 l 1404 836 m 629 714 l 560 711 l 546 836 l 393 836 l 393 382 l 497 382 l 497 315 l 208 315 l 208 382 l 311 382 l 311 836 l 157 836 l 142 711 l 72 714 l 86 903 l 615 903 l 629 714 z "},"℠":{"ha":1386,"x_min":82,"x_max":1311,"o":"m 301 308 q 178 326 242 308 q 82 368 114 344 l 94 490 l 160 485 l 156 407 q 292 378 213 378 q 415 479 415 378 q 372 559 415 536 q 271 594 329 582 q 148 633 208 607 q 88 749 88 660 q 147 874 88 833 q 282 914 206 914 q 387 900 333 914 q 469 863 440 886 l 476 739 l 413 732 l 401 819 q 293 846 349 846 q 209 824 242 846 q 176 757 176 801 q 215 688 176 706 q 303 660 254 671 q 390 635 343 650 q 471 587 438 621 q 504 485 504 553 q 446 353 504 399 q 301 308 388 308 m 561 382 l 633 382 l 633 836 l 557 836 l 557 903 l 707 903 l 936 460 l 940 460 l 1161 903 l 1311 903 l 1311 836 l 1233 836 l 1233 382 l 1307 382 l 1307 315 l 1083 315 l 1083 382 l 1151 382 l 1151 729 l 1147 729 l 956 349 l 914 349 l 717 733 l 713 733 l 713 382 l 782 382 l 782 315 l 561 315 l 561 382 z "},"®":{"ha":821,"x_min":64,"x_max":760,"o":"m 411 221 q 165 322 267 221 q 64 568 64 422 q 165 815 64 713 q 413 917 267 917 q 659 815 558 917 q 760 568 760 713 q 658 322 760 424 q 411 221 556 221 m 413 278 q 618 363 536 278 q 700 568 700 449 q 619 774 700 689 q 413 860 539 860 q 204 774 286 860 q 122 568 122 689 q 204 363 122 447 q 413 278 286 278 m 246 428 l 296 428 l 296 733 l 246 733 l 246 776 l 425 776 q 535 745 500 776 q 569 665 569 714 q 482 556 569 582 l 553 428 l 603 428 l 603 385 l 515 385 l 429 546 l 350 546 l 350 428 l 403 428 l 403 385 l 246 385 l 246 428 m 415 588 q 510 664 510 588 q 415 733 510 733 l 350 733 l 350 588 l 415 588 z "},"©":{"ha":867,"x_min":61,"x_max":806,"o":"m 806 361 q 697 98 806 206 q 433 -10 588 -10 q 170 98 279 -10 q 61 361 61 206 q 169 626 61 517 q 435 735 278 735 q 699 626 592 735 q 806 361 806 517 m 746 361 q 659 584 746 492 q 435 676 572 676 q 208 584 296 676 q 121 361 121 492 q 209 139 121 231 q 433 47 297 47 q 656 139 567 47 q 746 361 746 231 m 596 169 q 439 126 540 126 q 276 192 339 126 q 213 363 213 258 q 274 533 213 464 q 432 603 335 603 q 531 588 490 603 q 599 550 571 574 l 611 460 l 561 454 l 549 524 q 501 547 525 539 q 439 554 478 554 q 319 502 363 554 q 275 364 275 450 q 320 227 275 278 q 447 176 365 176 q 544 194 508 176 l 558 265 l 608 260 l 596 169 z "},"℗":{"ha":867,"x_min":61,"x_max":806,"o":"m 433 -10 q 170 98 279 -10 q 61 361 61 206 q 169 626 61 517 q 435 735 278 735 q 699 626 592 735 q 806 361 806 517 q 697 98 806 206 q 433 -10 588 -10 m 433 47 q 656 139 567 47 q 746 361 746 231 q 659 584 746 492 q 435 676 572 676 q 208 584 296 676 q 121 361 121 492 q 209 139 121 231 q 433 47 297 47 m 271 190 l 332 190 l 332 542 l 271 542 l 271 593 l 482 593 q 614 549 572 593 q 656 446 656 506 q 608 330 656 369 q 488 290 561 290 l 394 290 l 394 190 l 476 190 l 476 139 l 271 139 l 271 190 m 478 342 q 588 443 588 342 q 476 542 588 542 l 394 542 l 394 342 l 478 342 z "},"♾":{"ha":867,"x_min":61,"x_max":806,"o":"m 433 -10 q 170 98 279 -10 q 61 361 61 206 q 169 626 61 517 q 435 735 278 735 q 699 626 592 735 q 806 363 806 517 q 697 98 806 206 q 433 -10 588 -10 m 433 47 q 656 139 567 47 q 746 363 746 231 q 659 585 746 493 q 435 676 572 676 q 208 584 296 676 q 121 361 121 492 q 209 139 121 231 q 433 47 297 47 m 569 217 q 488 249 517 217 q 436 322 458 282 q 385 249 414 282 q 303 217 356 217 q 212 257 247 217 q 176 365 176 297 q 215 476 176 436 q 304 517 253 517 q 384 482 354 517 q 436 403 414 447 q 492 482 461 447 q 576 517 524 517 q 662 476 628 517 q 696 368 696 436 q 660 256 696 296 q 569 217 624 217 m 572 467 q 502 433 528 467 q 457 361 476 400 q 501 294 475 322 q 567 265 526 265 q 623 291 599 265 q 647 368 647 317 q 572 467 647 467 m 304 265 q 369 294 344 265 q 415 363 393 324 q 369 435 393 403 q 306 467 346 467 q 249 442 274 467 q 225 367 225 418 q 304 265 225 265 z "},"Ⓤ":{"ha":867,"x_min":61,"x_max":806,"o":"m 433 -10 q 170 98 279 -10 q 61 361 61 206 q 169 626 61 517 q 435 735 278 735 q 699 626 592 735 q 806 361 806 517 q 697 98 806 206 q 433 -10 588 -10 m 433 47 q 656 139 567 47 q 746 361 746 231 q 659 584 746 492 q 435 676 572 676 q 208 584 296 676 q 121 361 121 492 q 209 139 121 231 q 433 47 297 47 m 492 557 l 660 557 l 660 507 l 614 507 l 614 326 q 578 192 614 253 q 435 131 543 131 q 295 188 329 131 q 261 318 261 244 l 261 507 l 213 507 l 213 557 l 385 557 l 385 507 l 321 507 l 321 321 q 347 218 321 256 q 438 181 372 181 q 557 326 557 181 l 557 507 l 492 507 l 492 557 z "},"€":{"ha":835,"x_min":51,"x_max":747,"o":"m 51 413 l 51 476 l 144 476 q 261 662 175 589 q 474 735 347 735 q 721 665 633 735 l 743 501 l 660 493 l 633 628 q 486 656 579 656 q 334 607 394 656 q 250 476 274 558 l 515 476 l 515 413 l 238 413 q 235 387 236 400 q 235 361 235 374 q 235 331 235 346 q 238 303 236 317 l 481 303 l 481 240 l 251 240 q 489 69 306 69 q 565 76 526 69 q 638 99 604 83 l 664 232 l 747 224 l 725 58 q 616 9 682 29 q 471 -11 550 -11 q 262 58 347 -11 q 146 240 176 128 l 51 240 l 51 303 l 133 303 q 131 331 132 317 q 131 358 131 344 q 131 385 131 372 q 133 413 131 399 l 51 413 z "},"$":{"ha":653,"x_min":67,"x_max":592,"o":"m 592 206 q 527 53 592 108 q 360 -10 463 -3 l 360 -90 l 301 -90 l 301 -10 q 163 15 225 -6 q 67 58 101 36 l 90 217 l 174 210 l 163 108 q 301 69 231 76 l 301 342 q 147 394 219 360 q 74 533 74 428 q 142 681 74 633 q 301 733 210 729 l 301 824 l 360 824 l 360 733 q 474 711 425 729 q 558 668 522 693 l 567 508 l 485 503 l 469 619 q 360 656 422 649 l 360 418 q 460 388 406 408 q 553 326 514 368 q 592 206 592 283 m 178 544 q 214 466 178 489 q 301 431 250 443 l 301 656 q 178 544 178 644 m 488 196 q 451 284 488 256 q 360 328 414 313 l 360 71 q 452 108 417 78 q 488 196 488 138 z "},"¢":{"ha":660,"x_min":56,"x_max":597,"o":"m 597 208 q 535 67 586 133 q 376 -11 483 0 l 376 -117 l 313 -117 l 313 -12 q 125 76 194 -6 q 56 300 56 158 q 120 518 56 421 q 313 628 185 615 l 313 735 l 376 735 l 376 629 q 556 567 481 622 l 579 418 l 499 408 l 475 511 q 376 544 431 539 l 376 72 q 515 226 488 86 l 597 208 m 161 306 q 313 74 161 97 l 313 543 q 196 464 231 531 q 161 306 161 397 z "},"£":{"ha":707,"x_min":60,"x_max":639,"o":"m 639 115 q 578 44 625 88 q 454 0 532 0 l 60 0 l 60 75 q 142 165 124 106 q 161 326 161 225 l 67 326 l 67 390 l 161 390 l 161 464 q 231 672 161 608 q 388 735 300 735 q 504 720 461 735 q 585 681 547 706 l 608 518 l 526 508 l 501 632 q 400 656 460 656 q 299 615 339 656 q 258 465 258 574 l 258 390 l 507 390 l 507 326 l 258 326 q 242 175 258 236 q 169 78 225 114 l 433 78 q 531 103 496 78 q 589 161 567 129 l 639 115 z "},"ƒ":{"ha":538,"x_min":25,"x_max":510,"o":"m 74 378 l 185 378 l 194 529 q 418 735 207 735 q 461 733 435 735 q 510 729 488 732 l 510 657 q 461 663 483 660 q 419 665 439 665 q 327 636 358 665 q 290 526 296 607 l 282 378 l 444 378 l 444 314 l 278 314 l 263 25 q 226 -99 258 -43 q 85 -156 193 -156 q 25 -150 65 -156 l 25 -81 q 58 -85 42 -85 q 85 -86 74 -86 q 146 -60 129 -86 q 167 40 163 -33 l 182 314 l 74 314 l 74 378 z "},"¥":{"ha":815,"x_min":47,"x_max":768,"o":"m 329 646 l 231 646 l 414 360 l 421 360 l 597 646 l 496 646 l 496 724 l 768 724 l 768 646 l 697 646 l 506 346 l 649 346 l 649 286 l 467 286 l 461 276 l 461 211 l 649 211 l 649 153 l 461 153 l 461 78 l 594 78 l 594 0 l 235 0 l 235 78 l 364 78 l 364 153 l 174 153 l 174 211 l 364 211 l 364 278 l 358 286 l 174 286 l 174 346 l 318 346 l 119 646 l 47 646 l 47 724 l 329 724 l 329 646 z "},"₹":{"ha":740,"x_min":85,"x_max":669,"o":"m 85 374 l 300 374 q 475 486 460 374 l 85 486 l 85 546 l 475 546 q 300 646 458 646 l 85 646 l 85 724 l 669 724 l 669 647 l 538 647 q 581 546 574 607 l 651 546 l 651 486 l 579 486 q 421 318 558 356 l 554 78 l 646 78 l 646 0 l 488 0 l 325 300 l 85 300 l 85 374 z "},"¤":{"ha":714,"x_min":54,"x_max":658,"o":"m 147 375 q 185 494 147 442 l 54 626 l 96 668 l 226 539 q 357 585 286 585 q 486 539 429 585 l 615 668 l 658 626 l 528 496 q 567 375 567 439 q 526 251 567 307 l 658 121 l 615 78 l 483 208 q 357 165 429 165 q 228 210 286 165 l 96 78 l 54 121 l 186 253 q 147 375 147 307 m 232 375 q 269 281 232 317 q 358 244 306 244 q 445 281 410 244 q 481 375 481 317 q 445 469 481 433 q 358 506 410 506 q 269 470 307 506 q 232 375 232 435 z "},"₥":{"ha":1261,"x_min":75,"x_max":1221,"o":"m 1221 0 l 925 0 l 925 79 l 1015 79 l 1015 367 q 976 508 1015 467 q 875 549 936 549 q 800 531 833 549 l 697 297 l 697 79 l 804 79 l 804 0 l 567 0 l 488 -181 l 413 -181 l 510 40 l 510 79 l 526 79 l 599 243 l 599 367 q 560 508 599 468 q 461 549 522 549 q 329 487 375 549 q 282 365 283 425 l 282 79 l 396 79 l 396 0 l 76 0 l 76 79 l 185 79 l 185 539 l 75 539 l 75 618 l 282 618 l 282 503 q 364 594 313 558 q 489 631 415 631 q 615 594 561 631 q 688 482 668 558 q 736 558 707 525 l 836 785 l 911 785 l 840 622 q 906 631 869 631 q 1053 575 994 631 q 1113 396 1113 519 l 1113 79 l 1221 79 l 1221 0 z "},"₤":{"ha":804,"x_min":50,"x_max":740,"o":"m 740 144 q 667 54 722 108 q 522 0 613 0 l 50 0 l 50 85 q 149 183 124 119 q 176 319 175 247 l 71 319 l 71 388 l 176 388 l 176 500 l 71 500 l 71 568 l 176 568 l 176 579 q 258 839 176 761 q 446 917 339 917 q 575 903 514 917 q 681 850 636 889 l 706 678 l 621 668 l 597 790 q 454 825 543 825 q 328 772 379 825 q 276 581 276 719 l 276 568 l 592 568 l 592 500 l 276 500 l 276 388 l 592 388 l 592 319 l 276 319 q 254 194 275 260 q 169 89 233 129 l 501 89 q 617 122 575 89 q 685 196 658 156 l 740 144 z "},"₡":{"ha":960,"x_min":60,"x_max":911,"o":"m 836 957 l 911 957 l 597 83 q 721 118 674 93 l 747 251 l 833 243 l 810 69 q 702 17 767 36 q 564 -10 638 -3 l 533 -99 l 458 -99 l 489 -14 q 381 -1 433 -14 l 346 -99 l 272 -99 l 314 19 q 131 176 201 67 q 60 447 60 285 q 179 784 60 651 q 483 917 299 917 q 626 890 561 917 l 650 957 l 724 957 l 688 857 q 769 769 739 822 l 836 957 m 497 825 q 259 724 350 825 q 168 451 168 624 q 217 237 168 321 q 347 113 265 153 l 597 810 q 497 825 551 825 m 517 78 l 521 78 l 736 676 q 660 778 715 738 l 413 89 q 517 78 465 78 z "},"₢":{"ha":926,"x_min":60,"x_max":833,"o":"m 803 69 q 501 -14 694 -14 q 182 117 304 -14 q 60 446 60 249 q 113 678 60 571 q 262 851 165 786 q 489 917 358 917 q 677 888 601 917 q 808 811 753 858 l 833 638 l 746 629 l 721 761 q 626 808 678 790 q 497 825 574 825 q 258 719 350 825 q 167 450 167 614 q 239 206 167 303 q 439 85 311 108 l 439 428 l 328 428 l 328 508 l 531 508 l 531 399 q 588 484 549 450 q 679 518 628 518 q 781 488 742 518 l 801 344 l 728 335 l 706 431 q 660 438 686 438 q 572 394 607 438 q 538 281 538 350 l 538 78 q 714 118 638 79 l 740 251 l 826 243 l 803 69 z "},"₫":{"ha":764,"x_min":64,"x_max":703,"o":"m 286 881 l 515 881 l 515 956 l 607 956 l 607 881 l 692 881 l 692 814 l 607 814 l 607 258 l 703 258 l 703 190 l 515 190 l 515 303 q 440 215 489 251 q 307 178 392 178 q 130 249 196 178 q 64 451 64 319 q 122 647 64 561 q 317 733 179 733 q 515 633 460 733 l 515 814 l 286 814 l 286 881 m 338 663 q 201 602 242 663 q 161 457 161 542 q 208 300 161 350 q 329 250 256 250 q 466 310 417 250 q 515 435 515 369 l 515 510 q 466 619 513 576 q 338 663 419 663 m 103 72 l 642 72 l 642 0 l 103 0 l 103 72 z "},"₣":{"ha":1088,"x_min":58,"x_max":1018,"o":"m 274 814 l 274 513 l 735 513 l 735 400 q 794 488 753 453 q 888 522 836 522 q 994 490 954 522 l 1018 335 l 939 325 l 915 431 q 867 439 890 439 q 777 394 813 439 q 742 276 742 349 l 742 79 l 885 79 l 885 0 l 535 0 l 535 79 l 643 79 l 643 424 l 274 424 l 274 89 l 431 89 l 431 0 l 58 0 l 58 89 l 172 89 l 172 814 l 58 814 l 58 903 l 715 903 l 743 643 l 653 633 l 625 814 l 274 814 z "},"₦":{"ha":1065,"x_min":74,"x_max":999,"o":"m 997 814 l 885 814 l 885 583 l 999 583 l 999 515 l 885 515 l 885 390 l 999 390 l 999 324 l 885 324 l 885 0 l 819 0 l 581 324 l 290 324 l 290 89 l 433 89 l 433 0 l 89 0 l 89 89 l 193 89 l 193 324 l 78 324 l 78 390 l 193 390 l 193 515 l 78 515 l 78 583 l 193 583 l 193 814 l 74 814 l 74 903 l 268 903 l 504 583 l 788 583 l 788 814 l 651 814 l 651 903 l 997 903 l 997 814 m 290 711 l 290 583 l 389 583 l 296 711 l 290 711 m 290 515 l 290 390 l 532 390 l 439 515 l 290 515 m 554 515 l 646 390 l 788 390 l 788 515 l 554 515 m 782 207 l 788 207 l 788 324 l 696 324 l 782 207 z "},"₧":{"ha":1828,"x_min":57,"x_max":1768,"o":"m 754 626 q 668 410 754 485 q 449 336 582 336 l 272 336 l 272 89 l 428 89 l 428 0 l 57 0 l 57 89 l 171 89 l 171 814 l 57 814 l 57 903 l 440 903 q 681 821 608 903 q 754 626 754 739 m 1256 167 q 1060 -14 1231 -14 q 917 39 967 -14 q 868 182 868 92 l 868 540 l 768 540 l 768 618 l 868 618 l 868 817 l 965 817 l 965 618 l 1207 618 l 1207 540 l 965 540 l 965 194 q 990 105 965 139 q 1069 71 1014 71 q 1137 93 1106 71 q 1182 190 1168 115 l 1256 167 m 646 624 q 594 763 646 711 q 432 814 542 814 l 272 814 l 272 425 l 436 425 q 646 624 646 425 m 1768 179 q 1692 38 1768 89 q 1506 -14 1617 -14 q 1376 3 1440 -14 q 1271 47 1311 21 l 1290 188 l 1368 179 l 1364 97 q 1501 67 1428 67 q 1617 92 1567 67 q 1668 171 1668 118 q 1629 243 1668 222 q 1533 274 1590 264 q 1417 297 1475 283 q 1319 345 1358 311 q 1281 451 1281 379 q 1353 590 1281 550 q 1510 631 1425 631 q 1630 614 1574 631 q 1725 574 1686 597 l 1740 429 l 1660 419 l 1644 519 q 1518 550 1586 550 q 1422 528 1460 550 q 1385 458 1385 506 q 1424 390 1385 410 q 1519 360 1463 369 q 1633 338 1576 351 q 1729 288 1690 324 q 1768 179 1768 253 z "},"₨":{"ha":1308,"x_min":58,"x_max":1256,"o":"m 1004 551 q 910 529 947 551 q 872 458 872 507 q 911 389 872 410 q 1007 358 950 368 q 1121 335 1064 349 q 1217 287 1178 321 q 1256 181 1256 253 q 1189 40 1256 94 q 988 -14 1122 -14 q 720 59 836 -14 q 546 242 604 132 l 469 378 l 274 378 l 274 89 l 396 89 l 396 0 l 58 0 l 58 89 l 171 89 l 171 814 l 58 814 l 58 903 l 447 903 q 688 830 614 903 q 761 649 761 757 q 711 490 761 557 q 567 397 661 422 l 636 279 q 785 126 686 188 q 994 65 883 65 q 1110 91 1064 65 q 1156 172 1156 117 q 1117 245 1156 224 q 1019 276 1078 267 q 903 299 961 285 q 807 346 846 313 q 768 451 768 379 q 840 590 768 550 q 996 631 913 631 q 1117 614 1061 631 q 1213 574 1172 597 l 1226 429 l 1147 419 l 1132 518 q 1072 542 1103 532 q 1004 551 1042 551 m 438 463 q 603 510 554 463 q 653 643 653 558 q 602 773 653 732 q 435 814 551 814 l 274 814 l 274 463 l 438 463 z "},"₪":{"ha":1085,"x_min":125,"x_max":985,"o":"m 125 0 l 125 903 l 421 903 q 624 867 557 903 q 711 749 690 832 q 732 524 732 667 l 732 339 l 632 339 l 632 531 q 620 714 632 653 q 564 796 608 775 q 422 817 519 817 l 225 817 l 225 0 l 125 0 m 478 86 l 694 86 q 828 115 789 86 q 876 210 868 144 q 885 383 885 275 l 885 903 l 985 903 l 985 390 q 969 162 985 247 q 891 38 953 76 q 693 0 829 0 l 378 0 l 378 564 l 478 564 l 478 86 z "},"₩":{"ha":1383,"x_min":46,"x_max":1336,"o":"m 1336 814 l 1260 814 l 1201 617 l 1304 617 l 1304 544 l 1179 544 l 1142 419 l 1304 419 l 1304 347 l 1121 347 l 1018 0 l 936 0 l 821 347 l 574 347 l 463 0 l 381 0 l 269 347 l 83 347 l 83 419 l 247 419 l 207 544 l 83 544 l 83 617 l 185 617 l 122 814 l 46 814 l 46 903 l 358 903 l 358 814 l 231 814 l 288 617 l 571 617 l 635 814 l 544 814 l 544 903 l 856 903 l 856 814 l 765 814 l 829 617 l 1104 617 l 1157 814 l 1026 814 l 1026 903 l 1336 903 l 1336 814 m 693 722 l 658 617 l 733 617 l 699 722 l 693 722 m 310 544 l 346 419 l 507 419 l 547 544 l 310 544 m 853 544 l 893 419 l 1051 419 l 1085 544 l 853 544 m 636 544 l 596 419 l 797 419 l 757 544 l 636 544 m 976 161 l 982 161 l 1032 347 l 917 347 l 976 161 m 421 165 l 426 165 l 485 347 l 367 347 l 421 165 z "},"₭":{"ha":943,"x_min":67,"x_max":890,"o":"m 89 415 l 89 503 l 181 503 l 181 814 l 67 814 l 67 903 l 389 903 l 389 814 l 283 814 l 283 503 l 431 503 l 663 815 l 556 815 l 556 904 l 874 904 l 874 815 l 771 815 l 536 503 l 790 503 l 790 415 l 550 415 l 789 89 l 890 89 l 890 0 l 565 0 l 565 89 l 672 89 l 433 415 l 283 415 l 283 89 l 388 89 l 388 0 l 67 0 l 67 89 l 181 89 l 181 415 l 89 415 z "},"₮":{"ha":878,"x_min":38,"x_max":840,"o":"m 840 628 l 750 621 l 722 814 l 489 814 l 489 544 l 683 615 l 683 538 l 489 468 l 489 369 l 683 439 l 683 364 l 489 293 l 489 89 l 649 89 l 649 0 l 232 0 l 232 89 l 388 89 l 388 257 l 206 192 l 206 268 l 388 333 l 388 432 l 206 367 l 206 442 l 388 507 l 388 814 l 154 814 l 126 621 l 38 628 l 64 903 l 813 903 l 840 628 z "},"₱":{"ha":908,"x_min":75,"x_max":863,"o":"m 81 663 l 81 725 l 189 725 l 189 814 l 75 814 l 75 903 l 458 903 q 660 853 588 903 q 757 725 732 803 l 863 725 l 863 663 l 769 663 q 772 644 771 653 q 772 626 772 636 q 772 600 772 613 q 769 576 771 588 l 863 576 l 863 514 l 754 514 q 646 381 722 426 q 467 336 569 336 l 290 336 l 290 89 l 446 89 l 446 0 l 75 0 l 75 89 l 189 89 l 189 514 l 81 514 l 81 576 l 189 576 l 189 663 l 81 663 m 290 814 l 290 725 l 640 725 q 450 814 592 814 l 290 814 m 664 624 q 661 663 664 638 l 290 663 l 290 576 l 660 576 q 664 624 664 597 m 454 425 q 638 514 589 425 l 290 514 l 290 425 l 454 425 z "},"₴":{"ha":818,"x_min":56,"x_max":761,"o":"m 56 515 l 56 569 l 542 569 q 594 681 594 611 q 542 792 594 757 q 408 826 490 826 q 320 819 369 826 q 225 792 271 813 l 207 654 l 126 663 l 139 851 q 269 898 186 879 q 425 917 351 917 q 619 865 536 917 q 703 690 703 814 q 668 569 703 617 l 761 569 l 761 515 l 608 515 q 515 471 568 489 q 406 433 461 453 l 364 418 l 761 418 l 761 364 l 265 364 q 208 238 208 315 q 268 113 208 150 q 422 76 328 76 q 516 85 468 76 q 600 118 564 94 l 625 249 l 713 239 l 689 69 q 414 -14 585 -14 q 190 44 281 -14 q 100 226 100 101 q 142 364 100 310 l 56 364 l 56 418 l 200 418 q 286 463 239 444 q 382 497 333 481 q 433 515 413 507 l 56 515 z "},"₺":{"ha":832,"x_min":81,"x_max":789,"o":"m 81 319 l 199 369 l 199 472 l 81 422 l 81 493 l 199 543 l 199 814 l 85 814 l 85 903 l 436 903 l 436 814 l 301 814 l 301 588 l 588 711 l 588 640 l 301 517 l 301 414 l 588 538 l 588 467 l 301 343 l 301 89 l 389 89 q 621 188 553 89 q 689 464 689 288 l 789 464 q 697 130 789 260 q 393 0 606 0 l 85 0 l 85 89 l 199 89 l 199 299 l 81 249 l 81 319 z "},"₽":{"ha":822,"x_min":81,"x_max":778,"o":"m 81 89 l 194 89 l 194 192 l 81 192 l 81 264 l 194 264 l 194 354 l 81 354 l 81 442 l 194 442 l 194 814 l 81 814 l 81 903 l 464 903 q 705 825 632 903 q 778 635 778 747 q 692 424 778 493 q 472 354 606 354 l 296 354 l 296 264 l 649 264 l 649 192 l 296 192 l 296 89 l 450 89 l 450 0 l 81 0 l 81 89 m 458 442 q 669 631 669 442 q 456 814 669 814 l 296 814 l 296 442 l 458 442 z "},"½":{"ha":1036,"x_min":57,"x_max":1004,"o":"m 779 903 l 515 451 l 263 0 l 189 0 l 463 468 l 706 903 l 779 903 m 57 460 l 161 460 l 161 840 l 57 840 l 57 903 l 242 903 l 242 460 l 342 460 l 342 397 l 57 397 l 57 460 m 679 350 l 617 357 l 632 463 q 708 501 663 489 q 797 514 753 514 q 925 472 886 514 q 964 379 964 431 q 915 251 964 313 q 805 140 865 189 q 708 63 744 92 l 925 63 l 939 138 l 1004 131 l 990 0 l 613 0 l 606 57 q 726 158 664 106 q 832 265 789 211 q 875 372 875 319 q 852 428 875 406 q 776 451 829 451 q 697 428 733 451 l 679 350 z "},"¼":{"ha":983,"x_min":61,"x_max":939,"o":"m 788 903 l 524 451 l 271 0 l 197 0 l 471 468 l 714 903 l 788 903 m 61 460 l 165 460 l 165 840 l 61 840 l 61 903 l 246 903 l 246 460 l 346 460 l 346 397 l 61 397 l 61 460 m 774 -1 l 774 124 l 524 124 l 515 183 l 696 506 l 854 506 l 854 185 l 939 185 l 933 124 l 854 124 l 854 -1 l 774 -1 m 736 443 l 589 185 l 774 185 l 774 443 l 736 443 z "},"¾":{"ha":1019,"x_min":57,"x_max":975,"o":"m 135 763 l 72 769 l 85 865 q 165 904 117 892 q 253 917 213 917 q 365 883 322 917 q 407 793 407 850 q 384 723 407 756 q 304 674 361 690 l 304 671 q 402 624 375 661 q 429 544 429 588 q 370 432 429 469 q 229 394 311 394 q 112 431 158 394 q 57 529 65 467 l 115 546 q 151 485 124 513 q 232 458 178 458 q 313 485 283 458 q 342 553 342 513 q 310 615 342 592 q 197 640 278 639 l 197 693 q 321 782 321 699 q 233 854 321 854 q 150 832 189 854 l 135 763 m 826 903 l 563 451 l 310 0 l 236 0 l 510 468 l 753 903 l 826 903 m 810 -1 l 810 124 l 560 124 l 551 183 l 732 506 l 890 506 l 890 185 l 975 185 l 969 124 l 890 124 l 890 -1 l 810 -1 m 772 443 l 625 185 l 810 185 l 810 443 l 772 443 z "},"⅓":{"ha":1033,"x_min":57,"x_max":988,"o":"m 771 903 l 507 451 l 254 0 l 181 0 l 454 468 l 697 903 l 771 903 m 57 460 l 161 460 l 161 840 l 57 840 l 57 903 l 242 903 l 242 460 l 342 460 l 342 397 l 57 397 l 57 460 m 693 358 l 631 365 l 643 461 q 723 501 675 489 q 811 513 771 513 q 923 478 881 513 q 965 389 965 444 q 942 319 965 351 q 863 269 919 286 l 863 267 q 960 219 933 256 q 988 140 988 183 q 928 28 988 65 q 788 -10 869 -10 q 670 26 717 -10 q 615 125 624 63 l 674 142 q 709 81 682 108 q 790 54 736 54 q 871 81 842 54 q 900 149 900 108 q 868 210 900 188 q 756 236 836 233 l 756 289 q 879 378 879 294 q 792 450 879 450 q 708 428 747 450 l 693 358 z "},"⅔":{"ha":1104,"x_min":53,"x_max":1058,"o":"m 126 753 l 64 760 l 79 865 q 155 904 110 892 q 244 917 200 917 q 372 875 333 917 q 411 782 411 833 q 362 653 411 715 q 252 543 313 592 q 156 465 192 494 l 372 465 l 386 540 l 451 533 l 438 403 l 60 403 l 53 460 q 174 561 111 508 q 279 668 236 614 q 322 775 322 722 q 299 831 322 808 q 224 854 276 854 q 144 831 181 854 l 126 753 m 857 903 l 593 451 l 340 0 l 267 0 l 540 468 l 783 903 l 857 903 m 764 358 l 701 365 l 714 461 q 793 501 744 489 q 882 513 842 513 q 994 478 951 513 q 1036 389 1036 444 q 1013 319 1036 351 q 933 269 989 286 l 933 267 q 1031 219 1004 256 q 1058 140 1058 183 q 999 28 1058 65 q 858 -10 939 -10 q 741 26 788 -10 q 686 125 694 63 l 744 142 q 780 81 753 108 q 861 54 807 54 q 942 81 914 54 q 971 149 971 108 q 939 210 971 188 q 826 236 907 233 l 826 289 q 950 378 950 294 q 863 450 950 450 q 779 428 818 450 l 764 358 z "},"⅛":{"ha":1022,"x_min":57,"x_max":978,"o":"m 785 903 l 521 451 l 268 0 l 194 0 l 468 468 l 711 903 l 785 903 m 57 460 l 161 460 l 161 840 l 57 840 l 57 903 l 242 903 l 242 460 l 342 460 l 342 397 l 57 397 l 57 460 m 778 -8 q 644 25 697 -8 q 590 124 590 58 q 628 208 590 179 q 714 254 667 236 q 637 304 669 275 q 604 381 604 333 q 653 477 604 440 q 783 514 703 514 q 910 479 860 514 q 960 389 960 444 q 926 316 960 342 q 849 272 893 290 q 938 218 899 250 q 978 131 978 186 q 921 28 978 65 q 778 -8 864 -8 m 692 389 q 724 333 692 353 q 800 294 756 314 q 853 327 831 308 q 876 379 876 346 q 848 437 876 419 q 783 454 819 454 q 692 389 692 454 m 782 51 q 860 72 829 51 q 890 125 890 92 q 851 190 890 167 q 761 233 811 213 q 699 196 725 217 q 672 138 672 175 q 782 51 672 51 z "},"⁄":{"ha":189,"x_min":-200,"x_max":390,"o":"m 390 903 l 126 451 l -126 0 l -200 0 l 74 468 l 317 903 l 390 903 z "},"ℓ":{"ha":540,"x_min":46,"x_max":506,"o":"m 79 265 l 46 321 l 147 389 l 147 682 q 192 851 147 786 q 339 917 238 917 q 467 867 428 917 q 506 747 506 817 q 432 551 506 642 q 246 376 358 460 l 246 213 q 270 99 246 128 q 333 69 294 69 q 456 113 394 69 l 476 42 q 318 -14 413 -14 q 147 199 147 -14 l 147 308 l 79 265 m 246 664 l 246 464 q 367 594 325 529 q 410 735 410 658 q 331 832 410 832 q 259 785 272 832 q 246 664 246 739 z "},"℮":{"ha":849,"x_min":60,"x_max":804,"o":"m 804 326 l 210 326 q 204 322 204 326 l 204 132 q 213 108 204 119 q 303 36 246 68 q 431 4 360 4 q 576 36 508 4 q 688 121 643 68 l 721 121 q 597 22 669 61 q 431 -17 525 -17 q 165 86 269 -17 q 60 336 60 189 q 165 586 60 483 q 431 689 269 689 q 698 586 592 689 q 804 336 804 483 l 804 326 m 658 354 l 658 544 q 651 569 658 563 q 562 637 624 606 q 431 668 500 668 q 299 634 361 668 q 214 565 238 600 q 204 539 204 550 l 204 354 q 210 349 204 349 l 657 349 q 658 354 658 349 z "},"№":{"ha":1363,"x_min":65,"x_max":1293,"o":"m 871 521 q 924 672 871 610 q 1082 735 978 735 q 1238 673 1186 735 q 1290 525 1290 611 q 1232 373 1290 432 q 1076 314 1174 314 q 926 372 982 314 q 871 521 871 429 m 550 724 l 850 724 l 850 646 l 757 646 l 757 0 l 696 0 l 263 553 l 257 553 l 257 78 l 375 78 l 375 0 l 76 0 l 76 78 l 164 78 l 164 646 l 65 646 l 65 724 l 235 724 l 658 185 l 664 185 l 664 646 l 550 646 l 550 724 m 957 526 q 988 421 957 464 q 1079 378 1018 378 q 1172 419 1139 378 q 1204 526 1204 461 q 1081 669 1204 669 q 989 630 1021 669 q 957 526 957 590 m 872 194 l 872 264 l 1293 264 l 1293 194 l 872 194 z "},"ⁱ":{"ha":285,"x_min":38,"x_max":256,"o":"m 103 1085 l 103 1172 l 188 1172 l 188 1085 l 103 1085 m 40 636 l 108 636 l 108 919 l 38 919 l 38 979 l 189 979 l 189 636 l 256 636 l 256 576 l 40 576 l 40 636 z "},"ⁿ":{"ha":565,"x_min":38,"x_max":542,"o":"m 325 636 l 393 636 l 393 813 q 369 902 393 876 q 303 928 344 928 q 222 898 251 928 q 189 825 192 868 l 189 636 l 256 636 l 256 576 l 40 576 l 40 636 l 108 636 l 108 919 l 38 919 l 38 979 l 189 979 l 189 910 q 331 988 235 988 q 433 951 390 988 q 475 836 475 915 l 475 636 l 542 636 l 542 576 l 325 576 l 325 636 z "},"⁼":{"ha":557,"x_min":71,"x_max":483,"o":"m 71 896 l 71 951 l 483 951 l 483 896 l 71 896 m 71 708 l 71 763 l 483 763 l 483 708 l 71 708 z "},"⁻":{"ha":457,"x_min":68,"x_max":390,"o":"m 68 803 l 68 857 l 390 857 l 390 803 l 68 803 z "},"⁺":{"ha":406,"x_min":42,"x_max":364,"o":"m 42 803 l 42 857 l 178 857 l 178 988 l 235 988 l 235 857 l 364 857 l 364 803 l 235 803 l 235 674 l 178 674 l 178 803 l 42 803 z "},"⁰":{"ha":525,"x_min":54,"x_max":472,"o":"m 54 824 q 96 1008 54 925 q 264 1090 138 1090 q 432 1007 392 1090 q 472 831 472 924 q 426 644 472 719 q 260 568 379 568 q 98 643 142 568 q 54 824 54 718 m 142 832 q 165 691 142 749 q 261 633 188 633 q 360 690 335 633 q 385 835 385 746 q 363 967 385 910 q 263 1025 342 1025 q 164 967 186 1025 q 142 832 142 910 z "},"¹":{"ha":361,"x_min":49,"x_max":333,"o":"m 49 639 l 153 639 l 153 1019 l 49 1019 l 49 1082 l 233 1082 l 233 639 l 333 639 l 333 576 l 49 576 l 49 639 z "},"²":{"ha":482,"x_min":47,"x_max":446,"o":"m 121 926 l 58 933 l 74 1039 q 149 1078 104 1065 q 239 1090 194 1090 q 367 1049 328 1090 q 406 956 406 1007 q 356 828 406 889 q 247 717 307 767 q 150 639 186 668 l 367 639 l 381 714 l 446 707 l 432 576 l 54 576 l 47 633 q 168 735 106 682 q 274 842 231 788 q 317 949 317 896 q 294 1005 317 982 q 218 1028 271 1028 q 139 1004 175 1028 l 121 926 z "},"³":{"ha":475,"x_min":51,"x_max":424,"o":"m 129 935 l 67 942 l 79 1038 q 159 1076 111 1064 q 247 1089 207 1089 q 359 1056 317 1089 q 401 965 401 1022 q 378 895 401 928 q 299 846 356 863 l 299 843 q 397 797 369 833 q 424 717 424 760 q 365 604 424 642 q 224 567 306 567 q 106 603 153 567 q 51 701 60 639 l 110 718 q 145 658 118 685 q 226 631 172 631 q 307 658 278 631 q 336 725 336 685 q 304 788 336 764 q 192 813 272 811 l 192 865 q 315 954 315 871 q 228 1026 315 1026 q 144 1004 183 1026 l 129 935 z "},"⁴":{"ha":494,"x_min":31,"x_max":454,"o":"m 289 575 l 289 700 l 39 700 l 31 760 l 211 1082 l 369 1082 l 369 761 l 454 761 l 449 700 l 369 700 l 369 575 l 289 575 m 251 1019 l 104 761 l 289 761 l 289 1019 l 251 1019 z "},"⁵":{"ha":464,"x_min":49,"x_max":419,"o":"m 419 728 q 361 606 419 644 q 221 567 303 567 q 103 603 150 567 q 49 701 57 639 l 107 718 q 142 658 115 685 q 222 631 168 631 q 333 728 333 631 q 287 810 333 792 q 183 829 240 829 q 144 828 163 829 q 107 825 125 826 l 79 847 l 79 1082 l 392 1082 l 399 957 l 335 950 l 326 1019 l 156 1019 l 156 888 l 193 888 q 350 857 281 888 q 419 728 419 826 z "},"⁶":{"ha":485,"x_min":54,"x_max":428,"o":"m 271 1028 q 172 979 203 1028 q 140 819 142 931 q 186 872 154 849 q 278 894 218 894 q 394 847 361 894 q 428 740 428 800 q 383 617 428 667 q 246 568 338 568 q 97 638 139 568 q 54 810 54 707 q 106 1010 54 929 q 261 1090 157 1090 q 337 1076 296 1090 q 417 1022 378 1063 l 372 975 q 317 1019 343 1010 q 271 1028 292 1028 m 254 833 q 169 803 194 833 q 143 742 144 774 q 171 664 149 694 q 249 633 193 633 q 346 736 346 633 q 254 833 346 833 z "},"⁷":{"ha":428,"x_min":40,"x_max":406,"o":"m 40 1082 l 394 1082 l 406 1044 l 206 576 l 125 576 l 318 1019 l 111 1019 l 111 933 l 40 933 l 40 1082 z "},"⁸":{"ha":490,"x_min":51,"x_max":439,"o":"m 239 568 q 105 602 158 568 q 51 700 51 636 q 90 783 51 756 q 175 831 128 811 q 98 880 131 851 q 65 957 65 908 q 115 1053 65 1017 q 244 1090 164 1090 q 371 1056 321 1090 q 421 965 421 1022 q 388 892 421 917 q 310 849 354 867 q 399 795 360 826 q 439 707 439 764 q 382 605 439 642 q 239 568 325 568 m 153 965 q 185 910 153 931 q 261 871 217 889 q 315 904 292 886 q 338 956 338 922 q 309 1013 338 996 q 244 1031 281 1031 q 153 965 153 1031 m 243 628 q 321 648 290 628 q 351 701 351 668 q 312 766 351 743 q 222 810 272 789 q 160 772 186 793 q 133 714 133 751 q 243 628 133 628 z "},"⁹":{"ha":483,"x_min":54,"x_max":429,"o":"m 217 631 q 312 679 285 631 q 342 839 339 728 q 296 786 328 808 q 206 764 264 764 q 88 811 121 764 q 54 918 54 858 q 100 1041 54 992 q 236 1090 146 1090 q 386 1021 343 1090 q 429 846 429 951 q 379 647 429 726 q 226 568 329 568 q 148 582 192 568 q 67 636 104 596 l 111 683 q 168 640 139 649 q 217 631 197 631 m 228 825 q 309 852 283 825 q 339 910 335 879 q 313 993 335 961 q 235 1025 292 1025 q 136 922 136 1025 q 228 825 136 825 z "},"⁽":{"ha":306,"x_min":54,"x_max":269,"o":"m 199 1188 l 269 1188 q 122 807 122 1010 q 269 422 122 596 l 197 422 q 88 612 122 515 q 54 807 54 708 q 199 1188 54 1011 z "},"⁾":{"ha":304,"x_min":33,"x_max":250,"o":"m 106 421 l 33 421 q 182 800 182 599 q 33 1186 182 1008 l 107 1186 q 215 994 181 1092 q 250 800 250 897 q 106 421 250 599 z "},"ₐ":{"ha":483,"x_min":44,"x_max":451,"o":"m 224 357 q 182 351 200 357 q 146 335 164 344 l 131 265 l 68 272 l 81 365 q 235 411 143 411 q 393 275 393 411 l 393 86 q 426 44 393 44 q 451 49 439 44 l 451 6 q 392 -10 425 -10 q 313 74 315 -10 q 258 16 294 42 q 172 -10 222 -10 q 87 15 129 -10 q 44 104 44 40 q 107 203 44 181 q 238 226 169 226 q 276 225 257 226 q 313 222 296 224 l 313 265 q 292 331 313 306 q 224 357 271 357 m 313 163 l 313 181 q 277 185 296 183 q 240 186 258 186 q 164 172 199 186 q 129 114 129 158 q 152 63 129 78 q 203 47 175 47 q 278 78 244 47 q 313 163 313 108 z "},"ₑ":{"ha":467,"x_min":44,"x_max":435,"o":"m 251 54 q 325 76 300 54 q 357 132 350 99 l 424 118 q 371 28 417 67 q 244 -10 325 -10 q 100 44 156 -10 q 44 194 44 97 q 97 350 44 289 q 239 411 149 411 q 386 342 338 411 q 414 186 435 274 l 129 186 q 251 54 136 54 m 238 351 q 161 319 186 351 q 131 238 136 286 l 336 238 q 318 315 342 279 q 238 351 294 351 z "},"ₕ":{"ha":556,"x_min":31,"x_max":531,"o":"m 315 60 l 383 60 l 383 236 q 358 326 383 300 q 292 351 332 351 q 211 322 242 351 q 178 249 181 292 l 178 60 l 244 60 l 244 0 l 31 0 l 31 60 l 97 60 l 97 561 l 31 561 l 31 621 l 178 621 l 178 333 q 319 411 224 411 q 422 375 381 411 q 464 260 464 339 l 464 60 l 531 60 l 531 0 l 315 0 l 315 60 z "},"ₖ":{"ha":514,"x_min":28,"x_max":494,"o":"m 276 403 l 475 403 l 475 343 l 413 343 l 311 219 l 443 60 l 494 60 l 494 0 l 294 0 l 294 60 l 353 60 l 247 183 l 178 183 l 178 60 l 233 60 l 233 0 l 31 0 l 31 60 l 97 60 l 97 561 l 28 561 l 28 621 l 178 621 l 178 240 l 253 240 l 338 343 l 276 343 l 276 403 z "},"ₗ":{"ha":275,"x_min":28,"x_max":246,"o":"m 31 60 l 97 60 l 97 561 l 28 561 l 28 621 l 178 621 l 178 60 l 246 60 l 246 0 l 31 0 l 31 60 z "},"ₘ":{"ha":833,"x_min":38,"x_max":808,"o":"m 593 60 l 661 60 l 661 236 q 637 325 661 299 q 574 351 613 351 q 494 317 522 351 q 465 244 467 283 l 465 60 l 532 60 l 532 0 l 317 0 l 317 60 l 385 60 l 385 236 q 360 326 385 300 q 297 351 336 351 q 218 318 244 351 q 189 246 192 285 l 189 60 l 253 60 l 253 0 l 40 0 l 40 60 l 108 60 l 108 343 l 38 343 l 38 403 l 189 403 l 189 332 q 324 411 231 411 q 407 388 369 411 q 458 314 444 364 q 513 384 478 357 q 601 411 547 411 q 701 375 660 411 q 742 260 742 339 l 742 60 l 808 60 l 808 0 l 593 0 l 593 60 z "},"ₙ":{"ha":565,"x_min":38,"x_max":542,"o":"m 325 60 l 393 60 l 393 236 q 369 326 393 300 q 303 351 344 351 q 222 322 251 351 q 189 249 192 292 l 189 60 l 256 60 l 256 0 l 40 0 l 40 60 l 108 60 l 108 343 l 38 343 l 38 403 l 189 403 l 189 333 q 331 411 235 411 q 433 375 390 411 q 475 260 475 339 l 475 60 l 542 60 l 542 0 l 325 0 l 325 60 z "},"ₒ":{"ha":506,"x_min":43,"x_max":463,"o":"m 43 197 q 97 349 43 286 q 254 411 150 411 q 410 349 358 411 q 463 201 463 286 q 404 49 463 108 q 249 -10 346 -10 q 99 48 154 -10 q 43 197 43 106 m 129 203 q 160 97 129 140 q 251 54 190 54 q 344 97 311 54 q 376 203 376 139 q 253 346 376 346 q 161 306 193 346 q 129 203 129 267 z "},"ₚ":{"ha":547,"x_min":26,"x_max":503,"o":"m 31 -132 l 97 -132 l 97 343 l 26 343 l 26 403 l 178 403 l 178 321 q 232 383 197 356 q 325 411 267 411 q 453 358 403 411 q 503 213 503 306 q 458 60 503 131 q 314 -10 413 -10 q 178 57 217 -10 l 178 -132 l 268 -132 l 268 -192 l 31 -192 l 31 -132 m 294 54 q 386 98 356 54 q 417 206 417 142 q 383 312 417 276 q 303 347 350 347 q 213 308 247 347 q 178 224 179 268 l 178 164 q 213 83 178 113 q 294 54 247 54 z "},"ₛ":{"ha":439,"x_min":47,"x_max":394,"o":"m 218 51 q 285 66 258 51 q 313 111 313 81 q 274 161 313 149 q 183 181 235 174 q 92 211 131 189 q 53 292 53 233 q 103 384 53 357 q 208 411 153 411 q 285 404 246 411 q 364 374 324 397 l 376 286 l 314 278 l 300 336 q 259 349 278 346 q 224 351 240 351 q 140 300 140 351 q 178 249 140 261 q 267 231 217 238 q 356 201 318 224 q 394 117 394 178 q 350 23 394 56 q 233 -10 306 -10 q 128 5 181 -10 q 47 39 76 19 l 60 136 l 122 129 l 121 76 q 218 51 156 51 z "},"ₜ":{"ha":393,"x_min":29,"x_max":367,"o":"m 29 403 l 93 403 l 93 531 l 175 531 l 175 403 l 332 403 l 332 343 l 175 343 l 175 131 q 238 54 175 54 q 279 67 258 54 q 308 129 300 81 l 367 111 q 229 -10 350 -10 q 93 119 93 -10 l 93 343 l 29 343 l 29 403 z "},"ₓ":{"ha":501,"x_min":26,"x_max":479,"o":"m 26 60 l 81 60 l 210 200 l 79 343 l 28 343 l 28 403 l 224 403 l 224 343 l 168 343 l 256 240 l 349 343 l 300 343 l 300 403 l 469 403 l 469 343 l 421 343 l 294 207 l 429 60 l 479 60 l 479 0 l 289 0 l 289 60 l 340 60 l 247 164 l 156 60 l 204 60 l 204 0 l 26 0 l 26 60 z "},"₌":{"ha":550,"x_min":68,"x_max":481,"o":"m 68 319 l 68 375 l 481 375 l 481 319 l 68 319 m 68 132 l 68 186 l 481 186 l 481 132 l 68 132 z "},"₋":{"ha":457,"x_min":68,"x_max":390,"o":"m 68 226 l 68 281 l 390 281 l 390 226 l 68 226 z "},"₊":{"ha":404,"x_min":40,"x_max":363,"o":"m 40 226 l 40 281 l 176 281 l 176 411 l 233 411 l 233 281 l 363 281 l 363 226 l 233 226 l 233 97 l 176 97 l 176 226 l 40 226 z "},"₀":{"ha":525,"x_min":54,"x_max":472,"o":"m 54 247 q 96 431 54 349 q 264 514 138 514 q 432 431 392 514 q 472 254 472 347 q 426 68 472 144 q 260 -8 379 -8 q 98 67 142 -8 q 54 247 54 142 m 142 256 q 165 115 142 172 q 261 57 188 57 q 360 113 335 57 q 385 258 385 169 q 363 391 385 333 q 263 449 342 449 q 164 391 186 449 q 142 256 142 333 z "},"₁":{"ha":361,"x_min":49,"x_max":333,"o":"m 49 63 l 153 63 l 153 443 l 49 443 l 49 506 l 233 506 l 233 63 l 333 63 l 333 0 l 49 0 l 49 63 z "},"₂":{"ha":482,"x_min":47,"x_max":446,"o":"m 121 350 l 58 357 l 74 463 q 149 501 104 489 q 239 514 194 514 q 367 472 328 514 q 406 379 406 431 q 356 251 406 313 q 247 140 307 189 q 150 63 186 92 l 367 63 l 381 138 l 446 131 l 432 0 l 54 0 l 47 57 q 168 158 106 106 q 274 265 231 211 q 317 372 317 319 q 294 428 317 406 q 218 451 271 451 q 139 428 175 451 l 121 350 z "},"₃":{"ha":475,"x_min":51,"x_max":424,"o":"m 129 358 l 67 365 l 79 461 q 159 501 111 489 q 247 513 207 513 q 359 478 317 513 q 401 389 401 444 q 378 319 401 351 q 299 269 356 286 l 299 267 q 397 219 369 256 q 424 140 424 183 q 365 28 424 65 q 224 -10 306 -10 q 106 26 153 -10 q 51 125 60 63 l 110 142 q 145 81 118 108 q 226 54 172 54 q 307 81 278 54 q 336 149 336 108 q 304 210 336 188 q 192 236 272 233 l 192 289 q 315 378 315 294 q 228 450 315 450 q 144 428 183 450 l 129 358 z "},"₄":{"ha":494,"x_min":31,"x_max":454,"o":"m 289 -1 l 289 124 l 39 124 l 31 183 l 211 506 l 369 506 l 369 185 l 454 185 l 449 124 l 369 124 l 369 -1 l 289 -1 m 251 443 l 104 185 l 289 185 l 289 443 l 251 443 z "},"₅":{"ha":464,"x_min":49,"x_max":419,"o":"m 419 151 q 361 29 419 68 q 221 -10 303 -10 q 103 26 150 -10 q 49 125 57 63 l 107 142 q 142 81 115 108 q 222 54 168 54 q 333 151 333 54 q 287 235 333 217 q 183 253 240 253 q 144 251 163 253 q 107 249 125 250 l 79 271 l 79 506 l 392 506 l 399 381 l 335 374 l 326 443 l 156 443 l 156 311 l 193 311 q 350 281 281 311 q 419 151 419 250 z "},"₆":{"ha":483,"x_min":54,"x_max":428,"o":"m 271 451 q 172 402 203 451 q 140 243 142 353 q 186 295 154 272 q 278 318 218 318 q 394 271 361 318 q 428 164 428 224 q 383 42 428 92 q 246 -8 338 -8 q 97 61 139 -8 q 54 233 54 131 q 106 433 54 353 q 261 514 157 514 q 337 500 296 514 q 417 446 378 486 l 372 399 q 317 442 343 433 q 271 451 292 451 m 254 257 q 169 227 194 257 q 143 165 144 197 q 171 87 149 117 q 249 57 193 57 q 346 160 346 57 q 254 257 346 257 z "},"₇":{"ha":428,"x_min":40,"x_max":406,"o":"m 40 506 l 394 506 l 406 468 l 206 0 l 125 0 l 318 443 l 111 443 l 111 357 l 40 357 l 40 506 z "},"₈":{"ha":489,"x_min":51,"x_max":439,"o":"m 239 -8 q 105 25 158 -8 q 51 124 51 58 q 90 208 51 179 q 175 254 128 236 q 98 304 131 275 q 65 381 65 333 q 115 477 65 440 q 244 514 164 514 q 371 479 321 514 q 421 389 421 444 q 388 316 421 342 q 310 272 354 290 q 399 218 360 250 q 439 131 439 186 q 382 28 439 65 q 239 -8 325 -8 m 153 389 q 185 333 153 353 q 261 294 217 314 q 315 327 292 308 q 338 379 338 346 q 309 437 338 419 q 244 454 281 454 q 153 389 153 454 m 243 51 q 321 72 290 51 q 351 125 351 92 q 312 190 351 167 q 222 233 272 213 q 160 196 186 217 q 133 138 133 175 q 243 51 133 51 z "},"₉":{"ha":483,"x_min":54,"x_max":429,"o":"m 217 54 q 312 103 285 54 q 342 263 339 153 q 296 210 328 232 q 206 188 264 188 q 88 235 121 188 q 54 342 54 282 q 100 464 54 414 q 236 514 146 514 q 386 444 343 514 q 429 269 429 375 q 379 71 429 150 q 226 -8 329 -8 q 148 6 192 -8 q 67 60 104 19 l 111 107 q 168 63 139 72 q 217 54 197 54 m 228 249 q 309 276 283 249 q 339 333 335 303 q 313 417 335 386 q 235 449 292 449 q 136 346 136 449 q 228 249 136 249 z "},"₍":{"ha":303,"x_min":54,"x_max":269,"o":"m 199 611 l 269 611 q 122 231 122 433 q 269 -154 122 19 l 197 -154 q 88 36 122 -61 q 54 231 54 133 q 199 611 54 435 z "},"₎":{"ha":304,"x_min":33,"x_max":250,"o":"m 106 -156 l 33 -156 q 182 224 182 22 q 33 610 182 432 l 107 610 q 215 419 181 517 q 250 224 250 321 q 106 -156 250 22 z "},"☐":{"ha":1221,"x_min":140,"x_max":1081,"o":"m 140 0 l 140 904 l 1081 904 l 1081 0 l 140 0 m 222 822 l 222 81 l 1000 81 l 1000 822 l 222 822 z "},"☑":{"ha":1221,"x_min":140,"x_max":1081,"o":"m 140 0 l 140 904 l 1081 904 l 1081 0 l 140 0 m 222 822 l 222 81 l 1000 81 l 1000 822 l 222 822 m 418 444 l 538 240 l 814 774 l 935 701 l 538 151 l 313 346 l 418 444 z "},"✓":{"ha":890,"x_min":138,"x_max":811,"o":"m 253 471 l 382 251 l 681 828 l 811 749 l 381 154 l 138 365 l 253 471 z "},"↓":{"ha":740,"x_min":60,"x_max":681,"o":"m 681 351 l 388 -29 l 351 -29 l 60 351 l 150 351 l 326 149 l 326 974 l 413 974 l 413 149 l 590 351 l 681 351 z "},"←":{"ha":1063,"x_min":60,"x_max":1063,"o":"m 440 40 l 60 331 l 60 365 l 439 661 l 439 571 l 236 390 l 1063 390 l 1063 307 l 235 307 l 440 131 l 440 40 z "},"→":{"ha":1064,"x_min":0,"x_max":1004,"o":"m 1004 331 l 622 40 l 622 131 l 828 307 l 0 307 l 0 390 l 826 390 l 624 571 l 624 661 l 1004 365 l 1004 331 z "},"↑":{"ha":740,"x_min":60,"x_max":681,"o":"m 390 974 l 681 593 l 590 593 l 414 797 l 414 -29 l 329 -29 l 329 794 l 150 594 l 60 594 l 356 974 l 390 974 z "},"‒":{"ha":482,"x_min":0,"x_max":482,"o":"m 482 390 l 482 307 l 0 307 l 0 390 l 482 390 z "},"↖":{"ha":871,"x_min":60,"x_max":811,"o":"m 85 819 l 560 756 l 496 692 l 228 710 l 811 128 l 751 68 l 167 650 l 183 381 l 118 318 l 60 796 l 85 819 z "},"↗":{"ha":871,"x_min":60,"x_max":811,"o":"m 311 756 l 786 819 l 811 796 l 751 318 l 686 381 l 703 649 l 121 68 l 60 128 l 642 710 l 376 692 l 311 756 z "},"↘":{"ha":871,"x_min":60,"x_max":811,"o":"m 786 68 l 311 132 l 376 197 l 642 176 l 60 760 l 121 819 l 703 239 l 686 507 l 751 571 l 811 92 l 786 68 z "},"↙":{"ha":871,"x_min":60,"x_max":811,"o":"m 560 132 l 85 68 l 60 92 l 118 571 l 183 507 l 167 236 l 751 819 l 811 760 l 228 176 l 496 197 l 560 132 z "},"▶":{"ha":821,"x_min":131,"x_max":768,"o":"m 131 -49 l 131 750 l 768 350 l 131 -49 z "},"▸":{"ha":581,"x_min":131,"x_max":529,"o":"m 529 325 l 131 -74 l 131 725 l 529 325 z "},"►":{"ha":1257,"x_min":125,"x_max":1200,"o":"m 1200 325 l 125 -74 l 125 725 l 1200 325 z "},"◀":{"ha":821,"x_min":53,"x_max":690,"o":"m 690 -49 l 53 350 l 690 750 l 690 -49 z "},"◂":{"ha":581,"x_min":53,"x_max":450,"o":"m 450 -74 l 53 326 l 450 725 l 450 -74 z "},"◄":{"ha":1258,"x_min":56,"x_max":1131,"o":"m 1131 -74 l 56 324 l 1131 725 l 1131 -74 z "},"▲":{"ha":903,"x_min":53,"x_max":850,"o":"m 850 32 l 53 32 l 451 668 l 850 32 z "},"▼":{"ha":903,"x_min":53,"x_max":850,"o":"m 53 667 l 850 667 l 451 31 l 53 667 z "},"☜":{"ha":1288,"x_min":69,"x_max":1172,"o":"m 1172 547 l 1172 58 l 958 58 q 955 92 956 75 q 953 128 954 110 q 745 61 810 72 q 640 50 681 50 q 538 57 593 50 q 482 64 482 64 q 447 61 469 61 q 404 61 425 61 q 336 73 364 61 q 308 125 308 85 q 329 168 308 147 q 299 224 299 192 q 314 263 299 247 q 285 318 285 288 q 293 347 285 333 l 151 349 q 87 372 104 349 q 69 419 69 394 q 89 470 69 449 q 151 492 108 492 l 357 492 q 353 518 353 504 q 363 560 353 538 q 372 582 372 582 q 476 612 425 603 q 575 621 526 621 q 782 578 686 621 q 953 488 878 536 q 955 518 954 503 q 958 547 956 533 l 1172 547 m 950 182 q 946 326 946 253 q 947 378 946 353 q 949 431 947 404 q 762 528 863 481 q 560 576 661 576 q 479 567 519 576 q 400 536 439 558 q 399 530 400 536 q 399 518 399 524 q 425 506 399 506 q 503 522 471 518 q 556 526 535 526 q 601 520 588 526 q 622 510 615 514 q 659 430 644 460 q 710 364 674 400 q 689 321 710 339 q 635 376 664 344 q 589 442 606 408 l 147 442 q 115 419 115 442 q 147 399 115 399 l 561 396 q 599 319 599 358 q 594 292 599 303 q 585 272 590 281 q 592 255 585 272 q 599 222 599 238 q 575 165 599 193 q 578 153 575 165 q 581 133 581 142 q 575 103 581 115 q 583 101 575 103 q 640 100 592 100 q 741 113 675 100 q 950 182 807 125 m 543 344 l 338 344 q 333 335 338 344 q 329 318 329 325 q 331 305 329 317 q 338 293 333 293 l 549 288 q 548 317 549 294 q 543 344 547 339 m 546 250 l 351 250 q 347 240 351 250 q 342 224 342 231 q 351 199 342 204 l 549 193 l 549 217 q 548 236 549 224 q 546 250 547 249 m 526 156 l 363 156 q 358 143 363 156 q 354 128 354 131 q 404 107 354 107 q 425 107 414 107 q 447 108 436 107 q 472 109 460 108 q 493 110 483 110 l 525 110 q 528 132 528 115 q 528 143 528 133 q 526 156 528 153 z "},"☝":{"ha":743,"x_min":92,"x_max":663,"o":"m 100 -136 l 100 78 l 169 83 q 103 291 114 226 q 92 396 92 356 q 99 499 92 443 q 106 554 106 554 q 103 589 103 567 q 103 632 103 611 q 115 700 103 672 q 167 728 126 728 q 210 707 189 728 q 265 738 233 738 q 304 722 289 738 q 360 751 329 751 q 389 743 375 751 l 390 885 q 413 949 390 932 q 461 967 436 967 q 512 947 490 967 q 533 885 533 928 l 533 679 q 560 683 546 683 q 601 674 579 683 q 624 664 624 664 q 653 560 644 611 q 663 461 663 510 q 620 253 663 350 q 529 83 578 157 l 589 78 l 589 -136 l 100 -136 m 142 396 q 154 294 142 360 q 224 86 167 229 q 285 88 254 88 q 347 89 317 89 q 410 88 378 89 q 472 86 442 88 q 570 274 522 172 q 618 476 618 375 q 609 557 618 517 q 578 636 600 597 q 572 637 578 636 q 560 638 565 638 q 547 611 547 638 q 564 533 560 565 q 568 481 568 501 q 562 435 568 449 q 551 414 556 421 q 472 377 501 392 q 406 326 442 363 q 363 347 381 326 q 418 401 386 372 q 483 447 450 431 l 483 889 q 461 921 483 921 q 440 889 440 921 l 438 475 q 361 438 400 438 q 333 442 344 438 q 314 451 322 446 q 297 444 314 451 q 264 438 279 438 q 207 461 235 438 q 195 458 207 461 q 175 456 183 456 q 144 461 157 456 q 143 453 144 461 q 142 396 142 444 m 386 493 l 386 699 q 376 703 386 699 q 360 707 367 707 q 347 705 358 707 q 335 699 335 703 l 329 488 q 358 488 336 488 q 386 493 381 489 m 292 490 l 292 685 q 282 690 292 685 q 265 694 272 694 q 240 685 246 694 l 235 488 l 258 488 q 278 488 265 488 q 292 490 290 489 m 197 510 l 197 674 q 185 678 197 674 q 169 682 172 682 q 149 632 149 682 q 149 611 149 622 q 150 589 149 600 q 151 565 150 576 q 151 543 151 553 l 151 511 q 174 508 157 508 q 185 508 175 508 q 197 510 194 508 z "},"☞":{"ha":1288,"x_min":115,"x_max":1218,"o":"m 115 58 l 115 547 l 329 547 l 335 488 q 506 578 410 536 q 713 621 601 621 q 813 612 761 621 q 915 582 864 603 q 925 560 915 582 q 935 518 935 538 q 931 492 935 504 l 1136 492 q 1199 470 1181 492 q 1218 419 1218 449 q 1201 372 1218 394 q 1136 349 1183 349 l 994 347 q 1003 318 1003 333 q 974 263 1003 288 q 989 224 989 247 q 958 168 989 192 q 979 125 979 147 q 951 73 979 85 q 883 61 922 61 q 840 61 863 61 q 806 64 818 61 q 750 57 806 64 q 647 50 694 50 q 542 61 607 50 q 335 128 478 72 l 329 58 l 115 58 m 728 576 q 524 528 625 576 q 338 431 424 481 q 340 368 339 400 q 340 306 340 336 q 340 244 340 275 q 338 182 339 213 q 545 113 479 125 q 647 100 611 100 q 703 101 694 100 q 713 103 713 103 q 707 133 707 115 q 710 153 707 142 q 713 165 713 165 q 689 222 689 193 q 696 255 689 238 q 703 272 703 272 q 693 292 697 281 q 689 319 689 303 q 726 396 689 358 l 1140 399 q 1172 419 1172 399 q 1140 442 1172 442 l 699 442 q 653 376 682 408 q 599 321 624 344 q 578 364 578 339 q 628 430 614 400 q 665 510 643 460 q 686 520 672 514 q 732 526 700 526 q 785 522 753 526 q 863 506 817 518 q 889 518 889 506 q 888 530 889 524 q 888 536 888 536 q 808 567 849 558 q 728 576 768 576 m 950 344 l 744 344 q 740 317 740 339 q 739 288 739 294 l 950 293 q 956 305 954 293 q 958 318 958 317 q 954 335 958 325 q 950 344 950 344 m 936 250 l 742 250 q 740 236 740 249 q 739 217 739 224 l 739 193 l 936 199 q 946 224 946 204 q 941 240 946 231 q 936 250 936 250 m 925 156 l 761 156 q 760 143 760 153 q 760 132 760 133 q 763 110 760 115 l 794 110 q 816 109 804 110 q 840 108 828 108 q 861 107 850 107 q 883 107 872 107 q 933 128 933 107 q 929 143 933 131 q 925 156 925 156 z "},"☟":{"ha":744,"x_min":92,"x_max":663,"o":"m 100 967 l 589 967 l 589 753 q 560 749 575 750 q 529 747 544 749 q 620 576 578 672 q 663 369 663 481 q 653 270 663 321 q 624 167 644 219 q 601 157 624 167 q 560 147 579 147 q 533 151 546 147 l 533 -54 q 512 -117 533 -97 q 461 -136 490 -136 q 413 -119 436 -136 q 390 -54 390 -101 l 389 88 q 360 79 375 79 q 304 108 329 79 q 265 93 289 93 q 210 124 233 93 q 167 103 189 103 q 115 131 126 103 q 103 199 103 158 q 103 242 103 219 q 106 276 103 264 q 99 332 106 276 q 92 435 92 388 q 103 540 92 475 q 169 747 114 604 q 134 749 151 749 q 100 753 117 750 l 100 967 m 472 743 q 420 741 446 742 q 368 740 394 740 q 224 744 294 740 q 154 535 167 601 q 142 435 142 469 q 143 378 142 386 q 144 369 144 369 q 175 375 157 375 q 195 372 183 375 q 207 369 207 369 q 264 393 235 393 q 297 386 279 393 q 314 379 314 379 q 333 389 322 385 q 361 393 344 393 q 438 356 400 393 l 440 -58 q 461 -90 440 -90 q 483 -58 483 -90 l 483 383 q 418 429 450 400 q 363 483 386 458 q 406 504 381 504 q 472 453 442 468 q 551 417 501 439 q 562 396 556 410 q 568 350 568 382 q 564 297 568 329 q 547 219 560 265 q 560 193 547 193 q 572 194 565 193 q 578 194 578 194 q 609 274 600 233 q 618 354 618 314 q 570 556 618 456 q 472 743 522 657 m 386 132 l 386 338 q 358 342 381 342 q 329 343 336 343 l 335 132 q 347 126 335 128 q 360 124 358 124 q 376 128 367 124 q 386 132 386 132 m 292 146 l 292 340 q 278 342 290 342 q 258 343 265 343 l 235 343 l 240 146 q 265 136 246 136 q 282 141 272 136 q 292 146 292 146 m 197 157 l 197 321 q 185 322 194 322 q 174 322 175 322 q 151 319 157 322 l 151 288 q 151 266 151 278 q 150 242 150 254 q 149 219 149 231 q 149 199 149 208 q 169 149 149 149 q 185 153 172 149 q 197 157 197 157 z "},"☚":{"ha":1329,"x_min":71,"x_max":1215,"o":"m 1215 547 l 1215 58 l 1001 58 q 999 92 1000 75 q 996 128 997 110 q 788 61 853 72 q 683 50 722 50 q 581 57 636 50 q 525 64 525 64 q 490 61 513 61 q 447 61 468 61 q 380 73 408 61 q 351 125 351 85 q 372 168 351 147 q 342 224 342 192 q 357 263 342 247 q 328 318 328 288 q 336 347 328 333 l 153 349 q 88 372 106 349 q 71 419 71 394 q 90 470 71 449 q 153 492 108 492 l 386 492 q 384 518 383 497 q 401 563 385 539 q 510 590 468 569 q 596 610 551 610 q 802 574 707 610 q 994 482 897 538 q 998 514 996 497 q 1001 547 1000 531 l 1215 547 z "},"☛":{"ha":1329,"x_min":114,"x_max":1258,"o":"m 114 58 l 114 547 l 328 547 l 333 482 q 526 574 431 538 q 733 610 621 610 q 819 590 778 610 q 928 563 861 569 q 944 518 944 539 q 943 492 944 497 l 1176 492 q 1239 470 1219 492 q 1258 419 1258 449 q 1241 372 1258 394 q 1176 349 1224 349 l 993 347 q 1001 318 1001 333 q 972 263 1001 288 q 988 224 988 247 q 957 168 988 192 q 978 125 978 147 q 950 73 978 85 q 882 61 922 61 q 839 61 861 61 q 804 64 817 61 q 749 57 804 64 q 646 50 693 50 q 541 61 606 50 q 333 128 476 72 l 328 58 l 114 58 z "},"":{"ha":1724,"x_min":139,"x_max":1585,"o":"m 932 469 l 917 469 l 917 524 l 890 524 l 890 469 l 875 469 l 875 567 l 890 567 l 890 539 l 918 539 l 918 525 l 932 525 l 932 469 m 849 469 l 819 469 l 819 482 l 806 482 l 806 524 l 792 524 l 792 539 l 806 539 l 806 553 l 821 553 l 821 539 l 849 539 l 849 524 l 821 524 l 821 483 l 849 483 l 849 469 m 515 469 l 486 469 l 486 482 l 472 482 l 472 524 l 458 524 l 458 539 l 472 539 l 472 553 l 488 553 l 488 539 l 515 539 l 515 524 l 488 524 l 488 483 l 515 483 l 515 469 m 1390 538 l 1376 538 l 1376 524 l 1361 524 l 1361 539 l 1375 539 l 1375 553 l 1390 553 l 1390 538 m 1321 524 l 1306 524 l 1306 538 l 1292 538 l 1292 553 l 1307 553 l 1307 539 l 1321 539 l 1321 524 m 363 524 l 347 524 l 347 538 l 333 538 l 333 553 l 349 553 l 349 539 l 363 539 l 363 524 m 432 538 l 418 538 l 418 524 l 403 524 l 403 539 l 417 539 l 417 553 l 432 553 l 432 538 m 599 482 l 585 482 l 585 469 l 571 469 l 571 456 l 557 456 l 557 442 l 542 442 l 542 457 l 556 457 l 556 482 l 542 482 l 542 539 l 557 539 l 557 483 l 583 483 l 583 539 l 599 539 l 599 482 m 682 482 l 668 482 l 668 469 l 640 469 l 640 442 l 625 442 l 625 539 l 668 539 l 668 525 l 682 525 l 682 482 m 765 482 l 751 482 l 751 469 l 722 469 l 722 482 l 708 482 l 708 525 l 722 525 l 722 539 l 751 539 l 751 525 l 765 525 l 765 482 m 1015 469 l 972 469 l 972 482 l 958 482 l 958 525 l 972 525 l 972 539 l 1001 539 l 1001 525 l 1015 525 l 1015 496 l 974 496 l 974 483 l 1015 483 l 1015 469 m 1099 442 l 1083 442 l 1083 469 l 1056 469 l 1056 482 l 1042 482 l 1042 525 l 1056 525 l 1056 539 l 1099 539 l 1099 442 m 1182 469 l 1139 469 l 1139 482 l 1125 482 l 1125 539 l 1140 539 l 1140 483 l 1167 483 l 1167 539 l 1182 539 l 1182 469 m 1265 469 l 1222 469 l 1222 482 l 1208 482 l 1208 525 l 1222 525 l 1222 539 l 1251 539 l 1251 525 l 1265 525 l 1265 496 l 1224 496 l 1224 483 l 1265 483 l 1265 469 m 293 524 l 278 524 l 278 539 l 293 539 l 293 524 m 238 524 l 222 524 l 222 539 l 238 539 l 238 524 m 1446 524 l 1431 524 l 1431 539 l 1446 539 l 1446 524 m 1501 524 l 1486 524 l 1486 539 l 1501 539 l 1501 524 m 404 496 l 390 496 l 390 482 l 375 482 l 375 496 l 361 496 l 361 511 l 375 511 l 375 525 l 390 525 l 390 511 l 404 511 l 404 496 m 279 496 l 265 496 l 265 482 l 250 482 l 250 496 l 236 496 l 236 511 l 250 511 l 250 525 l 265 525 l 265 511 l 279 511 l 279 496 m 182 496 l 168 496 l 168 482 l 153 482 l 153 496 l 139 496 l 139 511 l 153 511 l 153 525 l 168 525 l 168 511 l 182 511 l 182 496 m 1363 496 l 1349 496 l 1349 482 l 1333 482 l 1333 496 l 1319 496 l 1319 511 l 1333 511 l 1333 525 l 1349 525 l 1349 511 l 1363 511 l 1363 496 m 1585 496 l 1571 496 l 1571 482 l 1556 482 l 1556 496 l 1542 496 l 1542 511 l 1556 511 l 1556 525 l 1571 525 l 1571 511 l 1585 511 l 1585 496 m 1488 496 l 1474 496 l 1474 482 l 1458 482 l 1458 496 l 1444 496 l 1444 511 l 1458 511 l 1458 525 l 1474 525 l 1474 511 l 1488 511 l 1488 496 m 667 483 l 667 524 l 640 524 l 640 483 l 667 483 m 750 483 l 750 524 l 724 524 l 724 483 l 750 483 m 1000 511 l 1000 524 l 974 524 l 974 511 l 1000 511 m 1083 483 l 1083 524 l 1057 524 l 1057 483 l 1083 483 m 1250 511 l 1250 524 l 1224 524 l 1224 511 l 1250 511 m 293 469 l 278 469 l 278 483 l 293 483 l 293 469 m 1501 469 l 1486 469 l 1486 483 l 1501 483 l 1501 469 m 238 469 l 222 469 l 222 483 l 238 483 l 238 469 m 1446 469 l 1431 469 l 1431 483 l 1446 483 l 1446 469 m 363 469 l 349 469 l 349 456 l 333 456 l 333 469 l 347 469 l 347 483 l 363 483 l 363 469 m 1390 456 l 1375 456 l 1375 469 l 1361 469 l 1361 483 l 1376 483 l 1376 469 l 1390 469 l 1390 456 m 432 456 l 417 456 l 417 469 l 403 469 l 403 483 l 418 483 l 418 469 l 432 469 l 432 456 m 1321 469 l 1307 469 l 1307 456 l 1292 456 l 1292 469 l 1306 469 l 1306 483 l 1321 483 l 1321 469 z "}," ":{"ha":111,"x_min":0,"x_max":0,"o":""}," ":{"ha":222,"x_min":0,"x_max":0,"o":""}," ":{"ha":463,"x_min":0,"x_max":0,"o":""}," ":{"ha":833,"x_min":0,"x_max":0,"o":""},"​":{"ha":0,"x_min":0,"x_max":0,"o":""}," ":{"ha":315,"x_min":0,"x_max":0,"o":""}}}
